<?xml version="1.0" standalone="no"?>
<!DOCTYPE svg PUBLIC "-//W3C//DTD SVG 20010904//EN"
 "http://www.w3.org/TR/2001/REC-SVG-20010904/DTD/svg10.dtd">
<svg version="1.0" xmlns="http://www.w3.org/2000/svg"
 width="816.000000pt" height="607.000000pt" viewBox="0 0 816.000000 607.000000"
 preserveAspectRatio="xMidYMid meet">

<g transform="translate(0.000000,607.000000) scale(0.100000,-0.100000)"
fill="#000000" stroke="none">
<path d="M443 6064 c3 -3 20 -9 39 -14 18 -5 48 -14 66 -22 30 -12 34 -11 44
5 5 10 19 22 31 27 15 6 -12 9 -82 9 -57 1 -102 -2 -98 -5z"/>
<path d="M0 5654 l0 -356 23 6 c12 4 37 9 54 13 32 5 68 33 44 33 -35 0 24 41
64 44 6 1 14 7 18 14 4 6 14 12 22 12 8 0 26 11 41 25 26 24 28 25 37 8 6 -10
11 -19 12 -21 2 -2 17 6 35 16 21 13 27 22 18 25 -7 3 -4 6 8 6 15 1 24 10 28
28 l7 26 152 -6 c194 -9 379 -24 587 -48 91 -11 244 -29 340 -40 96 -11 204
-24 240 -29 36 -5 110 -14 165 -20 55 -6 116 -15 135 -20 19 -6 75 -13 123
-17 48 -3 90 -10 93 -15 3 -4 13 -8 22 -8 10 0 25 -9 35 -20 19 -22 33 -25 42
-10 3 6 29 10 56 10 45 0 50 -2 44 -19 -5 -18 -3 -19 27 -10 43 12 115 12 123
-1 3 -5 23 -10 43 -10 27 0 33 -3 22 -10 -13 -8 -13 -11 2 -26 13 -13 40 -19
102 -22 73 -4 85 -7 94 -26 6 -11 11 -15 11 -8 1 8 17 12 49 11 31 -2 37 -3
17 -6 -57 -7 -62 -14 -21 -29 21 -8 42 -12 46 -9 4 3 13 -2 20 -10 7 -8 25
-15 40 -15 15 0 33 -6 39 -14 7 -9 45 -16 107 -21 67 -5 97 -11 101 -21 3 -9
21 -14 54 -14 27 0 49 -4 49 -10 0 -5 22 -10 49 -10 27 0 51 -4 53 -9 7 -21
308 -12 308 9 0 4 19 11 43 15 l42 8 -39 12 c-59 17 -59 36 1 29 47 -5 323
-42 478 -64 166 -23 253 -32 337 -34 53 -2 93 -8 103 -16 17 -14 64 -24 205
-45 183 -27 311 -56 329 -72 7 -8 22 -11 32 -8 13 5 27 -2 44 -23 33 -40 112
-77 130 -62 12 10 13 -1 9 -62 l-4 -73 15 45 c8 25 15 54 15 65 1 27 20 50 48
59 12 4 22 13 22 21 0 7 6 16 13 18 9 4 9 6 -1 6 -22 2 -2 21 21 21 13 0 31 6
42 13 27 17 100 41 215 71 147 38 331 95 376 117 22 10 54 19 70 20 16 1 40 5
54 10 17 6 1 7 -45 3 -129 -10 -183 -20 -205 -39 -14 -13 -34 -16 -220 -31
-47 -4 -94 -13 -105 -20 -15 -9 -51 -11 -135 -8 -239 11 -350 9 -491 -12 -120
-17 -305 -11 -480 16 -73 11 -145 20 -161 20 -15 0 -36 4 -46 9 -19 10 -176
42 -237 49 -22 2 -46 9 -52 14 -7 6 -20 7 -29 4 -9 -4 -22 -2 -28 3 -6 4 -49
14 -96 21 -47 7 -97 18 -112 25 -15 7 -42 17 -60 20 -18 4 -40 15 -50 25 -9 9
-39 20 -67 24 -27 4 -53 11 -56 16 -3 6 -16 10 -28 10 -11 0 -33 11 -47 25
-25 24 -70 35 -150 36 -33 1 -110 22 -110 30 0 5 -21 9 -46 9 -33 0 -51 -5
-60 -17 -12 -17 -16 -16 -64 9 -40 22 -56 25 -75 18 -14 -5 -25 -14 -25 -20 0
-5 -9 -10 -20 -10 -11 0 -20 5 -20 11 0 9 -42 12 -137 9 -66 -2 -105 1 -318
20 -66 5 -158 17 -205 25 -148 25 -270 37 -305 31 -18 -4 -55 -2 -82 4 -26 6
-72 13 -101 15 -60 5 -232 34 -244 41 -4 3 -49 6 -100 9 -51 2 -106 8 -121 14
-16 6 -43 11 -62 11 -18 0 -36 6 -39 13 -5 10 -7 10 -12 0 -4 -8 -25 -13 -57
-12 -29 1 -44 3 -34 6 38 10 -27 31 -79 26 -27 -3 -74 0 -104 6 -30 6 -96 18
-147 25 -150 23 -204 37 -224 57 -21 21 -40 24 -56 8 -8 -8 -13 -8 -17 0 -4 6
-22 11 -41 11 -42 0 -65 9 -65 24 0 7 -21 17 -47 22 -39 7 -48 14 -53 34 -5
22 -12 25 -57 28 -47 3 -55 7 -97 52 -25 27 -48 45 -51 39 -11 -16 -35 -10
-35 9 0 20 -39 62 -58 62 -12 0 -16 17 -12 58 1 20 -3 22 -49 22 l-51 0 0
-356z m368 -121 c-10 -2 -28 -2 -40 0 -13 2 -5 4 17 4 22 1 32 -1 23 -4z m-31
-29 c-3 -3 -12 -4 -19 -1 -8 3 -5 6 6 6 11 1 17 -2 13 -5z m2416 -251 c-7 -2
-19 -2 -25 0 -7 3 -2 5 12 5 14 0 19 -2 13 -5z m142 -23 c3 -5 -3 -10 -14 -10
-12 0 -21 5 -21 10 0 6 6 10 14 10 8 0 18 -4 21 -10z m828 -127 c-7 -2 -21 -2
-30 0 -10 3 -4 5 12 5 17 0 24 -2 18 -5z m40 -40 c-13 -2 -33 -2 -45 0 -13 2
-3 4 22 4 25 0 35 -2 23 -4z"/>
<path d="M523 5982 c-29 -14 -46 -42 -25 -42 17 0 72 41 67 50 -3 6 -7 9 -8 9
-1 -1 -17 -9 -34 -17z"/>
<path d="M3599 5753 c-11 -13 -11 -17 -1 -20 18 -7 15 -21 -7 -28 -13 -4 -17
-12 -14 -25 3 -11 9 -20 14 -20 15 0 10 -27 -6 -34 -17 -6 -21 -56 -5 -56 6 0
10 6 10 14 0 7 13 19 28 25 23 10 56 7 183 -15 85 -15 168 -28 184 -30 l30 -3
-30 8 -30 8 25 7 c14 4 50 2 80 -3 30 -6 96 -17 145 -26 50 -9 99 -20 110 -25
11 -5 45 -11 75 -14 30 -2 93 -11 140 -20 117 -21 118 -21 128 17 5 17 6 35 3
38 -6 6 -267 71 -361 90 -70 14 -162 37 -195 48 -65 22 -147 43 -202 52 -121
19 -139 20 -181 11 -26 -6 -44 -6 -48 0 -3 5 -11 4 -20 -3 -11 -9 -15 -8 -20
5 -8 20 -18 20 -35 -1z m109 -115 c-6 -18 -28 -21 -28 -4 0 9 7 16 16 16 9 0
14 -5 12 -12z m194 -30 c32 -7 58 -16 58 -21 0 -5 -12 -6 -27 -3 -16 4 -57 13
-93 20 -50 11 -57 14 -31 15 19 0 61 -4 93 -11z"/>
<path d="M4170 5531 c8 -5 40 -11 70 -14 l55 -6 -60 14 c-69 16 -86 18 -65 6z"/>
<path d="M4033 5463 c9 -2 23 -2 30 0 6 3 -1 5 -18 5 -16 0 -22 -2 -12 -5z"/>
<path d="M4620 5452 c0 -12 23 -32 37 -32 8 0 6 7 -7 20 -21 21 -30 25 -30 12z"/>
<path d="M4203 5433 c9 -2 23 -2 30 0 6 3 -1 5 -18 5 -16 0 -22 -2 -12 -5z"/>
<path d="M4261 5426 c2 -2 22 -6 44 -9 27 -4 35 -3 25 3 -14 9 -79 15 -69 6z"/>
<path d="M5670 5383 c-73 -13 -99 -24 -97 -42 1 -11 6 -17 14 -14 7 3 30 -11
51 -31 20 -20 69 -66 109 -103 l72 -68 61 6 c85 8 91 19 31 60 -27 19 -57 46
-65 61 -9 15 -25 30 -36 33 -11 4 -20 12 -20 19 0 15 -72 87 -85 85 -6 -1 -21
-4 -35 -6z"/>
<path d="M6933 5243 c9 -2 23 -2 30 0 6 3 -1 5 -18 5 -16 0 -22 -2 -12 -5z"/>
<path d="M7391 5151 c-31 -4 -46 -12 -52 -26 -7 -18 -8 -18 -8 -2 -1 14 -6 17
-23 12 -82 -25 -123 -35 -198 -51 -47 -9 -89 -21 -94 -26 -13 -11 -7 -10 99 7
139 24 265 30 266 13 3 -40 -4 -99 -17 -142 -16 -56 -18 -96 -5 -96 13 0 18
19 42 134 17 85 26 106 52 134 27 27 29 34 17 42 -8 5 -19 9 -25 8 -5 0 -30
-4 -54 -7z"/>
<path d="M7660 5085 c0 -9 6 -12 15 -9 8 4 15 10 15 15 0 5 -7 9 -15 9 -8 0
-15 -7 -15 -15z"/>
<path d="M3870 5050 c0 -12 8 -12 35 0 18 8 17 9 -7 9 -16 1 -28 -3 -28 -9z"/>
<path d="M6765 5020 l-70 -18 82 3 c60 2 87 7 98 19 15 15 14 16 -12 15 -15
-1 -59 -9 -98 -19z"/>
<path d="M37 5013 c24 -2 62 -2 85 0 24 2 5 4 -42 4 -47 0 -66 -2 -43 -4z"/>
<path d="M7660 5004 c0 -8 5 -12 10 -9 6 3 10 10 10 16 0 5 -4 9 -10 9 -5 0
-10 -7 -10 -16z"/>
<path d="M6625 4990 c-18 -8 -17 -9 7 -9 15 -1 30 4 33 9 7 12 -12 12 -40 0z"/>
<path d="M0 4978 c0 -4 30 -8 68 -7 77 1 73 6 -10 12 -32 2 -58 0 -58 -5z"/>
<path d="M623 4973 c9 -2 25 -2 35 0 9 3 1 5 -18 5 -19 0 -27 -2 -17 -5z"/>
<path d="M820 4970 c0 -5 5 -10 11 -10 5 0 7 5 4 10 -3 6 -8 10 -11 10 -2 0
-4 -4 -4 -10z"/>
<path d="M903 4960 c-12 -5 -70 -9 -128 -9 -59 0 -110 -2 -113 -5 -12 -12 16
-27 67 -35 29 -5 57 -14 61 -21 4 -7 26 -16 48 -20 43 -8 52 1 52 58 0 12 6
22 14 22 8 0 18 5 21 10 7 12 7 12 -22 0z"/>
<path d="M962 4934 c-9 -17 2 -62 17 -65 10 -2 44 -8 78 -13 41 -7 60 14 47
52 -8 22 -16 27 -49 28 -22 1 -50 4 -61 8 -16 6 -25 3 -32 -10z m38 -44 c0 -5
-4 -10 -10 -10 -5 0 -10 5 -10 10 0 6 5 10 10 10 6 0 10 -4 10 -10z"/>
<path d="M7642 4929 c2 -6 8 -10 13 -10 5 0 11 4 13 10 2 6 -4 11 -13 11 -9 0
-15 -5 -13 -11z"/>
<path d="M1177 4924 c-16 -17 -7 -44 16 -44 17 0 19 -2 7 -10 -12 -7 -11 -10
5 -16 11 -5 40 -8 65 -8 40 -1 45 2 48 23 5 32 -11 45 -60 46 -24 1 -50 5 -59
9 -8 4 -18 3 -22 0z"/>
<path d="M1370 4884 c0 -17 9 -30 30 -42 16 -9 30 -23 30 -30 0 -9 5 -10 23
-1 12 7 29 15 37 19 9 5 14 18 12 36 -2 16 -4 29 -5 30 -1 1 -30 4 -64 7 -62
5 -63 5 -63 -19z"/>
<path d="M6010 4874 c-96 -18 -191 -36 -210 -40 -93 -16 -113 -40 -114 -134
-1 -36 -5 -72 -11 -80 -5 -8 -8 -45 -7 -82 3 -66 2 -68 -21 -68 -23 0 -25 -3
-32 -91 -8 -104 -1 -132 9 -37 7 66 19 98 32 85 13 -12 11 -197 -2 -197 -6 0
-16 -11 -22 -25 -6 -14 -8 -25 -3 -25 4 0 18 -9 31 -20 l23 -20 -24 -1 c-13
-1 -40 -2 -60 -3 l-35 -3 7 51 c14 94 29 221 29 244 0 23 -2 24 -72 18 -40 -3
-83 -5 -95 -6 -38 0 -53 -26 -53 -93 -1 -47 -3 -58 -11 -44 -14 24 -38 21 -43
-5 -15 -69 -12 -153 6 -190 10 -21 23 -36 28 -33 6 3 7 -1 4 -9 -4 -10 -1 -16
9 -16 10 0 13 7 10 19 -5 21 30 51 60 51 18 0 19 -6 13 -82 -3 -46 -9 -147
-12 -224 l-6 -142 -99 5 c-104 6 -123 1 -139 -42 -4 -11 -6 59 -4 155 2 96 7
304 10 463 5 223 9 287 19 287 7 0 15 7 19 15 4 10 -1 15 -14 15 -11 0 -20 5
-20 10 0 6 -22 10 -50 9 -43 -2 -50 -5 -51 -23 0 -20 -1 -20 -10 2 -7 20 -11
21 -22 10 -18 -18 -29 -48 -17 -48 5 0 11 8 13 18 3 9 6 -12 8 -48 2 -50 3
-56 6 -25 4 41 23 74 23 40 0 -10 3 -15 7 -12 3 4 13 2 20 -5 11 -9 17 -9 24
3 7 11 9 11 9 -4 0 -10 5 -15 10 -12 6 4 9 -19 8 -62 -1 -63 -1 -65 -7 -23 -6
39 -8 32 -15 -55 -10 -139 -14 -139 -16 0 -2 178 -15 113 -30 -145 -7 -124
-16 -274 -20 -335 l-7 -110 -3 125 c-1 69 -6 170 -10 225 -6 95 -7 92 -10 -80
-1 -99 -2 -218 -1 -265 1 -47 -3 -92 -8 -100 -8 -11 -11 25 -12 120 -2 178
-16 237 -18 75 -2 -134 -9 -246 -16 -254 -8 -7 -6 181 5 409 10 196 15 256 36
434 5 40 4 57 -3 53 -6 -4 -13 -39 -17 -79 -3 -40 -13 -129 -21 -198 -15 -123
-23 -182 -50 -390 -8 -58 -15 -130 -15 -160 0 -72 -9 -102 -28 -98 -18 4 -18
0 -26 168 -10 204 -15 237 -36 243 -13 3 -20 -2 -24 -18 -11 -44 -26 -210 -26
-294 0 -46 -3 -81 -6 -78 -13 12 -4 502 12 755 9 139 14 255 10 259 -13 13
-18 -8 -22 -94 -12 -278 -26 -529 -30 -535 -5 -8 -36 -368 -35 -405 1 -13 -5
-23 -12 -23 -8 0 -12 13 -10 38 15 301 16 343 2 340 -7 -2 -18 -10 -24 -19 -5
-9 -17 -27 -27 -40 -13 -19 -17 -55 -20 -184 l-3 -160 43 3 c23 2 42 2 42 -1
0 -3 -20 -12 -45 -21 -40 -13 -55 -13 -123 -1 -44 7 -78 9 -80 4 -9 -25 -22
-4 -22 36 0 41 -2 45 -25 45 -14 0 -41 7 -61 15 -31 13 -36 13 -41 -1 -3 -8 2
-23 12 -33 15 -18 15 -20 -2 -30 -16 -9 -14 -11 12 -11 17 -1 39 -5 50 -9 13
-6 -14 -11 -80 -16 -132 -9 -136 -9 -167 0 -24 6 -28 4 -28 -14 0 -14 -6 -21
-20 -21 -18 0 -20 7 -20 59 l0 60 43 3 42 3 -43 13 c-23 7 -47 10 -52 7 -6 -3
-10 -44 -10 -91 0 -73 2 -84 18 -85 14 0 14 -2 -3 -8 -11 -5 -22 -4 -23 1 -5
11 -32 -11 -32 -26 0 -11 -49 -46 -64 -46 -3 0 -6 9 -6 19 0 23 -33 33 -87 25
l-39 -5 1 38 c1 21 5 49 9 62 11 33 -14 51 -70 51 -53 0 -69 -18 -67 -79 0
-25 -1 -38 -4 -28 -2 9 -8 15 -13 12 -5 -3 -11 -1 -14 4 -12 19 -90 -2 -123
-32 -28 -26 -31 -35 -27 -68 4 -29 1 -42 -16 -59 -14 -14 -19 -28 -15 -41 4
-13 2 -19 -9 -19 -9 0 -16 -4 -16 -10 0 -5 24 -10 53 -11 52 -1 52 -1 22 -14
-36 -16 -193 -40 -202 -31 -4 4 -9 34 -11 67 -4 54 -7 62 -31 72 -14 6 -29 15
-32 20 -4 5 -12 57 -18 115 -10 91 -36 207 -58 262 -3 8 -8 22 -10 30 -4 14
-32 193 -34 215 0 6 -4 1 -9 -10 -7 -17 -9 -14 -11 15 -1 19 -1 43 -1 53 1 10
-5 28 -13 40 -8 12 -21 69 -30 127 -9 58 -20 119 -25 135 -5 17 -14 79 -20
139 -6 60 -13 112 -14 115 -2 3 -7 34 -10 68 -3 33 -10 73 -16 88 -6 15 -7 32
-3 38 4 7 9 2 13 -13 5 -22 11 -25 53 -25 26 0 46 4 46 9 0 5 5 12 12 17 21
13 4 20 -23 10 -29 -11 -73 -4 -88 15 -8 8 -19 10 -33 5 -12 -4 -33 -4 -47 0
-19 5 -20 7 -6 8 43 2 6 9 -81 16 l-93 7 1 -29 c0 -15 4 -50 9 -78 l7 -50 3
65 c3 48 4 55 7 25 4 -49 23 -90 34 -74 4 7 10 -19 14 -57 4 -38 13 -121 20
-184 8 -63 21 -180 30 -260 9 -80 21 -154 25 -165 5 -11 17 -91 26 -177 10
-86 21 -155 26 -152 8 5 9 -7 14 -116 2 -30 6 -104 9 -165 4 -78 3 -106 -4
-95 -6 8 -11 29 -11 47 0 18 -9 96 -21 175 -37 253 -48 330 -69 488 -22 160
-38 218 -26 95 13 -131 46 -410 61 -505 22 -142 29 -244 18 -265 -8 -14 -12 1
-17 66 -4 46 -18 158 -31 249 -38 263 -45 324 -60 524 -13 179 -25 250 -25
155 0 -43 3 -86 36 -464 23 -274 30 -551 14 -570 -9 -11 -15 -13 -20 -5 -5 7
-10 1 -14 -15 -4 -14 -3 -31 0 -37 5 -8 1 -9 -10 -5 -13 5 -16 3 -14 -11 2 -9
10 -16 18 -14 62 14 70 14 70 -1 0 -8 12 -20 28 -26 25 -10 25 -11 2 -6 -85
17 -100 18 -100 2 0 -9 9 -19 20 -22 11 -3 20 -10 20 -15 0 -5 20 -6 45 -3 29
3 45 1 45 -6 0 -6 -15 -11 -34 -11 -19 0 -38 -4 -41 -10 -3 -5 -25 -10 -48
-10 -32 0 -38 -3 -29 -12 19 -19 14 -45 -10 -51 -48 -12 -502 -57 -560 -56
l-37 1 1 44 c2 29 7 44 16 44 8 0 12 -9 10 -22 -2 -18 1 -22 17 -20 11 2 108
16 215 32 107 16 197 29 199 29 4 1 -6 111 -16 175 l-6 38 -147 -7 c-100 -5
-150 -4 -154 3 -4 7 8 13 31 17 110 17 152 28 146 39 -4 6 -6 25 -4 43 2 22
-3 35 -12 39 -9 3 -13 15 -10 32 3 27 3 27 -7 3 -6 -14 -16 -21 -24 -18 -17 7
-45 -23 -39 -40 3 -7 -2 -13 -10 -13 -9 0 -17 -8 -20 -17 -2 -10 -4 -4 -4 14
0 17 -8 49 -18 70 -43 95 -54 119 -59 133 -12 38 -4 -66 13 -160 10 -58 17
-108 14 -112 -9 -16 -33 -7 -33 12 0 11 -6 20 -12 20 -9 0 -9 3 1 9 11 7 12
13 4 23 -6 7 -14 36 -18 63 -4 28 -10 55 -15 60 -4 6 -10 23 -14 38 -8 34 -27
31 -37 -6 -5 -20 -3 -29 8 -36 14 -8 14 -13 -4 -52 -11 -24 -24 -53 -27 -63
-12 -34 -35 3 -51 79 -8 39 -26 122 -40 185 -14 63 -32 148 -40 188 -8 40 -26
97 -40 125 l-25 52 4 -40 c1 -22 17 -123 35 -224 18 -102 30 -201 29 -220 -4
-41 -5 -39 -42 81 -15 48 -30 88 -34 90 -13 6 -42 66 -42 87 0 12 -6 21 -15
21 -8 0 -15 -3 -15 -6 0 -20 55 -240 61 -244 4 -3 10 -38 13 -78 4 -63 2 -76
-15 -93 -15 -15 -19 -16 -19 -4 0 8 -4 15 -10 15 -5 0 -10 8 -10 17 0 9 -7 25
-16 34 -9 10 -20 35 -25 56 -4 21 -22 103 -38 183 -37 177 -50 220 -68 220
-10 0 -13 -19 -13 -77 0 -115 -3 -121 -59 -125 l-46 -3 4 -45 c1 -25 7 -50 13
-57 6 -8 5 -19 -2 -33 -13 -25 -3 -127 14 -137 6 -4 1 -10 -14 -13 -22 -5 -26
-12 -31 -65 l-6 -60 -1 60 c-3 73 -16 102 -31 65 -9 -24 -10 -24 -10 -2 -1 27
-9 28 -27 5 -12 -17 -13 -16 -14 5 0 28 -5 28 -42 -3 -34 -29 -98 -34 -118
-10 -7 8 -19 15 -26 15 -8 0 -14 -7 -14 -15 0 -8 5 -15 10 -15 6 0 10 -4 10
-10 0 -5 -7 -10 -16 -10 -10 0 -14 -6 -10 -15 3 -8 1 -15 -3 -15 -17 0 -21
-33 -6 -50 28 -30 16 -43 -16 -16 -59 50 -182 27 -222 -41 -17 -30 -17 -34 -2
-68 10 -19 22 -35 27 -35 6 0 8 -7 5 -14 -4 -10 -1 -13 9 -9 26 10 14 -12 -14
-24 -15 -7 -49 -33 -76 -57 -39 -36 -52 -43 -67 -36 -40 22 -136 1 -156 -34
-8 -15 -12 -15 -42 0 -18 9 -57 17 -86 18 -44 1 -60 -4 -97 -29 -55 -39 -62
-79 -24 -130 14 -19 26 -41 26 -49 0 -24 58 -55 101 -54 28 0 56 -11 103 -41
36 -22 68 -41 71 -41 10 0 65 -44 65 -52 0 -4 -14 -8 -31 -8 -31 0 -66 -27
-101 -79 -11 -15 -21 -20 -30 -15 -7 5 -22 10 -33 11 -29 5 -43 23 -20 24 11
1 30 2 42 3 12 0 24 4 28 7 3 4 -58 5 -137 4 -97 -1 -143 -6 -146 -13 -2 -7
-11 -12 -19 -12 -24 0 -9 53 29 107 18 25 39 57 47 72 8 14 18 28 23 29 26 11
-28 74 -83 96 -51 21 -85 20 -136 -4 -40 -18 -43 -18 -43 -2 0 10 -7 27 -15
39 -8 12 -19 39 -24 60 l-9 38 -1 -36 c-1 -19 3 -39 8 -45 11 -11 27 -112 16
-102 -9 9 -37 86 -64 175 -11 34 -24 70 -30 80 -19 32 -13 -18 8 -73 45 -118
70 -237 52 -248 -6 -4 -9 -11 -7 -15 3 -3 -4 -7 -15 -7 -16 0 -19 5 -14 23 3
13 1 23 -5 23 -5 0 -10 -6 -10 -12 -1 -24 -138 -98 -181 -98 -18 0 -19 -20
-19 -605 l0 -606 21 11 c26 14 35 7 14 -10 -8 -7 -15 -19 -15 -26 0 -8 -4 -14
-10 -14 -6 0 -10 -74 -10 -202 l0 -201 55 -108 c30 -59 55 -112 55 -117 0 -5
-24 -16 -52 -24 l-53 -15 -2 -199 -2 -199 69 136 69 137 70 21 c84 25 81 25
81 2 0 -29 25 -44 62 -36 18 4 89 20 158 36 69 16 172 40 230 53 191 45 202
47 208 41 3 -3 -4 -15 -16 -28 -12 -13 -22 -28 -22 -34 0 -6 -12 -14 -27 -18
-15 -3 -45 -15 -68 -25 -22 -10 -57 -21 -78 -25 -36 -7 -61 -25 -35 -25 21 -1
-43 -32 -91 -45 -66 -16 -66 -47 -1 -59 24 -5 31 -4 21 3 -22 15 57 27 80 12
11 -6 31 -11 46 -11 l28 -1 -25 -19 c-14 -11 -29 -24 -35 -28 -5 -4 -32 -19
-60 -33 -27 -13 -52 -27 -55 -30 -3 -4 -25 -13 -49 -20 -23 -7 -45 -19 -48
-26 -3 -7 -9 -13 -15 -13 -22 0 -98 -42 -98 -54 0 -8 -5 -16 -10 -18 -6 -2
-12 -17 -13 -33 -2 -26 1 -30 23 -30 14 0 51 -9 82 -19 56 -20 58 -20 135 -1
43 10 95 20 115 21 21 1 57 9 80 17 79 27 154 47 179 47 14 0 43 -9 64 -20 22
-12 48 -19 58 -16 9 2 17 -1 17 -8 0 -30 -33 -119 -51 -137 -19 -19 -16 -19
489 -19 l509 1 -8 47 c-4 26 -10 109 -13 185 -5 142 -13 173 -55 203 -13 10
-13 14 1 35 8 13 28 37 44 52 24 24 30 26 39 14 21 -30 96 -46 185 -40 83 5
145 21 90 23 -20 1 -18 4 15 15 52 19 67 18 35 -1 l-25 -15 30 6 c17 4 51 24
77 46 55 46 46 59 83 -131 14 -74 35 -175 46 -225 11 -50 22 -100 25 -113 2
-12 11 -22 19 -22 8 0 15 -7 15 -16 0 -11 6 -14 23 -9 24 8 92 39 117 54 40
24 252 121 265 121 7 0 21 -13 30 -28 9 -15 33 -39 52 -52 19 -13 41 -36 49
-51 9 -18 19 -26 29 -23 18 7 54 -32 55 -58 0 -17 16 -18 195 -18 l195 0 132
64 c182 88 200 93 235 67 42 -31 71 -31 90 0 15 25 15 27 -6 48 -20 20 -21 25
-8 44 8 12 23 22 33 22 11 1 46 21 78 45 32 25 73 55 90 66 17 12 42 33 55 47
l23 26 -80 120 -80 121 32 19 c17 10 47 26 66 36 19 9 49 24 65 33 17 9 56 32
88 50 32 18 65 32 72 30 7 -2 46 -48 88 -103 78 -104 230 -302 306 -400 25
-32 40 -59 35 -64 -14 -13 -345 -234 -379 -253 l-30 -17 27 -1 c18 0 67 27
145 82 65 45 149 103 187 129 l69 47 21 -27 c12 -14 35 -44 51 -66 16 -22 32
-42 35 -45 4 -3 25 -31 49 -62 23 -32 46 -58 52 -58 14 0 -1 24 -58 95 -26 33
-67 86 -90 116 -50 67 -61 50 112 168 66 44 169 115 228 156 59 41 112 75 117
75 6 0 10 4 10 9 0 4 46 39 103 77 56 38 145 99 198 136 54 38 102 68 108 68
7 0 24 -8 39 -17 l27 -17 -28 27 c-28 27 -52 35 -59 18 -1 -5 -75 -57 -163
-117 -88 -59 -176 -120 -196 -136 -20 -15 -41 -28 -47 -28 -5 0 -15 -7 -22
-15 -6 -8 -118 -85 -247 -171 l-236 -158 -18 25 c-11 13 -23 29 -27 34 -4 6
-40 53 -79 105 -40 52 -79 104 -88 115 -8 11 -47 63 -87 115 -39 52 -85 112
-101 132 -25 31 -28 40 -17 53 7 8 17 15 22 15 5 0 99 50 209 111 109 61 204
109 210 107 5 -2 69 -62 142 -133 78 -77 97 -94 47 -40 -47 49 -134 139 -195
200 -236 239 -347 359 -333 364 39 12 101 45 91 48 -6 2 -30 -5 -52 -16 -55
-29 -65 -27 -110 19 -21 22 -42 40 -46 40 -3 0 12 -19 34 -42 22 -24 41 -46
41 -49 0 -3 -37 -20 -82 -39 -88 -36 -147 -69 -98 -55 39 11 143 55 168 71 21
14 28 8 195 -162 94 -96 172 -181 172 -187 0 -6 -13 -18 -30 -27 -16 -8 -64
-33 -105 -56 -41 -22 -128 -68 -192 -102 l-117 -62 -53 70 c-29 38 -63 84 -76
102 -60 84 -224 303 -231 308 -4 3 -15 19 -25 35 -16 29 -16 36 8 170 14 77
27 149 30 160 4 11 12 47 20 80 8 33 21 89 30 125 9 36 16 82 16 103 0 21 7
66 15 100 8 34 17 75 21 92 5 27 7 28 18 12 7 -9 16 -17 19 -17 4 0 15 -6 24
-14 10 -8 33 -27 52 -42 l34 -28 -49 -23 c-53 -24 -45 -28 25 -12 35 8 47 7
61 -6 9 -8 20 -12 24 -8 4 5 4 -6 0 -22 -9 -39 -14 -44 -14 -14 0 19 -5 24
-25 24 -20 0 -23 -4 -18 -22 3 -14 1 -23 -6 -23 -18 0 -13 -18 7 -24 9 -2 -10
-2 -43 1 l-60 5 48 -26 c26 -14 57 -26 68 -26 21 0 25 -23 9 -65 -13 -34 3
-65 34 -65 12 0 44 -11 70 -24 27 -13 60 -27 74 -31 15 -4 29 -10 32 -13 3 -4
43 -20 90 -36 47 -16 102 -37 123 -48 22 -11 45 -17 53 -14 28 11 13 -22 -16
-34 -36 -15 -41 -34 -5 -20 21 8 25 7 25 -8 0 -18 18 -42 31 -42 4 0 9 17 11
37 2 26 8 39 20 41 20 4 105 -55 178 -123 59 -55 158 -130 165 -124 2 3 -39
39 -91 82 -90 74 -115 104 -76 93 9 -2 32 -7 50 -11 18 -4 32 -13 32 -21 0 -8
10 -14 23 -14 12 0 54 -9 93 -20 39 -10 92 -21 118 -23 26 -2 52 -9 59 -16 17
-17 27 -13 27 9 0 13 5 18 15 14 27 -11 16 -22 -57 -63 -40 -22 -82 -47 -93
-56 -19 -14 -17 -15 15 -2 19 8 61 27 93 43 49 24 59 26 67 14 6 -9 5 -17 -3
-23 -7 -5 -4 -6 9 -2 13 3 26 -1 34 -10 7 -8 16 -15 20 -15 4 0 27 -18 51 -40
32 -29 46 -36 56 -28 9 7 13 7 13 -1 0 -13 60 -42 72 -35 4 3 6 -1 3 -8 -2 -7
7 -21 20 -31 14 -10 25 -13 25 -7 0 6 4 9 10 5 5 -3 6 -13 3 -22 -4 -11 -2
-14 8 -11 8 3 30 -2 49 -12 19 -10 49 -24 65 -31 17 -8 33 -18 36 -23 4 -5 18
-8 33 -8 14 0 26 -4 26 -8 0 -11 -76 -71 -155 -125 -37 -25 -65 -45 -61 -45 9
0 46 20 60 32 28 23 191 118 204 118 1 0 6 -10 11 -22 6 -14 27 -30 58 -42 26
-10 59 -29 73 -42 27 -24 138 -74 167 -74 10 0 27 -7 37 -15 11 -8 28 -15 38
-15 10 0 27 -9 38 -20 19 -19 22 -19 45 -4 24 15 25 15 25 -3 0 -32 -22 -137
-32 -149 -12 -16 0 -42 23 -49 30 -10 39 3 39 56 0 37 4 49 15 49 18 0 20 17
3 23 -7 2 -10 8 -6 12 4 4 23 -9 43 -29 34 -34 63 -40 51 -11 -3 8 14 2 40
-13 24 -15 44 -29 44 -32 0 -6 -263 -264 -376 -370 -243 -227 -344 -324 -340
-328 6 -5 76 57 260 231 144 137 124 134 240 36 109 -93 333 -269 340 -269 12
0 34 -19 -214 180 -118 94 -216 177 -217 183 -1 7 48 57 109 112 60 55 136
124 169 154 l58 53 53 -33 c51 -32 101 -65 288 -194 47 -33 114 -79 150 -103
36 -25 99 -68 140 -97 41 -28 96 -66 122 -83 l47 -32 -44 -64 c-25 -35 -45
-67 -45 -70 0 -19 37 -1 66 31 27 30 35 35 43 24 10 -15 102 -54 110 -46 2 3
-6 16 -19 30 -35 37 -19 40 25 5 21 -17 41 -28 44 -24 6 6 -16 26 -58 54 l-23
16 31 44 c87 123 105 154 117 207 8 32 14 69 14 83 -1 24 -1 24 -15 6 -23 -30
-18 -5 5 29 12 17 27 45 35 62 8 18 18 33 23 33 15 0 62 78 62 102 0 16 -12 3
-45 -47 -25 -39 -45 -73 -45 -77 0 -23 -39 -4 -186 89 -10 7 -39 24 -64 38
-25 14 -63 36 -85 49 -22 14 -51 31 -65 39 -14 8 -46 27 -72 41 -27 15 -48 25
-48 23 0 -5 88 -59 130 -80 8 -4 35 -21 60 -37 38 -25 158 -96 225 -134 43
-24 75 -49 75 -57 0 -6 -215 -333 -234 -356 -1 -1 -87 56 -191 127 -105 72
-206 139 -225 150 -19 11 -60 39 -90 61 -30 22 -86 61 -125 87 -38 26 -79 56
-90 68 -11 11 -33 29 -48 39 -21 13 -25 20 -15 26 7 5 22 6 33 3 14 -4 16 -2
7 4 -10 6 -8 13 7 26 20 18 21 18 54 -2 19 -11 39 -17 46 -13 16 10 11 91 -6
91 -7 0 -13 -4 -13 -10 0 -5 -5 -10 -10 -10 -6 0 -5 8 2 20 7 11 16 20 19 20
9 0 81 73 95 97 7 11 22 17 38 16 27 -2 36 11 14 20 -8 3 35 53 105 121 107
106 120 115 140 106 20 -10 21 -10 4 3 -16 14 -10 22 83 118 63 64 104 99 108
92 4 -6 59 -36 122 -66 190 -90 232 -108 244 -103 8 3 8 5 -1 5 -15 1 -363
168 -363 175 0 11 109 116 121 116 16 0 78 -19 103 -32 12 -6 22 -6 28 0 6 6
0 12 -16 16 -14 3 -26 11 -26 17 0 14 57 2 87 -18 29 -19 113 -44 113 -34 0 8
-14 16 -104 55 -32 15 -56 29 -53 33 4 3 24 7 45 9 21 1 55 9 75 18 l37 15 0
635 0 634 -28 10 -27 10 26 1 c25 1 26 3 27 72 2 79 -3 96 -24 78 -10 -8 -14
-8 -14 0 0 6 -7 11 -15 11 -19 0 -20 44 -1 97 8 22 12 56 10 74 -3 19 4 63 15
98 11 36 18 68 16 71 -2 4 -40 10 -84 14 -44 3 -88 9 -98 12 -15 5 -15 4 -3
-4 7 -6 47 -14 87 -18 42 -3 73 -11 74 -18 2 -19 -2 -40 -17 -74 l-14 -34 -30
26 c-63 53 -153 40 -228 -32 -35 -34 -40 -36 -97 -34 -73 3 -135 19 -135 35 0
17 18 85 36 135 15 40 18 42 57 43 l42 2 -40 6 c-48 8 -62 0 -70 -42 -4 -18
-13 -41 -20 -53 -7 -11 -18 -40 -25 -62 -7 -29 -16 -42 -28 -42 -15 0 -15 2
-2 10 19 12 2 43 -26 49 -19 3 -69 38 -112 79 -27 24 -62 29 -63 10 0 -7 -7 2
-15 20 l-14 32 -84 0 c-97 0 -85 14 -126 -140 -17 -66 -30 -95 -40 -96 -8 0
-23 -4 -33 -8 -10 -5 -30 -3 -48 4 -17 7 -44 13 -60 12 -17 0 -29 4 -29 12 0
16 86 21 95 6 18 -29 36 -4 66 91 17 55 29 102 27 104 -2 3 -44 7 -94 9 l-89
5 79 -9 c43 -5 81 -12 84 -14 2 -3 -7 -40 -20 -83 -29 -91 -10 -85 -207 -62
-68 7 -125 18 -126 24 -26 102 -27 115 -11 145 10 21 11 30 3 27 -6 -2 -14
-14 -17 -28 -5 -22 -10 -24 -54 -21 -61 5 -76 -9 -123 -109 -46 -99 -75 -122
-140 -112 -42 7 -50 13 -70 48 -14 25 -23 57 -23 85 0 60 -15 111 -40 138 -38
40 -50 29 -50 -43 l0 -65 -40 -16 c-23 -9 -47 -28 -54 -42 -12 -23 -19 -26
-90 -28 -86 -3 -87 -1 -62 81 l12 40 8 -30 c10 -41 34 -65 65 -65 23 0 28 7
49 73 28 87 30 138 9 192 -14 36 -19 40 -54 43 -43 3 -110 -29 -104 -50 2 -7
5 -26 6 -43 2 -16 6 -40 10 -52 11 -35 -4 -27 -17 7 l-10 30 -18 -22 c-33 -43
-57 -103 -90 -225 -18 -68 -38 -123 -44 -123 -6 0 -44 7 -85 15 -40 9 -79 14
-85 11 -6 -2 -2 -5 9 -6 11 0 31 -7 45 -15 l25 -13 -30 -7 c-52 -12 -55 -14
-55 -41 0 -39 -23 -155 -29 -151 -3 1 -27 13 -53 25 -49 22 -62 34 -30 26 32
-8 40 10 48 111 7 80 12 100 24 98 19 -2 157 -29 191 -38 25 -6 27 -4 33 44 4
28 11 53 16 56 6 3 10 19 10 35 0 26 -4 29 -52 39 -29 6 -77 13 -106 16 -29 3
-62 9 -72 15 -13 7 -21 7 -25 0 -9 -15 -25 -12 -25 6 0 11 -6 14 -22 9 -17 -6
-20 -4 -15 10 4 9 7 23 7 31 0 11 15 14 64 14 58 0 64 2 59 19 -2 10 -12 18
-21 17 -12 -1 -16 6 -15 22 2 17 -2 22 -15 20 -14 -3 -17 6 -19 51 -3 65 -9
84 -26 78 -6 -2 -25 2 -40 10 l-28 14 7 167 c3 92 10 172 14 177 4 6 10 30 13
55 3 25 6 46 6 47 1 0 12 -4 26 -10 14 -7 25 -20 25 -29 0 -9 5 -20 11 -24 8
-4 9 -35 4 -100 -4 -52 -5 -94 -2 -94 3 0 10 33 17 73 10 65 49 181 50 148 0
-7 6 -11 13 -8 6 3 20 8 30 12 12 5 17 2 17 -8 0 -28 19 -28 34 0 8 15 15 22
16 14 0 -8 7 -4 18 10 13 17 23 66 36 174 10 83 19 155 20 160 0 6 -24 11 -55
13 l-57 3 4 92 c3 97 23 210 39 226 14 14 133 43 145 36 6 -4 17 -1 25 5 8 6
78 25 157 41 78 16 147 34 152 39 15 15 -8 12 -204 -26z m-3077 -156 c7 -56
44 -261 57 -318 16 -74 38 -215 60 -395 11 -93 27 -193 35 -221 14 -49 36
-215 34 -259 -3 -62 -76 304 -112 558 -6 42 -13 73 -17 67 -4 -6 -1 -45 6 -88
6 -42 14 -97 18 -122 3 -25 12 -94 20 -155 17 -119 19 -141 11 -134 -4 5 -26
139 -46 289 -5 41 -14 111 -21 155 -6 44 -12 132 -13 195 -2 63 -10 158 -19
210 -8 52 -18 122 -21 155 -3 33 -8 70 -11 83 -2 12 0 22 5 22 4 0 11 -19 14
-42z m-76 -210 c-2 -13 -4 -3 -4 22 0 25 2 35 4 23 2 -13 2 -33 0 -45z m10
-65 c-3 -10 -5 -4 -5 12 0 17 2 24 5 18 2 -7 2 -21 0 -30z m2803 7 c0 -5 -4
-10 -10 -10 -5 0 -10 5 -10 10 0 6 5 10 10 10 6 0 10 -4 10 -10z m-2753 -52
c-3 -7 -5 -2 -5 12 0 14 2 19 5 13 2 -7 2 -19 0 -25z m40 -130 c-2 -13 -4 -3
-4 22 0 25 2 35 4 23 2 -13 2 -33 0 -45z m2418 -83 c-3 -30 -11 -55 -16 -55
-9 0 -7 32 7 99 9 44 16 12 9 -44z m325 41 c0 -3 -4 -8 -10 -11 -5 -3 -10 -1
-10 4 0 6 5 11 10 11 6 0 10 -2 10 -4z m-523 -193 c-2 -32 -3 -6 -3 57 0 63 1
89 3 58 2 -32 2 -84 0 -115z m-2230 110 c-3 -10 -5 -4 -5 12 0 17 2 24 5 18 2
-7 2 -21 0 -30z m10 -130 c-2 -16 -4 -3 -4 27 0 30 2 43 4 28 2 -16 2 -40 0
-55z m2180 -55 c-2 -13 -4 -3 -4 22 0 25 2 35 4 23 2 -13 2 -33 0 -45z m-2170
-25 c-3 -10 -5 -4 -5 12 0 17 2 24 5 18 2 -7 2 -21 0 -30z m2200 -180 c-2 -32
-3 -8 -3 52 0 61 1 87 3 58 2 -29 2 -78 0 -110z m-40 30 c-2 -16 -4 -5 -4 22
0 28 2 40 4 28 2 -13 2 -35 0 -50z m-3382 -153 c3 -5 1 -10 -4 -10 -6 0 -11 5
-11 10 0 6 2 10 4 10 3 0 8 -4 11 -10z m1312 -12 c-3 -8 -6 -5 -6 6 -1 11 2
17 5 13 3 -3 4 -12 1 -19z m2098 -45 c-12 -17 -20 -23 -23 -15 -4 14 28 56 36
47 3 -2 -3 -17 -13 -32z m-228 -19 c-3 -3 -12 -4 -19 -1 -8 3 -5 6 6 6 11 1
17 -2 13 -5z m25 -37 c84 -18 83 -30 -2 -22 -90 8 -112 13 -105 26 8 12 36 11
107 -4z m368 -31 c0 -28 -26 -54 -41 -39 -14 14 6 63 26 63 9 0 15 -9 15 -24z
m-850 -16 c0 -5 -6 -10 -14 -10 -8 0 -18 5 -21 10 -3 6 3 10 14 10 12 0 21 -4
21 -10z m125 4 c-6 -2 -9 -22 -7 -44 4 -36 2 -40 -19 -40 -22 0 -24 4 -24 45
0 44 1 45 30 44 16 0 25 -3 20 -5z m65 -8 c0 -2 -7 -6 -15 -10 -8 -3 -15 -1
-15 4 0 6 7 10 15 10 8 0 15 -2 15 -4z m-1523 -58 c-3 -8 -6 -5 -6 6 -1 11 2
17 5 13 3 -3 4 -12 1 -19z m1670 -16 c29 -8 51 -18 48 -20 -4 -4 -86 18 -145
39 -42 15 37 0 97 -19z m178 -12 c4 -6 -5 -10 -19 -10 -14 0 -26 5 -26 10 0 6
9 10 19 10 11 0 23 -4 26 -10z m270 0 c3 -5 -3 -10 -14 -10 -12 0 -21 5 -21
10 0 6 6 10 14 10 8 0 18 -4 21 -10z m-2865 -20 c0 -5 -5 -10 -11 -10 -5 0 -7
5 -4 10 3 6 8 10 11 10 2 0 4 -4 4 -10z m1724 -2 c-7 -11 -35 -10 -53 1 -10 6
-3 9 22 8 20 0 34 -5 31 -9z m679 0 c-2 -5 -22 -8 -43 -8 -21 0 -41 3 -43 8
-3 4 17 7 43 7 26 0 46 -3 43 -7z m367 8 c0 -2 -7 -6 -15 -10 -8 -3 -15 -1
-15 4 0 6 7 10 15 10 8 0 15 -2 15 -4z m-3036 -61 c4 -19 2 -44 -4 -55 -9 -16
-8 -18 5 -14 23 9 19 -44 -5 -64 -20 -17 -20 -19 -4 -125 12 -80 13 -112 5
-120 -8 -8 -11 -5 -11 10 0 36 -19 36 -24 1 -13 -86 -17 -186 -7 -193 7 -4 11
3 11 17 0 14 6 33 14 44 14 18 15 18 22 1 13 -35 6 -616 -7 -595 -5 7 -9 24
-9 38 0 14 -9 58 -20 99 -11 41 -20 109 -21 150 -1 64 -2 70 -10 41 -4 -19 -9
-69 -10 -110 -1 -41 -5 -84 -10 -95 -4 -11 -13 -74 -19 -141 -9 -117 -9 -123
14 -183 27 -67 26 -64 26 -87 0 -12 6 -15 23 -10 12 4 33 8 47 9 22 2 26 8 31
47 l5 45 8 -38 c8 -36 11 -38 35 -32 14 3 46 10 71 14 42 7 146 34 265 67 88
24 131 28 138 11 4 -10 -2 -17 -16 -20 -12 -2 -112 -28 -222 -57 -308 -80
-512 -130 -529 -130 -9 0 -24 -4 -34 -10 -50 -27 -526 -130 -602 -130 -23 1
-24 1 -6 12 11 6 53 19 95 28 115 26 432 110 443 117 6 3 5 8 -2 13 -9 6 -9
12 1 29 17 27 39 27 46 1 6 -24 21 -26 30 -4 3 8 -4 28 -16 44 -26 36 -26 40
-2 40 26 0 29 6 32 65 1 28 6 61 11 73 8 23 7 24 -34 18 l-43 -5 43 11 c23 6
42 17 42 24 0 17 0 17 -57 2 -41 -10 -47 -9 -59 7 -19 26 -17 53 4 55 9 1 38
2 64 1 52 0 49 -3 67 89 16 82 22 129 25 191 1 30 6 61 10 68 5 7 1 20 -8 30
-20 22 -21 32 -2 25 13 -5 25 39 31 116 1 14 3 32 6 40 2 9 -4 16 -17 18 -16
2 -20 8 -17 22 3 10 0 27 -6 39 -11 19 -9 21 14 21 14 0 25 -5 25 -11 0 -5 -5
-7 -10 -4 -7 4 -8 -3 -4 -22 9 -37 14 -42 14 -14 0 12 4 30 9 40 8 15 32 165
45 281 10 86 29 176 40 182 19 13 24 9 30 -27z m1824 6 c-4 -20 -48 -27 -59
-10 -12 20 8 37 37 31 16 -3 24 -10 22 -21z m534 7 c-8 -8 -17 -8 -34 0 -22
10 -21 11 12 11 26 1 31 -2 22 -11z m642 3 c11 -4 15 -10 10 -13 -5 -4 -18 0
-29 8 -20 15 -12 17 19 5z m176 -11 c179 -34 178 -33 191 -57 16 -29 2 -44
-17 -19 -12 17 -14 17 -14 4 0 -20 -50 -57 -67 -51 -7 3 -13 -2 -13 -11 0 -9
4 -16 8 -16 4 0 14 -15 20 -34 11 -29 17 -34 44 -32 33 1 46 -17 30 -41 -9
-15 -52 -6 -52 11 0 6 -19 11 -47 11 -45 1 -144 25 -170 43 -7 4 -14 49 -18
109 l-6 103 28 -5 c15 -3 53 -9 83 -15z m-1176 -6 c9 -25 2 -26 -17 -4 -13 16
-14 20 -3 20 8 0 17 -7 20 -16z m-2144 -3 c0 -11 -40 -22 -52 -15 -5 3 -6 10
-3 15 8 12 55 12 55 0z m1194 -5 c-21 -15 -30 -14 -19 3 3 6 14 11 23 11 13 0
13 -2 -4 -14z m2740 -11 c22 -33 20 -51 -6 -70 -20 -13 -21 -17 -8 -25 8 -5
26 -10 40 -10 17 0 21 -3 13 -11 -14 -14 -73 -2 -73 16 0 7 -7 15 -15 19 -19
7 -19 27 2 71 20 42 26 43 47 10z m-3670 6 c3 -5 -1 -12 -10 -15 -23 -9 -54
-7 -54 3 0 18 54 28 64 12z m4574 -7 c6 -2 12 -8 12 -13 0 -6 -22 -10 -52 -8
-40 2 -54 6 -56 19 -3 14 4 15 40 11 24 -2 49 -6 56 -9z m-1651 -76 c-2 -13
-4 -3 -4 22 0 25 2 35 4 23 2 -13 2 -33 0 -45z m-2637 -40 c0 -21 -38 -2 -68
32 -49 57 -30 72 24 19 24 -24 44 -47 44 -51z m1682 79 c13 -1 60 2 105 7 80
7 82 7 85 -16 2 -15 16 -29 43 -42 43 -20 56 -21 128 -10 45 6 47 8 47 40 0
25 4 34 16 34 11 0 15 -6 11 -20 -3 -11 -1 -20 4 -20 5 0 9 -16 9 -35 0 -19 5
-35 10 -35 6 0 10 -18 10 -40 0 -35 -4 -42 -27 -51 -32 -12 -39 -12 -109 -3
-31 4 -59 2 -72 -5 -15 -8 -28 -8 -49 0 -15 7 -39 11 -53 10 -62 -3 -158 53
-197 115 -7 12 -15 15 -20 9 -13 -16 -74 -47 -80 -41 -9 9 18 36 36 36 28 0
47 18 35 30 -7 7 -9 20 -7 31 4 14 11 17 29 13 13 -3 34 -7 46 -7z m-1052 -33
c0 -8 -6 -11 -15 -8 -8 4 -15 12 -15 20 0 8 6 11 15 8 8 -4 15 -12 15 -20z
m-1150 -4 c0 -11 -2 -20 -4 -20 -2 0 -6 9 -9 20 -3 11 -1 20 4 20 5 0 9 -9 9
-20z m1607 4 c-3 -3 -12 -4 -19 -1 -8 3 -5 6 6 6 11 1 17 -2 13 -5z m3253 -19
c36 -7 85 -11 110 -8 34 4 58 0 91 -15 30 -14 79 -24 138 -28 51 -4 87 -10 81
-14 -7 -4 7 -7 31 -7 24 0 72 -6 106 -15 38 -9 68 -11 78 -6 8 5 20 6 26 2 8
-5 6 -10 -5 -16 -9 -5 -16 -22 -16 -38 0 -20 -8 -35 -29 -49 -36 -26 -45 -27
-29 -1 7 10 10 21 8 23 -3 2 -61 13 -130 26 -115 20 -173 40 -124 42 10 0 14
3 7 5 -7 3 -20 1 -30 -5 -15 -8 -127 8 -213 30 -3 1 9 4 25 8 35 7 43 43 10
49 -11 2 -17 1 -13 -4 12 -11 -86 -42 -116 -37 -14 3 -26 9 -26 14 0 5 -6 9
-13 9 -8 0 -24 11 -37 25 -28 29 -22 30 70 10z m-1382 -17 c-2 -15 -11 -24
-25 -26 -25 -4 -31 16 -11 36 20 20 40 14 36 -10z m2400 -13 c72 -31 114 -89
114 -159 -1 -149 -159 -234 -284 -151 l-40 27 -31 -34 c-17 -18 -32 -37 -32
-43 -1 -5 -5 -18 -9 -28 -5 -11 -4 -23 3 -30 16 -16 13 -26 -7 -20 -25 6 -28
100 -4 126 12 13 17 14 23 5 14 -21 23 1 11 26 -9 19 -8 27 4 36 9 8 14 32 14
72 0 86 34 139 110 172 45 20 82 20 128 1z m-6153 -72 c5 -25 3 -33 -8 -33
-24 0 -35 22 -32 65 2 22 4 42 4 45 3 10 29 -46 36 -77z m1265 67 c0 -5 -11
-10 -25 -10 -14 0 -25 5 -25 10 0 6 11 10 25 10 14 0 25 -4 25 -10z m-810 -50
c0 -11 -4 -20 -10 -20 -5 0 -10 9 -10 20 0 11 5 20 10 20 6 0 10 -9 10 -20z
m3905 10 c-3 -5 -13 -10 -21 -10 -8 0 -12 5 -9 10 3 6 13 10 21 10 8 0 12 -4
9 -10z m1542 -17 c-9 -9 -20 -14 -24 -10 -3 4 2 14 13 21 25 19 33 10 11 -11z
m-727 -3 c-20 -13 -33 -13 -25 0 3 6 14 10 23 10 15 0 15 -2 2 -10z m-2783
-27 c-3 -3 -11 -2 -17 2 -9 6 -9 10 1 16 14 8 27 -7 16 -18z m2682 17 c-9 -5
-48 -17 -85 -25 -38 -8 -94 -22 -124 -30 -53 -14 -249 -60 -360 -85 -30 -7
-62 -16 -70 -21 -32 -18 21 -8 216 40 374 92 414 100 414 84 0 -13 -20 -86
-32 -115 -9 -25 -12 -26 -26 -11 -15 14 -16 14 -23 -3 -4 -13 -1 -22 12 -28
20 -9 27 -46 9 -46 -5 0 -10 4 -10 9 0 5 -7 17 -16 26 -14 13 -37 16 -134 14
-64 -1 -122 1 -129 5 -6 4 -14 0 -17 -8 -3 -9 -12 -16 -20 -16 -8 0 -22 -9
-31 -20 -10 -11 -23 -20 -29 -20 -6 0 -14 -17 -18 -37 -5 -34 -3 -41 24 -64
27 -23 42 -48 21 -35 -5 3 -14 -1 -21 -9 -10 -13 -14 -13 -27 0 -8 8 -11 20
-7 26 4 8 9 7 15 -2 4 -7 11 -10 15 -6 11 11 -1 18 -38 23 -18 3 -44 7 -57 10
-15 3 -28 -1 -37 -13 -13 -17 -13 -17 -14 0 0 10 -7 41 -16 68 -15 45 -19 49
-43 45 -14 -2 -39 -9 -54 -15 -44 -17 -57 -14 -57 14 0 18 -4 23 -16 18 -12
-4 -15 -2 -12 8 2 8 33 21 69 31 35 9 55 16 43 17 -11 1 -43 -6 -70 -14 -54
-16 -100 -19 -108 -7 -5 9 353 103 389 102 46 0 -22 27 -125 51 -53 12 -125
38 -105 38 13 0 107 -21 216 -49 l86 -22 169 40 c162 39 270 54 233 32z
m-3889 -72 l37 -60 28 26 c39 37 45 32 9 -6 -31 -33 -35 -68 -8 -68 21 0 17
-28 -6 -40 -16 -8 -20 -8 -20 3 0 8 -8 21 -17 28 -10 8 -14 9 -10 2 4 -6 9
-30 11 -51 l3 -40 -59 -12 c-33 -6 -63 -9 -66 -6 -5 6 -11 38 -28 159 -8 55 9
97 39 97 10 0 21 9 24 20 7 27 19 17 63 -52z m2215 27 c22 -8 51 -15 65 -16
47 -1 125 -35 125 -53 0 -14 -11 -18 -57 -21 -66 -4 -78 -9 -78 -34 0 -30 81
-56 175 -56 74 0 80 2 83 21 2 11 -4 27 -13 34 -26 22 -17 35 24 35 22 0 37
-3 35 -7 -3 -5 3 -8 13 -8 10 0 28 -7 39 -14 20 -14 20 -18 8 -103 -7 -48 -9
-92 -5 -96 5 -5 46 -24 91 -42 81 -32 84 -32 137 -18 47 12 55 12 69 -2 20
-19 44 -19 44 0 0 21 20 19 22 -2 4 -50 -9 -116 -21 -109 -5 3 -14 -1 -21 -9
-7 -8 -38 -23 -69 -32 -54 -17 -55 -18 -22 -21 18 -2 55 4 82 12 54 18 105 21
114 6 3 -5 19 -10 35 -10 64 0 82 -26 23 -33 -37 -4 -36 -4 7 -5 60 -2 182 39
196 66 10 20 12 20 33 6 34 -24 241 -86 286 -85 204 2 276 21 238 63 -9 10
-24 18 -35 18 -22 0 -24 26 -2 34 45 17 108 -10 170 -76 57 -60 74 -88 127
-208 35 -80 48 -123 53 -179 7 -68 6 -73 -12 -69 -10 2 -43 -6 -73 -19 -29
-12 -58 -20 -63 -17 -6 4 -44 1 -85 -6 -55 -10 -73 -17 -69 -26 4 -10 -3 -14
-22 -14 l-27 -1 30 -14 c30 -13 30 -13 5 -15 -27 -1 -29 1 45 -46 39 -25 39
-25 10 -20 -16 2 -39 8 -50 12 -20 7 -20 7 0 -15 20 -23 20 -23 0 -37 -12 -9
-19 -24 -17 -36 3 -16 0 -19 -12 -15 -22 9 -20 -8 6 -54 19 -35 23 -37 34 -21
12 15 13 14 14 -11 0 -15 7 -42 16 -58 8 -17 13 -33 10 -36 -3 -3 -29 -10 -58
-14 -71 -12 -184 20 -234 67 -31 28 -41 31 -77 27 -32 -3 -38 -2 -27 6 8 6 25
11 38 11 12 0 22 3 22 7 0 3 -17 29 -38 57 -63 84 -82 121 -81 157 1 19 3 26
6 16 3 -10 11 -16 18 -13 7 2 27 -11 45 -30 17 -20 34 -33 38 -30 3 3 -8 29
-23 58 -23 43 -30 68 -32 133 -2 44 0 85 4 92 11 15 55 5 46 -10 -4 -7 0 -8
11 -4 10 4 25 7 34 8 9 0 4 5 -13 11 -16 6 -41 19 -55 28 -14 9 -40 22 -58 28
-27 9 -34 9 -39 -3 -3 -11 -21 -15 -56 -15 -42 0 -77 12 -204 72 -84 39 -151
73 -149 75 2 2 47 -12 101 -32 108 -39 123 -42 105 -21 -6 8 -19 36 -28 62
-16 44 -20 48 -77 65 -33 11 -69 23 -80 28 -21 10 -92 26 -165 37 -24 3 -107
24 -183 45 -142 39 -201 43 -252 16 -19 -10 -18 -12 10 -18 30 -7 30 -7 -4 -6
-66 4 -44 28 49 54 l35 10 -75 35 c-41 20 -122 57 -180 83 -58 26 -139 63
-180 82 -215 100 -364 165 -378 167 -12 2 -19 17 -24 52 -4 27 -4 52 0 56 13
13 55 11 97 -3 28 -10 79 -14 170 -12 188 4 190 4 158 29 -17 12 -16 13 7 13
14 0 43 -6 65 -14z m-3375 -10 c0 -8 -4 -15 -10 -15 -5 0 -10 7 -10 15 0 8 5
15 10 15 6 0 10 -7 10 -15z m6345 -10 c-2 -32 -21 -53 -36 -38 -15 15 0 63 20
63 11 0 16 -8 16 -25z m-6751 -40 c-4 -8 -17 -15 -30 -15 -30 0 -31 8 -1 20
32 13 37 12 31 -5z m466 -14 c0 -12 -26 -21 -62 -21 -26 0 -29 2 -18 15 13 16
80 21 80 6z m29 -23 c-9 -18 -8 -24 7 -35 17 -12 17 -13 -3 -13 -16 0 -20 6
-18 28 3 49 5 53 15 47 7 -4 6 -13 -1 -27z m667 -69 c35 -42 64 -80 64 -83 0
-3 -12 -6 -27 -6 -21 0 -35 10 -55 39 -16 22 -28 46 -28 55 0 9 -6 16 -12 17
-7 0 -24 14 -37 31 -19 24 -21 32 -10 38 17 11 26 4 105 -91z m1809 91 c-11
-5 -29 -9 -40 -9 l-20 0 20 9 c11 5 29 9 40 9 l20 0 -20 -9z m-795 -56 c0 -2
-21 -4 -47 -4 -37 0 -44 3 -33 11 12 9 13 12 1 16 -10 4 -11 7 -1 13 11 7 80
-25 80 -36z m-140 -5 c35 -1 35 -1 -8 -10 -25 -5 -53 -4 -67 1 -14 5 -40 7
-57 4 -26 -4 -30 -3 -18 6 9 6 35 9 65 6 28 -3 66 -6 85 -7z m-1432 -6 c-10
-2 -26 -2 -35 0 -10 3 -2 5 17 5 19 0 27 -2 18 -5z m162 -44 c0 -10 -4 -19
-10 -19 -5 0 -10 12 -10 26 0 14 4 23 10 19 6 -3 10 -15 10 -26z m925 11 c3
-5 2 -10 -4 -10 -5 0 -13 5 -16 10 -3 6 -2 10 4 10 5 0 13 -4 16 -10z m-1106
-38 c0 -24 -1 -25 -9 -7 -12 28 -12 47 0 40 6 -3 10 -18 9 -33z m4051 19 c0
-6 -4 -13 -10 -16 -5 -3 -10 1 -10 9 0 9 5 16 10 16 6 0 10 -4 10 -9z m-4110
-37 c0 -13 -4 -24 -9 -24 -11 0 -22 40 -15 52 9 15 24 -2 24 -28z m1302 21
l47 -6 -28 -47 -27 -47 -117 -5 c-85 -4 -114 -8 -109 -17 5 -7 39 -11 102 -10
l95 2 39 -59 c38 -56 40 -58 75 -53 29 3 37 1 38 -12 3 -66 9 -101 18 -101 49
-1 -350 -123 -568 -174 -34 -8 -70 -18 -80 -21 -14 -6 -24 7 -53 70 -19 42
-34 78 -32 80 2 2 19 7 38 12 32 9 35 12 32 45 -2 31 1 37 28 48 20 8 34 9 43
3 6 -6 23 -13 37 -17 82 -24 90 -24 162 -2 76 23 79 37 9 42 -41 2 -140 37
-150 52 -3 5 -15 12 -26 15 -13 4 -11 5 5 2 14 -2 35 -7 48 -10 22 -7 22 -7
16 62 l-6 69 52 12 c28 7 60 12 70 12 9 0 23 7 30 15 7 8 21 15 31 15 9 0 24
6 31 13 26 26 32 26 150 12z m-1762 -37 c26 -43 25 -67 -6 -133 -35 -73 -75
-107 -123 -103 -31 3 -36 6 -34 26 2 12 11 35 21 50 11 15 41 64 67 110 27 45
50 82 52 82 2 0 12 -15 23 -32z m-432 -9 c34 -17 62 -35 62 -40 0 -12 -7 -11
-33 3 -12 7 -31 11 -43 10 -21 -3 -74 32 -74 49 0 16 25 10 88 -22z m3440 8
c2 -9 -6 -26 -16 -38 l-20 -21 -44 21 c-24 11 -32 18 -18 15 19 -4 32 2 50 21
26 27 43 28 48 2z m3320 8 c13 -12 -25 -25 -73 -24 -27 0 -43 3 -35 6 8 3 19
13 24 21 6 10 18 13 43 9 20 -4 38 -9 41 -12z m-5554 -10 c3 -8 12 -15 21 -15
8 0 15 -9 15 -20 0 -11 -5 -20 -12 -20 -7 0 -4 -6 5 -12 9 -7 20 -28 23 -45 6
-31 5 -33 -20 -33 -16 0 -25 -4 -21 -10 3 -5 14 -10 24 -10 14 0 20 -10 25
-39 3 -22 3 -46 0 -54 -3 -10 2 -18 14 -21 16 -6 20 -20 26 -92 8 -99 6 -103
-64 -135 -26 -12 -53 -31 -59 -43 -9 -16 -10 30 -6 179 4 110 8 218 10 240 3
22 0 42 -7 46 -7 4 -8 23 -4 53 7 46 19 59 30 31z m4847 -2 c51 -16 52 -17 25
-22 l-30 -6 27 -12 c15 -7 27 -19 27 -27 0 -17 113 -56 160 -56 34 0 45 -13
26 -30 -12 -9 -44 -1 -153 35 -76 26 -149 54 -162 62 l-24 16 29 13 c33 14 32
14 -16 21 -19 2 -39 9 -44 14 -17 15 76 10 135 -8z m-3634 -15 c-3 -8 -6 -5
-6 6 -1 11 2 17 5 13 3 -3 4 -12 1 -19z m2687 -40 c4 -29 12 -58 18 -65 11
-13 2 -36 -11 -28 -5 2 -11 29 -15 59 -3 30 -9 61 -12 70 -3 9 -2 16 4 16 5 0
13 -24 16 -52z m1166 -4 c25 -7 36 -13 24 -13 -26 -1 -85 18 -99 32 -7 7 -3 7
10 2 11 -4 40 -14 65 -21z m-2575 6 c3 -5 -1 -10 -9 -10 -8 0 -18 5 -21 10 -3
6 1 10 9 10 8 0 18 -4 21 -10z m1222 -37 c-3 -10 -5 -4 -5 12 0 17 2 24 5 18
2 -7 2 -21 0 -30z m-5037 -9 c0 -8 -4 -12 -10 -9 -5 3 -10 13 -10 21 0 8 5 12
10 9 6 -3 10 -13 10 -21z m2598 9 c-2 -13 -13 -18 -41 -18 -43 0 -45 17 -2 22
16 3 32 6 34 9 9 9 12 3 9 -13z m-141 -30 c-3 -10 -5 -4 -5 12 0 17 2 24 5 18
2 -7 2 -21 0 -30z m3708 -6 c50 -24 64 -35 52 -40 -9 -3 -17 -2 -17 3 0 6 -11
10 -24 10 -14 0 -28 5 -31 10 -3 6 -17 10 -31 10 -15 0 -24 6 -24 15 0 9 -9
15 -22 14 -22 0 -22 -1 -3 -9 16 -7 17 -9 3 -9 -19 -1 -31 13 -21 23 13 13 50
4 118 -27z m-5565 13 c0 -15 -70 -159 -81 -165 -17 -11 -9 19 24 97 17 43 38
78 45 78 6 0 12 -4 12 -10z m4952 -28 c6 -72 5 -74 -26 -68 -30 6 -78 54 -70
68 8 12 32 -3 37 -23 8 -31 22 -22 24 17 1 32 0 34 -15 22 -15 -12 -16 -11 -3
4 16 21 50 8 53 -20z m422 24 c-5 -13 65 -45 191 -87 24 -8 33 -14 23 -17 -9
-2 -56 10 -105 26 -48 16 -103 33 -120 37 -18 3 -35 11 -39 16 -11 18 5 39 30
39 18 0 24 -4 20 -14z m-4189 -21 c17 -13 25 -24 18 -25 -7 0 -25 11 -40 25
-36 32 -17 32 22 0z m5003 19 c13 -4 22 -14 22 -25 0 -23 28 -25 85 -4 68 24
99 19 145 -22 39 -37 40 -39 34 -91 -6 -45 -11 -55 -38 -70 -19 -12 -49 -18
-76 -18 l-45 1 3 48 c4 47 -11 82 -29 71 -5 -3 -7 -9 -5 -13 9 -13 -57 -69
-89 -75 -27 -6 -32 -3 -50 31 -19 36 -23 38 -65 36 -41 -2 -43 -2 -17 8 15 6
27 14 27 19 0 4 19 13 43 19 67 17 77 27 47 50 -13 11 -27 19 -30 19 -18 -1
-23 4 -10 12 18 11 18 11 48 4z m-180 -31 c28 -8 52 -18 52 -22 0 -8 -162 -30
-232 -32 l-43 -1 34 -10 c23 -6 31 -12 23 -20 -12 -12 -135 33 -130 48 1 5 25
8 53 6 45 -3 53 0 78 26 25 26 34 29 70 25 23 -2 66 -11 95 -20z m-4753 -3
c-3 -5 -14 -10 -23 -10 -15 0 -15 2 -2 10 20 13 33 13 25 0z m930 0 c3 -5 1
-10 -4 -10 -6 0 -11 5 -11 10 0 6 2 10 4 10 3 0 8 -4 11 -10z m-265 -4 c0 -11
-19 -15 -25 -6 -3 5 1 10 9 10 9 0 16 -2 16 -4z m1385 -6 c7 -12 -2 -12 -30 0
-19 8 -19 9 2 9 12 1 25 -3 28 -9z m1699 -5 c-4 -8 -10 -15 -15 -15 -4 0 -6 7
-3 15 4 8 10 15 15 15 4 0 6 -7 3 -15z m-5314 -27 c0 -7 3 -23 6 -34 4 -17 0
-23 -20 -28 -28 -7 -53 -43 -39 -56 4 -5 26 -10 47 -12 l40 -3 21 -102 22
-103 -26 7 c-14 3 -22 2 -18 -3 4 -4 -14 -14 -40 -21 -77 -20 -391 -83 -410
-82 -16 1 -16 2 1 6 13 3 15 7 7 12 -8 5 23 54 95 151 88 116 115 146 149 160
22 10 65 40 95 68 57 53 70 60 70 40z m5990 2 c0 -13 -11 -13 -30 0 -12 8 -11
10 8 10 12 0 22 -4 22 -10z m-5690 -21 c-7 -11 -14 -18 -17 -15 -3 3 0 12 7
21 18 21 23 19 10 -6z m160 -8 c0 -16 -19 -23 -40 -16 -30 10 -24 25 10 25 17
0 30 -4 30 -9z m2350 -60 c0 -11 -8 -6 -25 14 -32 39 -32 55 0 25 14 -13 25
-31 25 -39z m3517 23 c-3 -3 -12 -4 -19 -1 -8 3 -5 6 6 6 11 1 17 -2 13 -5z
m-152 -14 c13 -6 15 -9 5 -9 -8 0 -22 4 -30 9 -18 12 -2 12 25 0z m-6805 -4
c0 -3 -4 -8 -10 -11 -5 -3 -10 -1 -10 4 0 6 5 11 10 11 6 0 10 -2 10 -4z
m2009 -113 c-10 -11 -10 -14 -1 -9 9 5 12 -3 12 -29 0 -37 -7 -43 -74 -59 -25
-6 -28 -5 -22 11 5 15 4 15 -9 -2 -14 -17 -17 -18 -25 -5 -21 32 -11 90 23
135 17 24 37 42 44 40 7 -2 10 2 6 13 -3 9 9 -4 27 -31 28 -41 31 -49 19 -64z
m-118 44 c-8 -8 -11 -5 -11 9 0 27 14 41 18 19 2 -9 -1 -22 -7 -28z m-1838 26
c-7 -2 -19 -2 -25 0 -7 3 -2 5 12 5 14 0 19 -2 13 -5z m3433 -28 c4 -8 12 -15
20 -15 22 0 16 -17 -8 -24 -36 -9 -38 -8 -38 24 0 31 16 41 26 15z m324 -22
c0 -25 -3 -33 -9 -24 -6 9 -18 11 -39 6 -17 -3 -53 -3 -79 1 -41 7 -45 9 -23
15 14 4 49 7 78 8 37 1 54 5 58 16 10 24 14 17 14 -22z m-111 -80 c25 -20 52
-43 59 -52 6 -8 12 -10 12 -4 0 6 -20 29 -45 51 -52 46 -56 55 -17 42 15 -5
41 -11 57 -13 23 -3 29 -9 28 -23 -11 -86 -43 -277 -47 -281 -2 -3 -14 12 -25
34 -44 85 -196 203 -261 203 -16 0 -20 5 -16 18 3 9 8 29 11 43 5 22 14 27 58
35 68 12 125 -4 186 -53z m161 51 c0 -8 -5 -12 -10 -9 -6 4 -8 11 -5 16 9 14
15 11 15 -7z m-2690 -4 c0 -5 -4 -10 -10 -10 -5 0 -10 5 -10 10 0 6 5 10 10
10 6 0 10 -4 10 -10z m880 -44 c-7 -7 -10 1 -9 25 0 32 1 33 10 10 6 -16 6
-28 -1 -35z m2996 26 c-6 -5 40 -32 55 -32 4 0 28 -13 51 -29 31 -21 46 -26
55 -19 17 14 63 -16 63 -41 0 -18 -2 -19 -32 -5 -18 9 -40 19 -48 24 -8 5 -52
28 -98 51 -91 46 -104 57 -66 57 13 0 22 -3 20 -6z m-1186 -43 c0 -5 -4 -9
-10 -9 -5 0 -10 -4 -10 -10 0 -5 8 -10 18 -10 16 -1 16 -1 0 -11 -19 -11 -24
-29 -9 -29 11 0 61 -44 61 -54 0 -14 -19 -4 -53 27 -33 30 -35 36 -30 74 4 30
9 40 19 36 8 -3 14 -9 14 -14z m-2720 -9 c0 -5 -5 -10 -11 -10 -5 0 -7 5 -4
10 3 6 8 10 11 10 2 0 4 -4 4 -10z m4057 -5 c0 -8 -4 -12 -9 -9 -5 3 -6 10 -3
15 9 13 12 11 12 -6z m-4114 -14 c-5 -21 -48 -45 -101 -56 -37 -8 -51 10 -33
44 11 20 35 27 103 30 31 1 35 -2 31 -18z m5852 9 c3 -5 -1 -10 -9 -10 -9 0
-16 5 -16 10 0 6 4 10 9 10 6 0 13 -4 16 -10z m-3025 -4 c0 -3 -4 -8 -10 -11
-5 -3 -10 -1 -10 4 0 6 5 11 10 11 6 0 10 -2 10 -4z m2871 -49 c-8 -8 -11 -5
-11 9 0 27 14 41 18 19 2 -9 -1 -22 -7 -28z m-5013 11 c22 -22 15 -67 -12 -79
-28 -13 -39 -44 -30 -86 4 -22 -1 -39 -20 -68 -14 -21 -26 -42 -26 -46 0 -5
-4 -9 -9 -9 -15 0 -32 99 -29 164 2 53 6 63 41 97 39 40 64 48 85 27z m2197 2
c3 -6 -1 -7 -9 -4 -18 7 -21 14 -7 14 6 0 13 -4 16 -10z m-620 -124 c-5 -56
-17 -86 -35 -86 -4 0 -10 37 -13 83 -4 45 -10 93 -13 107 -6 24 -5 23 30 -9
35 -34 36 -36 31 -95z m576 114 c22 -13 25 -30 4 -30 -8 0 -19 9 -25 20 -12
23 -7 25 21 10z m94 0 c3 -5 1 -10 -4 -10 -6 0 -11 5 -11 10 0 6 2 10 4 10 3
0 8 -4 11 -10z m-4070 -10 c6 5 28 7 49 3 30 -5 35 -8 24 -18 -7 -7 -26 -17
-43 -23 -16 -5 -38 -13 -47 -17 -15 -6 -18 -1 -18 31 0 29 3 35 12 26 7 -7 16
-8 23 -2z m2975 -20 c0 -4 -16 -11 -36 -14 -19 -4 -43 -10 -51 -13 -10 -4 -14
-2 -10 4 4 6 1 14 -5 17 -7 3 -4 5 7 4 11 0 31 4 45 9 26 11 50 7 50 -7z
m-2801 -3 c-2 -1 -15 -11 -29 -22 l-25 -20 19 23 c11 12 24 22 29 22 6 0 8 -1
6 -3z m3891 -7 c0 -5 -5 -10 -11 -10 -5 0 -7 5 -4 10 3 6 8 10 11 10 2 0 4 -4
4 -10z m3061 0 c10 0 19 -5 19 -11 0 -15 -63 -6 -68 10 -3 10 0 12 12 8 10 -4
26 -7 37 -7z m-98 -36 c21 -14 36 -28 33 -31 -6 -6 -86 43 -86 52 0 11 17 4
53 -21z m-4328 -14 c3 -6 -1 -7 -9 -4 -18 7 -21 14 -7 14 6 0 13 -4 16 -10z
m82 4 c-3 -3 -12 -4 -19 -1 -8 3 -5 6 6 6 11 1 17 -2 13 -5z m1277 -3 c4 -5
-3 -7 -14 -4 -23 6 -26 13 -6 13 8 0 17 -4 20 -9z m-946 -74 c29 -40 82 -111
118 -159 35 -48 64 -96 64 -106 0 -14 -20 -26 -84 -50 -45 -18 -87 -32 -92
-32 -5 -1 -27 -9 -49 -20 -22 -10 -44 -15 -48 -11 -4 4 -10 35 -12 69 -3 56
-2 62 22 77 l26 17 -7 144 c-4 79 -3 144 1 144 4 -1 32 -33 61 -73z m3941 16
c2 -2 2 -5 0 -8 -11 -11 -48 9 -58 31 -17 39 -14 40 21 8 18 -16 35 -30 37
-31z m341 17 c0 -5 -7 -10 -16 -10 -8 0 -12 5 -9 10 3 6 10 10 16 10 5 0 9 -4
9 -10z m-4813 -6 c-3 -3 -12 -4 -19 -1 -8 3 -5 6 6 6 11 1 17 -2 13 -5z
m-1354 -46 c-3 -18 -10 -38 -15 -45 -5 -7 -5 -14 2 -18 14 -9 13 -18 -6 -41
-14 -18 -15 -16 -11 31 4 48 21 105 32 105 2 0 2 -15 -2 -32z m192 3 c3 -5 2
-12 -3 -15 -5 -3 -9 1 -9 9 0 17 3 19 12 6z m932 3 c-3 -3 -12 -4 -19 -1 -8 3
-5 6 6 6 11 1 17 -2 13 -5z m4908 -4 c-3 -5 -12 -10 -18 -10 -7 0 -6 4 3 10
19 12 23 12 15 0z m-3854 -69 l-6 -44 -14 26 c-13 24 -12 29 4 47 10 11 19 19
20 18 2 -2 0 -23 -4 -47z m3833 28 c-8 -13 -40 -11 -52 4 -9 10 -4 12 23 9 19
-2 32 -8 29 -13z m-5864 -9 c0 -5 -5 -10 -11 -10 -5 0 -7 5 -4 10 3 6 8 10 11
10 2 0 4 -4 4 -10z m399 -41 c-33 -24 -35 -16 -8 23 20 28 24 30 27 14 3 -12
-5 -26 -19 -37z m1678 19 c-3 -7 -5 -2 -5 12 0 14 2 19 5 13 2 -7 2 -19 0 -25z
m-989 -38 c13 -44 48 -166 59 -205 3 -13 -2 -10 -16 10 -11 17 -21 25 -21 19
0 -7 -19 -15 -43 -18 -23 -4 -56 -15 -72 -26 -39 -26 -42 -25 -50 10 -9 40
-19 44 -55 23 -30 -17 -30 -17 -55 9 -31 33 -31 35 -2 59 l22 19 -33 -11 c-19
-7 -36 -18 -39 -25 -3 -8 -11 -14 -19 -14 -8 0 -14 -5 -14 -11 0 -6 -8 -8 -17
-5 -10 3 -46 -3 -80 -13 -60 -18 -62 -18 -78 -1 -30 33 -16 63 38 80 27 9 45
19 41 23 -4 4 2 7 14 7 11 0 23 4 26 8 5 8 129 49 174 57 9 2 17 4 17 5 0 5
162 47 175 46 8 0 20 -21 28 -46z m1090 -9 c24 -20 72 -71 109 -114 76 -90 76
-91 42 -253 -27 -129 -41 -153 -88 -154 -30 0 -33 2 -29 25 3 14 1 25 -3 25
-5 0 -9 9 -9 19 0 11 -9 26 -20 34 -12 8 -20 18 -19 23 4 16 -18 59 -47 94
l-29 33 28 -7 c31 -7 38 9 7 19 -11 4 -18 10 -15 15 7 12 -43 120 -55 120 -12
0 -3 48 12 67 5 7 26 17 46 24 20 6 41 15 46 20 13 12 -66 -11 -81 -23 -9 -8
-13 -6 -13 5 0 8 7 17 15 21 8 3 20 17 25 31 11 29 14 28 78 -24z m-2151 33
c-3 -3 -12 -4 -19 -1 -8 3 -5 6 6 6 11 1 17 -2 13 -5z m2765 -14 c10 -11 13
-22 8 -25 -6 -4 -10 -1 -10 5 0 6 -5 8 -12 4 -17 -11 -68 -15 -68 -6 1 19 27
39 55 41 6 1 18 -8 27 -19z m3035 14 c-3 -3 -12 -4 -19 -1 -8 3 -5 6 6 6 11 1
17 -2 13 -5z m176 -11 c-3 -7 -6 -13 -8 -13 -2 0 -5 6 -8 13 -3 8 1 14 8 14 7
0 11 -6 8 -14z m-3326 -15 c-3 -8 -6 -5 -6 6 -1 11 2 17 5 13 3 -3 4 -12 1
-19z m3209 -7 c-3 -5 -21 -13 -39 -16 -17 -4 -35 -13 -39 -19 -5 -7 -8 -5 -8
7 0 11 8 17 23 17 13 0 32 6 43 14 20 15 30 14 20 -3z m-306 0 c0 -5 -19 -26
-42 -47 -43 -36 -120 -76 -222 -114 -29 -11 -71 -36 -93 -55 -58 -49 -61 -32
-4 19 29 26 80 56 127 75 127 52 141 59 176 95 32 33 58 45 58 27z m-2822 -69
c29 -4 28 -16 -3 -30 -28 -13 -65 -16 -65 -6 0 4 5 24 12 45 11 37 12 38 22
16 6 -12 22 -23 34 -25z m2982 18 c0 -5 -4 -10 -10 -10 -5 0 -10 5 -10 10 0 6
5 10 10 10 6 0 10 -4 10 -10z m540 -20 c0 -5 -2 -10 -4 -10 -3 0 -8 5 -11 10
-3 6 -1 10 4 10 6 0 11 -4 11 -10z m-3453 -78 c23 -7 45 -17 49 -23 8 -14 -23
-5 -83 23 -24 11 -40 25 -36 31 4 6 10 5 17 -4 6 -8 30 -20 53 -27z m178 -20
l20 -14 -20 6 c-11 4 -39 12 -62 19 -24 6 -43 14 -43 18 0 10 82 -12 105 -29z
m3205 20 c0 -4 -9 -13 -20 -20 -16 -10 -20 -10 -20 2 0 8 6 17 13 19 19 8 27
8 27 -1z m62 -14 c-7 -7 -12 -8 -12 -2 0 14 12 26 19 19 2 -3 -1 -11 -7 -17z
m-6210 -30 c-9 -9 -12 -7 -12 12 0 19 3 21 12 12 9 -9 9 -15 0 -24z m668 22
c0 -5 -4 -10 -10 -10 -5 0 -10 5 -10 10 0 6 5 10 10 10 6 0 10 -4 10 -10z
m1225 -20 c-3 -5 -27 -10 -53 -9 -38 1 -42 2 -22 9 37 12 82 12 75 0z m88 -4
c4 -10 1 -13 -8 -9 -8 3 -12 9 -9 14 7 12 11 11 17 -5z m-543 -22 c0 -7 -27
-34 -34 -34 -4 0 -1 9 6 20 12 19 28 27 28 14z m1556 -25 c8 -14 -20 -10 -41
5 -18 13 -18 14 8 9 15 -3 30 -9 33 -14z m161 -31 c-3 -7 -5 -2 -5 12 0 14 2
19 5 13 2 -7 2 -19 0 -25z m1381 26 c33 -9 27 -19 -13 -21 -19 -1 -35 3 -35 9
0 5 -7 8 -15 5 -8 -4 -17 -2 -20 3 -7 11 47 13 83 4z m-3058 -45 c0 -5 -9 -4
-19 3 -11 7 -17 16 -14 20 5 10 33 -10 33 -23z m3594 -23 c-44 -52 -55 -60
-24 -16 12 16 18 35 14 41 -4 8 -3 9 4 5 7 -4 12 -2 12 4 0 6 5 8 10 5 6 -3
10 -1 10 6 0 7 3 10 6 6 3 -3 -11 -26 -32 -51z m-6579 8 c8 -20 15 -40 15 -44
0 -8 -119 -54 -125 -48 -4 4 84 128 90 128 3 0 12 -16 20 -36z m850 27 c7 -13
-80 -26 -102 -16 -15 7 -13 9 12 15 44 11 83 11 90 1z m3745 -1 c0 -5 -2 -10
-4 -10 -3 0 -8 5 -11 10 -3 6 -1 10 4 10 6 0 11 -4 11 -10z m2128 -14 c-25
-19 -22 -25 9 -23 37 3 62 -40 47 -80 -9 -25 -14 -28 -54 -26 -50 2 -54 5 -75
55 l-15 38 34 14 c18 8 37 19 40 25 4 6 13 11 19 11 7 0 4 -7 -5 -14z m-6010
-11 c-3 -3 -23 -8 -44 -10 l-39 -5 40 14 c38 13 55 13 43 1z m2407 -43 c74
-142 118 -218 135 -233 17 -15 17 -18 3 -38 -14 -21 -16 -21 -39 -6 -22 14
-27 14 -53 0 -42 -21 -50 -37 -14 -29 27 6 27 6 8 -9 -11 -8 -23 -13 -27 -11
-5 3 -8 1 -8 -5 0 -5 6 -11 13 -14 6 -2 0 -4 -15 -4 -24 0 -27 3 -22 23 7 29
-1 30 -50 5 -40 -21 -66 -18 -66 6 0 10 -9 7 -33 -12 -33 -25 -34 -25 -55 -6
-29 24 -28 33 3 21 14 -5 25 -6 25 -1 0 9 -30 25 -42 23 -8 -2 -14 18 -23 77
-5 31 -4 42 4 37 6 -4 11 -14 11 -22 0 -8 5 -14 11 -14 6 0 9 -7 5 -15 -6 -16
3 -19 27 -9 9 3 12 14 10 28 -3 13 -1 26 5 30 5 3 12 -12 16 -34 7 -46 17 -50
40 -15 13 20 15 35 7 82 -5 32 -6 84 -3 117 4 53 7 59 36 72 50 22 59 17 91
-44z m-2510 18 c-11 -5 -33 -8 -50 -8 l-30 0 30 8 c17 4 39 8 50 8 l20 1 -20
-9z m4131 -18 c-4 -3 -14 2 -24 12 -16 18 -16 18 6 6 13 -6 21 -14 18 -18z
m-3632 6 c3 -7 14 -57 27 -111 14 -64 25 -94 30 -85 11 17 45 -3 41 -25 -1 -9
4 -49 13 -89 19 -92 19 -118 0 -118 -19 0 -19 -25 0 -110 7 -36 10 -69 6 -73
-5 -5 -152 -44 -327 -88 -487 -121 -459 -113 -459 -134 0 -20 3 -19 -290 -85
-49 -11 -98 -23 -108 -26 -13 -4 -20 0 -24 15 -4 16 -11 19 -33 15 -23 -5 -28
-2 -33 18 -3 12 -20 61 -37 108 -45 121 -180 519 -180 530 0 12 38 21 250 60
240 43 393 73 755 146 331 66 363 71 369 52z m5407 -15 c-12 -20 -14 -14 -5
12 4 9 9 14 11 11 3 -2 0 -13 -6 -23z m-5994 11 c-3 -3 -12 -4 -19 -1 -8 3 -5
6 6 6 11 1 17 -2 13 -5z m2431 -11 c-2 -10 -13 -19 -26 -21 -24 -4 -29 7 -10
26 18 18 40 15 36 -5z m4172 -22 c7 11 15 11 44 1 20 -7 40 -10 46 -7 6 4 26
1 46 -5 26 -9 39 -9 47 -1 6 6 19 11 29 11 12 0 16 5 11 18 -5 14 -3 15 8 5
16 -16 65 -17 74 -3 4 6 11 8 16 4 11 -6 -12 -37 -88 -117 -40 -43 -58 -56
-66 -48 -6 6 -16 11 -21 11 -6 0 -3 -7 7 -15 20 -15 30 -1 -114 -156 -25 -27
-50 -49 -55 -49 -11 0 -75 34 -198 104 -71 41 -85 53 -81 70 2 12 7 43 10 70
3 27 8 53 11 57 6 11 94 -21 94 -34 0 -7 4 -7 12 1 17 17 28 15 28 -7 0 -14 5
-18 20 -14 14 4 20 0 20 -11 0 -9 5 -16 10 -16 6 0 10 4 10 10 0 5 13 7 30 4
l30 -6 1 78 c1 44 4 68 6 55 4 -18 7 -21 13 -10z m-4729 9 c10 -6 19 -17 19
-25 0 -8 -40 -90 -90 -182 -49 -91 -90 -169 -90 -173 0 -4 -9 -15 -21 -26 -15
-14 -36 -19 -79 -19 -53 0 -60 2 -65 23 -6 23 10 57 67 149 18 29 59 95 91
146 32 52 68 99 80 105 29 14 63 15 88 2z m2385 -11 c19 -22 19 -22 -3 -8 -13
8 -23 17 -23 21 0 12 6 9 26 -13z m2474 11 c0 -5 -2 -10 -4 -10 -3 0 -8 5 -11
10 -3 6 -1 10 4 10 6 0 11 -4 11 -10z m-6867 -7 c-7 -2 -19 -2 -25 0 -7 3 -2
5 12 5 14 0 19 -2 13 -5z m6138 -48 l-9 -50 -1 46 c0 25 2 49 6 52 11 12 12 3
4 -48z m759 45 c0 -5 -2 -10 -4 -10 -3 0 -8 5 -11 10 -3 6 -1 10 4 10 6 0 11
-4 11 -10z m-6947 -7 c-7 -2 -19 -2 -25 0 -7 3 -2 5 12 5 14 0 19 -2 13 -5z
m2540 -20 c4 -3 2 -12 -4 -20 -9 -10 -8 -13 5 -13 9 0 16 -4 16 -10 0 -5 -9
-10 -20 -10 -11 0 -20 6 -20 14 0 8 -3 21 -6 30 -6 16 16 23 29 9z m3867 -63
c37 0 40 -2 40 -27 0 -54 -11 -56 -87 -16 -61 32 -69 39 -60 54 10 16 14 16
38 3 16 -8 46 -14 69 -14z m-237 -57 c-5 -32 -23 -47 -23 -19 0 8 -3 23 -6 33
-4 13 -3 14 4 5 7 -11 11 -10 16 4 10 25 14 13 9 -23z m245 -36 c6 0 12 -10
12 -21 0 -49 -32 -282 -40 -290 -6 -6 -37 9 -80 37 -38 26 -74 47 -78 47 -5 0
-17 9 -27 20 -10 11 -23 20 -29 20 -14 1 -64 39 -51 40 11 0 15 20 18 88 1 24
3 39 5 33 2 -7 12 -3 25 9 12 11 42 35 67 53 l44 34 61 -35 c33 -19 66 -35 73
-35z m-291 41 c-3 -8 -6 -5 -6 6 -1 11 2 17 5 13 3 -3 4 -12 1 -19z m-2651
-101 c74 -108 184 -261 256 -356 44 -57 81 -109 83 -115 2 -6 -24 -24 -57 -41
-34 -16 -105 -54 -157 -83 -52 -28 -96 -52 -97 -52 -3 0 -84 131 -84 135 0 3
-16 30 -35 60 -43 67 -147 266 -142 271 7 7 206 104 214 104 9 0 15 -13 70
-155 19 -49 43 -108 53 -130 28 -63 42 -115 36 -130 -3 -8 -1 -17 4 -20 6 -4
10 -15 10 -26 0 -30 14 -22 26 15 10 31 4 51 -68 233 -43 109 -78 203 -78 210
0 6 -8 19 -17 29 -36 36 -73 87 -73 102 0 20 20 2 56 -51z m-266 40 c0 -7 -15
-18 -33 -25 -43 -15 -47 -15 -47 3 0 11 7 14 25 9 18 -4 27 -1 31 10 7 19 24
21 24 3z m170 -2 c-7 -9 -15 -13 -17 -11 -7 7 7 26 19 26 6 0 6 -6 -2 -15z
m-870 -14 c0 -5 -13 -11 -30 -13 -16 -3 -30 -1 -30 3 0 7 10 10 53 18 4 0 7
-3 7 -8z m914 -35 c14 -19 26 -38 26 -43 0 -5 -48 -31 -107 -59 -87 -41 -110
-48 -116 -37 -5 8 -4 19 1 26 6 7 12 25 14 41 2 24 14 35 73 66 39 21 73 39
76 39 4 1 18 -14 33 -33z m3089 14 c14 0 236 -110 242 -120 2 -4 -44 -57 -104
-118 l-108 -111 -51 27 c-38 20 -52 33 -52 49 0 36 53 299 57 286 3 -7 10 -13
16 -13z m-493 -19 c0 -6 15 -11 33 -13 24 -3 28 -6 15 -12 -10 -4 -33 0 -60
12 -39 19 -41 20 -15 21 15 1 27 -3 27 -8z m-3490 -25 c0 -21 -17 -29 -61 -30
-48 -1 -51 17 -6 32 46 15 67 14 67 -2z m440 -22 c0 -7 -5 -16 -12 -20 -6 -4
-8 -3 -4 4 3 6 2 13 -4 17 -5 3 -10 13 -10 22 0 13 3 13 15 3 8 -7 15 -18 15
-26z m-42 19 c-1 -5 4 -21 10 -36 7 -16 12 -34 12 -41 0 -14 -130 -37 -144
-25 -13 12 12 39 36 39 11 0 16 5 13 11 -4 6 -13 8 -21 5 -22 -8 -16 14 9 35
21 18 89 27 85 12z m-1308 -21 c0 -15 -81 -92 -91 -87 -5 4 -9 -1 -9 -9 0 -9
-27 -28 -67 -47 -38 -17 -81 -38 -96 -46 -16 -8 -30 -13 -32 -11 -1 1 -6 27
-10 56 -6 49 -6 52 15 52 12 0 31 5 42 11 16 9 226 84 246 88 1 1 2 -3 2 -7z
m945 -12 c6 -10 -18 -23 -92 -46 -24 -7 -43 -10 -43 -6 1 9 67 42 85 42 8 0
15 5 15 10 0 13 27 13 35 0z m465 -21 c0 -5 -7 -6 -15 -3 -8 4 -15 13 -15 21
0 13 3 13 15 3 8 -7 15 -16 15 -21z m-1387 6 c-3 -9 -8 -14 -10 -11 -3 3 -2 9
2 15 9 16 15 13 8 -4z m1530 -6 c4 -14 -4 -30 -27 -52 -18 -18 -36 -41 -40
-52 -7 -19 -8 -18 -22 8 -8 15 -22 27 -30 27 -33 0 -7 36 46 62 67 33 66 33
73 7z m-453 -29 c0 -5 -4 -10 -9 -10 -6 0 -13 5 -16 10 -3 6 1 10 9 10 9 0 16
-4 16 -10z m-1080 -10 c0 -5 -5 -10 -11 -10 -5 0 -7 5 -4 10 3 6 8 10 11 10 2
0 4 -4 4 -10z m1010 -10 c0 -5 -7 -10 -16 -10 -8 0 -12 5 -9 10 3 6 10 10 16
10 5 0 9 -4 9 -10z m3630 -70 c3 -3 26 -15 53 -28 36 -18 47 -29 47 -47 0 -27
-15 -41 -25 -24 -4 6 -18 8 -32 4 -19 -4 -31 0 -45 14 -10 12 -26 21 -36 22
-10 0 -12 3 -5 6 10 3 10 8 -1 19 -8 8 -19 14 -25 14 -6 0 -11 7 -11 15 0 18
12 19 28 3 9 -9 12 -9 12 -1 0 7 -9 14 -19 18 -11 3 -22 12 -25 21 -4 10 6 8
37 -8 23 -13 44 -25 47 -28z m-4670 30 c0 -5 -2 -10 -4 -10 -3 0 -8 5 -11 10
-3 6 -1 10 4 10 6 0 11 -4 11 -10z m1300 0 c0 -5 -4 -10 -10 -10 -5 0 -10 5
-10 10 0 6 5 10 10 10 6 0 10 -4 10 -10z m-1356 -15 c-10 -8 -23 -15 -28 -15
-6 0 -1 7 10 15 10 8 23 15 28 15 6 0 1 -7 -10 -15z m966 7 c0 -10 -44 -32
-63 -32 -7 0 2 9 18 19 34 22 45 25 45 13z m-862 -37 c-3 -3 -13 -2 -22 1 -14
5 -15 9 -4 15 13 8 36 -6 26 -16z m52 21 c0 -3 -4 -8 -10 -11 -5 -3 -10 -1
-10 4 0 6 5 11 10 11 6 0 10 -2 10 -4z m-214 -32 c-9 -8 -21 -12 -28 -8 -8 5
-6 10 8 15 31 12 37 10 20 -7z m44 2 c0 -3 -4 -8 -10 -11 -5 -3 -10 -1 -10 4
0 6 5 11 10 11 6 0 10 -2 10 -4z m-66 -20 l39 -13 -69 -8 c-38 -4 -81 -13 -96
-21 -16 -8 -28 -11 -28 -7 0 13 83 47 110 45 20 -2 22 0 10 8 -20 13 -13 12
34 -4z m111 4 c-3 -5 -11 -10 -16 -10 -6 0 -7 5 -4 10 3 6 11 10 16 10 6 0 7
-4 4 -10z m4894 -77 c37 -21 37 -24 10 -49 -21 -19 -73 -28 -62 -11 3 5 14 7
24 4 12 -3 19 0 19 9 0 8 -7 14 -16 12 -12 -2 -18 6 -21 25 -4 32 4 33 46 10z
m-3285 -94 c19 -91 16 -101 -39 -119 -39 -13 -75 0 -75 27 0 12 -8 7 -28 -16
-24 -29 -33 -33 -60 -29 -22 3 -32 0 -32 -9 0 -10 -5 -10 -25 -1 -24 11 -26
16 -23 67 2 42 7 56 18 56 10 0 16 -12 18 -36 l3 -35 36 33 c38 36 39 52 3 33
-12 -6 -25 -9 -28 -5 -11 11 13 38 42 48 30 10 53 -3 67 -40 l8 -22 33 31 c20
19 32 38 30 50 -3 19 13 48 28 48 3 0 14 -36 24 -81z m-2037 44 c-3 -3 -11 -2
-17 2 -9 6 -9 10 1 16 14 8 27 -7 16 -18z m-142 -53 c-11 -5 -27 -9 -35 -9 -9
0 -8 4 5 9 11 5 27 9 35 9 9 0 8 -4 -5 -9z m-58 -16 c-3 -3 -12 -4 -19 -1 -8
3 -5 6 6 6 11 1 17 -2 13 -5z m5213 -40 c0 -2 -16 -8 -35 -14 -27 -9 -39 -9
-54 2 -17 12 -14 14 35 14 30 0 54 -1 54 -2z m-3325 -15 c12 -19 -2 -21 -32
-5 l-28 15 27 1 c15 0 30 -5 33 -11z m-81 -18 c7 -11 -20 -34 -32 -27 -13 8
-27 -11 -42 -57 -15 -49 -34 -37 -27 17 4 25 14 48 27 58 24 19 65 24 74 9z
m-978 -157 c-11 -28 -129 -86 -223 -110 -111 -28 -149 -26 -184 13 -13 14 -19
24 -14 20 6 -3 31 5 55 17 81 40 185 99 188 108 2 4 12 8 21 8 10 0 28 11 41
25 15 15 30 23 41 20 12 -4 21 3 30 25 l14 30 18 -72 c9 -40 15 -78 13 -84z
m4380 131 c10 -8 15 -14 9 -14 -5 0 -19 6 -29 14 -11 8 -15 15 -10 15 6 0 19
-7 30 -15z m-5621 -14 c-3 -6 -19 -11 -36 -11 -16 0 -29 -2 -29 -4 0 -2 -3
-13 -7 -23 -7 -17 -6 -17 11 0 9 9 25 17 34 17 11 0 7 -6 -13 -19 -19 -12 -34
-15 -42 -9 -7 6 -30 -1 -66 -21 -29 -17 -57 -28 -60 -24 -4 3 -7 1 -7 -5 0 -7
-13 -12 -30 -12 -22 0 -30 -5 -30 -17 -1 -20 -23 -53 -35 -53 -4 0 -2 7 5 16
8 8 16 32 19 52 5 32 13 40 51 59 25 13 77 30 115 38 39 9 81 20 95 24 29 9
35 7 25 -8z m5560 9 c3 -5 1 -10 -4 -10 -6 0 -11 5 -11 10 0 6 2 10 4 10 3 0
8 -4 11 -10z m285 -5 c0 -8 -7 -15 -15 -15 -16 0 -20 12 -8 23 11 12 23 8 23
-8z m-3531 -27 c9 -25 3 -88 -8 -88 -4 0 -18 11 -31 25 -18 20 -21 28 -12 37
7 7 12 20 12 30 0 26 29 22 39 -4z m3388 -3 c3 -9 3 -19 -1 -22 -8 -9 -37 18
-30 28 8 14 24 11 31 -6z m-3477 -54 c0 -12 -20 -25 -27 -18 -7 7 6 27 18 27
5 0 9 -4 9 -9z m-2550 -57 c-18 -21 -24 -10 -9 18 8 14 14 18 17 10 2 -7 -2
-19 -8 -28z m-10 -58 c-7 -7 -13 -7 -20 0 -6 6 -3 10 10 10 13 0 16 -4 10 -10z
m1530 0 c0 -2 -7 -7 -16 -10 -8 -3 -12 -2 -9 4 6 10 25 14 25 6z m-485 -70
l-27 -35 -35 17 -36 17 44 6 c24 3 40 7 36 7 -16 3 5 22 24 22 19 0 18 -2 -6
-34z m-1149 -32 c8 -31 -11 -47 -37 -31 -16 10 -16 12 -1 34 22 29 30 29 38
-3z m1103 -20 c8 -8 -54 -66 -91 -85 -20 -10 -70 -22 -110 -25 -71 -7 -73 -7
-58 12 8 10 24 25 34 33 11 8 27 22 36 30 18 19 71 45 84 42 5 -1 6 5 3 13 -5
13 1 13 46 -1 29 -8 54 -17 56 -19z m55 -55 c26 -30 39 -108 16 -94 -25 15
-55 12 -132 -16 -46 -17 -120 -43 -165 -58 l-82 -28 -6 38 c-12 71 -8 74 105
74 55 -1 100 2 100 7 0 4 6 8 13 8 7 0 35 23 62 50 27 28 52 50 56 50 4 0 19
-14 33 -31z m956 -19 c0 -5 -4 -10 -10 -10 -5 0 -10 5 -10 10 0 6 5 10 10 10
6 0 10 -4 10 -10z m5033 -5 c-3 -9 -8 -14 -10 -11 -3 3 -2 9 2 15 9 16 15 13
8 -4z m-18 -35 c-3 -5 -11 -10 -16 -10 -6 0 -7 5 -4 10 3 6 11 10 16 10 6 0 7
-4 4 -10z m-6377 -87 c-3 -15 -6 -14 -17 6 -11 19 -11 25 0 32 15 9 23 -9 17
-38z m-19 -47 c17 -11 13 -26 -7 -26 -10 0 -22 -4 -27 -9 -6 -5 -32 -16 -60
-25 -27 -8 -122 -40 -210 -70 -88 -31 -161 -56 -161 -56 -1 0 9 30 23 68 23
64 43 99 43 75 0 -13 24 -11 73 6 21 7 49 11 63 8 13 -2 24 -1 24 3 0 10 66
37 113 45 20 4 34 11 31 16 -3 5 9 6 26 3 26 -6 30 -4 24 12 -3 11 3 5 14 -12
11 -18 25 -35 31 -38z m2469 32 c28 -28 7 -78 -33 -78 -27 0 -45 18 -45 45 0
27 18 45 45 45 12 0 26 -5 33 -12z"/>
<path d="M2110 3205 c0 -8 4 -15 10 -15 5 0 7 7 4 15 -4 8 -8 15 -10 15 -2 0
-4 -7 -4 -15z"/>
<path d="M2090 2631 c-14 -4 -26 -15 -28 -25 -3 -15 0 -16 15 -7 17 9 52 43
42 40 -2 -1 -15 -4 -29 -8z"/>
<path d="M2081 2538 c0 -7 4 -22 9 -33 8 -18 9 -17 9 7 1 15 -3 30 -9 33 -5 3
-10 0 -9 -7z"/>
<path d="M1408 1723 c6 -2 18 -2 25 0 6 3 1 5 -13 5 -14 0 -19 -2 -12 -5z"/>
<path d="M4308 3173 c7 -3 16 -2 19 1 4 3 -2 6 -13 5 -11 0 -14 -3 -6 -6z"/>
<path d="M4497 3123 c-14 -13 -7 -23 16 -23 33 0 67 11 67 21 0 10 -73 12 -83
2z"/>
<path d="M4599 3110 c-17 -11 -12 -16 30 -25 25 -5 32 -4 29 5 -6 18 -42 30
-59 20z"/>
<path d="M7435 3080 c-3 -5 1 -10 9 -10 8 0 18 5 21 10 3 6 -1 10 -9 10 -8 0
-18 -4 -21 -10z"/>
<path d="M7782 3078 c-9 -9 -5 -19 20 -45 l32 -33 -34 -35 c-29 -30 -31 -35
-16 -41 13 -5 30 5 59 35 l42 41 -45 45 c-36 36 -48 43 -58 33z"/>
<path d="M6747 3003 c-10 -9 -9 -23 2 -23 5 0 11 7 15 15 5 15 -5 20 -17 8z"/>
<path d="M2833 3033 c9 -2 23 -2 30 0 6 3 -1 5 -18 5 -16 0 -22 -2 -12 -5z"/>
<path d="M4936 2937 c-78 -24 -73 -27 205 -131 103 -38 137 -43 188 -25 65 23
41 40 -149 107 -99 34 -185 62 -192 61 -7 0 -31 -6 -52 -12z"/>
<path d="M5415 2750 c-18 -20 -14 -25 25 -31 21 -4 80 11 80 20 0 34 -77 42
-105 11z"/>
<path d="M5495 2630 c-25 -11 1 -11 35 0 20 6 21 8 5 8 -11 0 -29 -3 -40 -8z"/>
<path d="M5885 2630 c4 -6 11 -8 16 -5 14 9 11 15 -7 15 -8 0 -12 -5 -9 -10z"/>
<path d="M6150 2460 c0 -5 11 -10 25 -10 14 0 25 5 25 10 0 6 -11 10 -25 10
-14 0 -25 -4 -25 -10z"/>
<path d="M6270 2220 c30 -11 64 -19 75 -18 11 0 -5 8 -35 18 -30 11 -64 19
-75 18 -11 0 5 -8 35 -18z"/>
<path d="M6660 1616 c0 -2 7 -9 15 -16 9 -7 15 -8 15 -2 0 5 -7 12 -15 16 -8
3 -15 4 -15 2z"/>
<path d="M2720 2490 c-8 -5 -10 -10 -5 -10 6 0 17 5 25 10 8 5 11 10 5 10 -5
0 -17 -5 -25 -10z"/>
<path d="M2658 1937 c-16 -6 -28 -14 -28 -19 0 -12 24 -10 38 4 9 9 15 9 24 0
9 -9 8 -12 -8 -12 -19 0 -70 -47 -61 -56 9 -9 36 9 42 27 8 24 16 24 48 -1 14
-11 32 -20 41 -20 21 0 21 26 0 34 -9 3 -14 12 -11 19 5 14 -22 37 -43 36 -8
-1 -27 -6 -42 -12z"/>
<path d="M2560 1850 c-9 -6 -10 -10 -3 -10 6 0 15 5 18 10 8 12 4 12 -15 0z"/>
<path d="M2811 1754 c0 -11 3 -14 6 -6 3 7 2 16 -1 19 -3 4 -6 -2 -5 -13z"/>
<path d="M4086 1665 c-28 -10 -45 -11 -59 -4 -28 16 -32 3 -4 -15 23 -15 27
-15 78 9 58 27 49 33 -15 10z"/>
<path d="M4050 1612 c0 -5 14 -19 31 -31 31 -23 31 -14 1 22 -16 18 -32 23
-32 9z"/>
<path d="M3330 1363 c0 -19 11 -43 21 -43 13 0 11 14 -6 36 -8 10 -15 14 -15
7z"/>
<path d="M3635 1350 c3 -5 8 -10 11 -10 2 0 4 5 4 10 0 6 -5 10 -11 10 -5 0
-7 -4 -4 -10z"/>
<path d="M1028 1058 c-21 -6 -38 -14 -38 -19 0 -4 -7 -6 -15 -2 -17 6 -133
-16 -140 -26 -2 -4 0 -12 4 -19 6 -9 25 -8 83 7 41 11 103 25 136 31 40 8 62
17 62 26 0 16 -36 17 -92 2z"/>
<path d="M7522 1524 c3 -18 12 -24 73 -50 22 -10 45 -20 50 -23 6 -2 4 3 -4
12 -7 9 -18 17 -23 17 -6 0 -30 14 -55 30 -34 23 -44 26 -41 14z"/>
<path d="M6950 1210 c20 -13 33 -13 25 0 -3 6 -14 10 -23 10 -15 0 -15 -2 -2
-10z"/>
<path d="M2205 1160 c-7 -12 2 -12 30 0 19 8 19 9 -2 9 -12 1 -25 -3 -28 -9z"/>
<path d="M2106 1131 c-4 -5 -2 -12 3 -15 5 -4 12 -2 15 3 4 5 2 12 -3 15 -5 4
-12 2 -15 -3z"/>
<path d="M2080 1099 c0 -5 5 -7 10 -4 6 3 10 8 10 11 0 2 -4 4 -10 4 -5 0 -10
-5 -10 -11z"/>
<path d="M3870 866 c-14 -18 -6 -50 13 -44 15 6 22 37 10 49 -6 6 -15 4 -23
-5z"/>
<path d="M3752 828 c-14 -14 -16 -28 -2 -28 5 0 14 9 20 20 12 22 1 27 -18 8z"/>
<path d="M1667 299 c7 -7 15 -10 18 -7 3 3 -2 9 -12 12 -14 6 -15 5 -6 -5z"/>
<path d="M1550 4879 c0 -5 5 -30 11 -55 11 -44 22 -54 34 -33 4 6 13 8 20 5
19 -7 35 15 35 50 0 27 -4 32 -31 38 -46 9 -69 7 -69 -5z"/>
<path d="M1675 4857 c2 -12 16 -71 30 -132 15 -60 29 -132 32 -160 4 -27 12
-63 19 -80 l13 -30 1 28 c0 16 -9 88 -21 160 -35 224 -37 233 -59 234 -16 1
-19 -3 -15 -20z"/>
<path d="M1750 4861 c0 -31 21 -81 35 -81 7 0 20 -3 29 -6 10 -4 19 2 26 18
15 31 -3 83 -25 74 -8 -3 -26 -1 -40 4 -21 8 -25 7 -25 -9z"/>
<path d="M1890 4841 c0 -9 5 -22 12 -29 7 -7 9 -12 4 -12 -4 0 -1 -7 8 -15 18
-18 67 -20 84 -3 16 16 15 58 0 63 -7 2 -34 5 -60 8 -40 4 -48 2 -48 -12z"/>
<path d="M2043 4816 c6 -51 17 -66 48 -66 22 0 30 6 35 24 11 46 2 61 -44 67
l-43 5 4 -30z"/>
<path d="M2164 4827 c-7 -20 13 -147 27 -167 7 -10 9 12 7 72 -3 86 -19 132
-34 95z"/>
<path d="M2233 4807 c-3 -5 -3 -10 -2 -11 2 -2 92 -8 199 -15 107 -6 219 -15
248 -18 33 -4 52 -2 52 5 0 6 -47 13 -112 17 -62 4 -173 13 -246 19 -74 6
-136 8 -139 3z"/>
<path d="M7885 4695 c-196 -14 -517 -44 -552 -51 -13 -2 -23 -12 -23 -20 0
-12 6 -15 23 -11 74 19 189 31 304 31 73 1 133 4 133 7 0 3 84 11 188 18 190
13 202 15 202 32 0 11 -42 10 -275 -6z"/>
<path d="M4000 4674 c1 -23 19 -36 42 -31 17 5 27 1 37 -15 12 -19 14 -20 23
-5 12 23 100 23 123 1 11 -12 19 -13 28 -5 12 10 262 -7 365 -24 23 -4 32 -2
32 8 0 10 -8 13 -24 10 -13 -3 -87 2 -163 12 -191 23 -359 43 -415 51 -27 4
-48 3 -48 -2z"/>
<path d="M4675 4600 c-10 -16 5 -91 17 -84 5 3 7 9 4 12 -3 3 -1 12 6 19 9 11
9 16 -1 23 -9 5 -10 10 -2 14 6 4 11 11 11 17 0 12 -27 12 -35 -1z"/>
<path d="M4748 4603 c-22 -6 -24 -51 -3 -59 21 -9 45 14 45 42 0 24 -7 26 -42
17z"/>
<path d="M4857 4603 c-3 -4 -8 -67 -10 -138 -6 -137 -4 -133 14 33 10 95 9
126 -4 105z"/>
<path d="M4897 4593 c-14 -4 -17 -11 -13 -26 3 -12 6 -28 6 -35 0 -10 5 -10
21 -2 17 10 18 14 7 28 -11 14 -11 15 5 9 14 -5 18 -3 15 10 -3 18 -14 23 -41
16z"/>
<path d="M7288 4575 c-6 -29 7 -43 16 -19 9 23 7 44 -3 44 -5 0 -11 -11 -13
-25z"/>
<path d="M4956 4581 c-3 -5 -3 -23 0 -40 l7 -31 18 21 c25 29 25 59 0 59 -11
0 -22 -4 -25 -9z"/>
<path d="M5011 4458 l2 -133 11 102 c6 56 14 104 17 108 11 10 -3 55 -17 55
-11 0 -14 -26 -13 -132z"/>
<path d="M5474 4569 c-8 -14 8 -30 22 -21 9 5 8 10 -2 19 -9 9 -15 10 -20 2z"/>
<path d="M5308 4563 c7 -3 16 -2 19 1 4 3 -2 6 -13 5 -11 0 -14 -3 -6 -6z"/>
<path d="M2217 4553 c-4 -3 -7 -16 -6 -27 0 -19 1 -19 10 3 10 24 8 36 -4 24z"/>
<path d="M5428 4553 c7 -3 16 -2 19 1 4 3 -2 6 -13 5 -11 0 -14 -3 -6 -6z"/>
<path d="M2813 4415 c0 -22 2 -30 4 -17 2 12 2 30 0 40 -3 9 -5 -1 -4 -23z"/>
<path d="M7235 4340 c-3 -5 -1 -10 4 -10 6 0 11 5 11 10 0 6 -2 10 -4 10 -3 0
-8 -4 -11 -10z"/>
<path d="M2823 4285 c0 -27 2 -38 4 -22 2 15 2 37 0 50 -2 12 -4 0 -4 -28z"/>
<path d="M7250 4305 c0 -8 -5 -15 -12 -15 -6 0 -9 -2 -7 -5 3 -2 15 -2 27 2
25 6 30 33 7 33 -8 0 -15 -7 -15 -15z"/>
<path d="M2831 4204 c0 -11 3 -14 6 -6 3 7 2 16 -1 19 -3 4 -6 -2 -5 -13z"/>
<path d="M5590 4190 c0 -5 5 -10 10 -10 6 0 10 5 10 10 0 6 -4 10 -10 10 -5 0
-10 -4 -10 -10z"/>
<path d="M5595 4160 c-3 -5 1 -10 10 -10 9 0 13 5 10 10 -3 6 -8 10 -10 10 -2
0 -7 -4 -10 -10z"/>
<path d="M2198 4055 c-7 -12 27 -258 41 -295 6 -14 12 -34 14 -45 3 -11 5 2 6
29 0 26 -9 87 -20 135 -12 47 -24 109 -28 136 -3 28 -9 45 -13 40z"/>
<path d="M5542 3840 c0 -14 2 -19 5 -12 2 6 2 18 0 25 -3 6 -5 1 -5 -13z"/>
<path d="M2 3574 l-1 -139 35 -18 c38 -19 57 -15 47 9 -4 11 0 15 13 12 13 -2
20 4 22 19 3 20 -1 22 -35 20 -47 -2 -56 16 -11 24 18 4 27 7 21 8 -18 2 -39
47 -53 116 -7 33 -19 66 -25 74 -10 10 -13 -15 -13 -125z"/>
<path d="M2952 3590 c0 -14 2 -19 5 -12 2 6 2 18 0 25 -3 6 -5 1 -5 -13z"/>
<path d="M86 3565 c-9 -26 -7 -32 5 -12 6 10 9 21 6 23 -2 3 -7 -2 -11 -11z"/>
<path d="M128 3543 c-10 -3 -18 -8 -18 -13 0 -17 12 -40 22 -40 5 0 6 5 3 10
-3 6 1 10 10 10 9 0 14 -4 11 -9 -3 -4 7 -6 22 -3 16 3 21 7 12 10 -8 2 -22
12 -30 21 -8 10 -23 16 -32 14z"/>
<path d="M7763 3453 c15 -2 39 -2 55 0 15 2 2 4 -28 4 -30 0 -43 -2 -27 -4z"/>
<path d="M7863 3443 c9 -2 25 -2 35 0 9 3 1 5 -18 5 -19 0 -27 -2 -17 -5z"/>
<path d="M5790 3394 c-13 -33 -13 -34 4 -34 14 0 26 21 26 46 0 23 -20 16 -30
-12z"/>
<path d="M1155 3370 c-7 -12 2 -30 16 -30 5 0 9 9 9 20 0 21 -15 27 -25 10z"/>
<path d="M5548 3193 c7 -3 16 -2 19 1 4 3 -2 6 -13 5 -11 0 -14 -3 -6 -6z"/>
<path d="M218 3018 c-6 -16 19 -41 32 -33 7 4 7 13 0 26 -12 22 -26 25 -32 7z"/>
<path d="M676 2631 c-3 -4 6 -6 19 -3 14 2 25 6 25 8 0 8 -39 4 -44 -5z"/>
<path d="M678 2583 c6 -2 18 -2 25 0 6 3 1 5 -13 5 -14 0 -19 -2 -12 -5z"/>
<path d="M4460 1716 c0 -2 8 -10 18 -17 15 -13 16 -12 3 4 -13 16 -21 21 -21
13z"/>
<path d="M4500 1676 c0 -2 8 -10 18 -17 15 -13 16 -12 3 4 -13 16 -21 21 -21
13z"/>
<path d="M4551 1616 c13 -14 26 -23 28 -20 6 6 -30 44 -42 44 -5 0 1 -11 14
-24z"/>
<path d="M4890 1580 c-8 -5 -10 -10 -5 -10 6 0 17 5 25 10 8 5 11 10 5 10 -5
0 -17 -5 -25 -10z"/>
<path d="M5165 1500 c3 -5 11 -10 16 -10 6 0 7 5 4 10 -3 6 -11 10 -16 10 -6
0 -7 -4 -4 -10z"/>
<path d="M5440 1330 c0 -5 7 -10 15 -10 8 0 15 5 15 10 0 6 -7 10 -15 10 -8 0
-15 -4 -15 -10z"/>
<path d="M5570 1232 c0 -12 19 -26 26 -19 2 2 -2 10 -11 17 -9 8 -15 8 -15 2z"/>
<path d="M5228 1214 c-39 -21 -35 -28 5 -8 37 19 44 24 31 24 -5 -1 -21 -8
-36 -16z"/>
<path d="M5112 1154 c-59 -35 -47 -42 14 -8 59 32 61 34 43 34 -8 0 -33 -12
-57 -26z"/>
<path d="M7607 1169 c7 -7 15 -10 18 -7 3 3 -2 9 -12 12 -14 6 -15 5 -6 -5z"/>
<path d="M5700 1120 c14 -10 27 -17 29 -14 6 5 -31 33 -44 33 -5 1 1 -8 15
-19z"/>
<path d="M7700 1120 c8 -5 20 -10 25 -10 6 0 3 5 -5 10 -8 5 -19 10 -25 10 -5
0 -3 -5 5 -10z"/>
<path d="M7764 1086 c11 -9 27 -16 35 -15 14 0 14 1 1 6 -8 3 -24 10 -35 15
-20 9 -20 9 -1 -6z"/>
<path d="M7855 1042 c6 -5 55 -33 110 -62 55 -29 119 -64 143 -77 24 -14 45
-23 48 -20 3 2 -14 15 -38 27 -24 12 -95 49 -158 82 -63 33 -110 56 -105 50z"/>
<path d="M5850 995 c0 -2 10 -10 23 -16 20 -11 21 -11 8 4 -13 16 -31 23 -31
12z"/>
<path d="M5907 949 c7 -7 15 -10 18 -7 3 3 -2 9 -12 12 -14 6 -15 5 -6 -5z"/>
<path d="M7330 946 c0 -7 91 -58 96 -53 3 2 -15 16 -40 31 -43 25 -56 30 -56
22z"/>
<path d="M7250 860 c0 -5 5 -10 10 -10 6 0 10 5 10 10 0 6 -4 10 -10 10 -5 0
-10 -4 -10 -10z"/>
<path d="M7487 849 c7 -7 15 -10 18 -7 3 3 -2 9 -12 12 -14 6 -15 5 -6 -5z"/>
<path d="M7180 831 c0 -5 6 -12 13 -14 9 -4 8 -8 -3 -16 -12 -8 -12 -11 3 -17
22 -8 30 -1 33 31 2 21 -2 25 -22 25 -13 0 -24 -4 -24 -9z"/>
<path d="M5340 816 c0 -2 8 -10 18 -17 15 -13 16 -12 3 4 -13 16 -21 21 -21
13z"/>
<path d="M6080 816 c0 -2 8 -10 18 -17 15 -13 16 -12 3 4 -13 16 -21 21 -21
13z"/>
<path d="M5390 766 c0 -2 8 -10 18 -17 15 -13 16 -12 3 4 -13 16 -21 21 -21
13z"/>
<path d="M6815 729 c-4 -6 -5 -12 -2 -15 2 -3 7 2 10 11 7 17 1 20 -8 4z"/>
<path d="M7110 700 c0 -5 5 -10 10 -10 6 0 10 5 10 10 0 6 -4 10 -10 10 -5 0
-10 -4 -10 -10z"/>
<path d="M6250 676 c0 -2 8 -10 18 -17 15 -13 16 -12 3 4 -13 16 -21 21 -21
13z"/>
<path d="M5575 580 c10 -11 20 -20 23 -20 3 0 -3 9 -13 20 -10 11 -20 20 -23
20 -3 0 3 -9 13 -20z"/>
<path d="M5636 518 c24 -29 65 -69 90 -87 10 -8 -8 13 -41 47 -59 62 -85 83
-49 40z"/>
<path d="M6492 474 c10 -10 20 -15 24 -12 3 4 -5 12 -18 18 -22 12 -22 12 -6
-6z"/>
<path d="M6580 406 c0 -2 8 -10 18 -17 15 -13 16 -12 3 4 -13 16 -21 21 -21
13z"/>
<path d="M5765 380 c10 -11 20 -18 23 -15 7 6 -18 35 -31 35 -5 0 -2 -9 8 -20z"/>
<path d="M5850 302 c0 -5 7 -15 15 -22 8 -7 15 -8 15 -2 0 5 -7 15 -15 22 -8
7 -15 8 -15 2z"/>
<path d="M5911 243 c7 -12 15 -20 18 -17 3 2 -3 12 -13 22 -17 16 -18 16 -5
-5z"/>
<path d="M5940 212 c0 -9 65 -72 75 -72 9 0 5 5 -35 44 -22 21 -40 34 -40 28z"/>
<path d="M4237 130 c-3 -11 -2 -20 1 -20 4 0 20 -25 37 -55 18 -34 36 -55 47
-55 21 0 17 10 -31 93 -35 61 -46 68 -54 37z"/>
<path d="M6038 115 c13 -25 62 -72 62 -59 0 6 -16 26 -36 45 -22 20 -32 26
-26 14z"/>
<path d="M4118 63 c-16 -8 -28 -18 -28 -24 0 -16 18 -10 47 16 31 27 23 31
-19 8z"/>
<path d="M6131 23 c7 -12 15 -20 18 -17 3 2 -3 12 -13 22 -17 16 -18 16 -5 -5z"/>
<path d="M4040 10 c-12 -8 -10 -10 8 -10 13 0 20 4 17 10 -7 12 -6 12 -25 0z"/>
<path d="M7940 10 c0 -5 10 -10 23 -10 18 0 19 2 7 10 -19 13 -30 13 -30 0z"/>
</g>
</svg>
