<?xml version="1.0" standalone="no"?>
<!DOCTYPE svg PUBLIC "-//W3C//DTD SVG 20010904//EN"
 "http://www.w3.org/TR/2001/REC-SVG-20010904/DTD/svg10.dtd">
<svg version="1.0" xmlns="http://www.w3.org/2000/svg"
 width="812.000000pt" height="615.000000pt" viewBox="0 0 812.000000 615.000000"
 preserveAspectRatio="xMidYMid meet">

<g transform="translate(0.000000,615.000000) scale(0.100000,-0.100000)"
fill="#000000" stroke="none">
<path d="M0 6139 c0 -5 5 -7 10 -4 5 3 10 8 10 11 0 2 -4 4 -10 4 -5 0 -10 -5
-10 -11z"/>
<path d="M290 6114 c-41 -39 -35 -57 7 -20 15 15 37 33 48 41 l20 14 -20 0
c-11 -1 -36 -16 -55 -35z"/>
<path d="M410 6137 c0 -9 4 -18 9 -21 5 -4 8 1 7 9 -3 21 -16 31 -16 12z"/>
<path d="M3303 6143 c9 -2 25 -2 35 0 9 3 1 5 -18 5 -19 0 -27 -2 -17 -5z"/>
<path d="M3361 6136 c2 -2 42 -9 89 -15 47 -5 101 -13 120 -17 24 -4 32 -3 25
4 -5 5 -54 15 -107 21 -103 12 -134 13 -127 7z"/>
<path d="M24 6108 c-10 -12 -13 -18 -6 -14 6 4 24 14 40 22 23 12 24 14 6 14
-11 0 -29 -10 -40 -22z"/>
<path d="M386 6121 c-4 -7 -5 -15 -2 -18 9 -9 19 4 14 18 -4 11 -6 11 -12 0z"/>
<path d="M3223 6123 c9 -2 23 -2 30 0 6 3 -1 5 -18 5 -16 0 -22 -2 -12 -5z"/>
<path d="M3340 6110 c25 -8 97 -13 89 -6 -2 2 -29 6 -59 9 -36 4 -46 3 -30 -3z"/>
<path d="M8050 6113 c-14 -2 -36 -13 -50 -24 -14 -12 -19 -17 -11 -13 11 6 13
3 6 -12 -15 -36 -25 -213 -16 -292 4 -42 9 -63 10 -45 1 30 35 264 45 312 8
35 25 51 57 51 19 0 29 5 29 15 0 15 -16 17 -70 8z m-63 -270 c-3 -10 -5 -4
-5 12 0 17 2 24 5 18 2 -7 2 -21 0 -30z"/>
<path d="M350 6097 c0 -10 -6 -17 -14 -17 -8 0 -17 -7 -20 -15 -3 -9 -14 -15
-23 -13 -10 2 -17 -2 -16 -9 2 -7 -14 -20 -35 -29 -20 -10 -50 -27 -67 -38
-16 -12 -41 -27 -55 -34 -14 -7 -47 -29 -74 -49 -38 -27 -46 -37 -35 -45 11
-7 11 -11 2 -15 -7 -2 -13 -11 -13 -19 0 -10 11 -7 43 12 63 40 285 195 319
224 l30 25 -21 19 c-19 17 -21 17 -21 3z"/>
<path d="M3458 6093 c6 -2 18 -2 25 0 6 3 1 5 -13 5 -14 0 -19 -2 -12 -5z"/>
<path d="M3668 6093 c6 -2 18 -2 25 0 6 3 1 5 -13 5 -14 0 -19 -2 -12 -5z"/>
<path d="M3748 6083 c12 -2 30 -2 40 0 9 3 -1 5 -23 4 -22 0 -30 -2 -17 -4z"/>
<path d="M3605 6070 c28 -5 66 -8 85 -8 28 1 25 2 -15 8 -27 5 -66 8 -85 8
-28 -1 -25 -2 15 -8z"/>
<path d="M3828 6073 c12 -2 30 -2 40 0 9 3 -1 5 -23 4 -22 0 -30 -2 -17 -4z"/>
<path d="M180 6029 c-60 -42 -84 -77 -29 -40 19 12 43 27 55 32 20 11 50 50
37 48 -5 0 -33 -18 -63 -40z"/>
<path d="M3755 6050 c28 -12 47 -12 40 0 -3 6 -18 10 -33 9 -24 0 -25 -1 -7
-9z"/>
<path d="M3918 6053 c7 -3 16 -2 19 1 4 3 -2 6 -13 5 -11 0 -14 -3 -6 -6z"/>
<path d="M4008 6043 c6 -2 18 -2 25 0 6 3 1 5 -13 5 -14 0 -19 -2 -12 -5z"/>
<path d="M3952 6020 c75 -10 158 -22 185 -28 70 -16 143 -21 143 -11 0 5 -15
9 -34 9 -18 0 -58 5 -87 10 -89 17 -271 40 -309 39 -19 -1 26 -9 102 -19z"/>
<path d="M4124 6025 c62 -13 88 -13 75 -1 -3 3 -36 7 -74 10 l-70 5 69 -14z"/>
<path d="M4333 5993 c15 -2 37 -2 50 0 12 2 0 4 -28 4 -27 0 -38 -2 -22 -4z"/>
<path d="M4433 5983 c9 -2 25 -2 35 0 9 3 1 5 -18 5 -19 0 -27 -2 -17 -5z"/>
<path d="M78 5962 c-1 -4 -20 -18 -40 -31 -43 -26 -52 -49 -10 -27 46 26 76
53 64 60 -6 3 -12 3 -14 -2z"/>
<path d="M4593 5953 c9 -2 23 -2 30 0 6 3 -1 5 -18 5 -16 0 -22 -2 -12 -5z"/>
<path d="M4658 5943 c12 -2 30 -2 40 0 9 3 -1 5 -23 4 -22 0 -30 -2 -17 -4z"/>
<path d="M4588 5933 c7 -3 16 -2 19 1 4 3 -2 6 -13 5 -11 0 -14 -3 -6 -6z"/>
<path d="M4728 5933 c6 -2 18 -2 25 0 6 3 1 5 -13 5 -14 0 -19 -2 -12 -5z"/>
<path d="M4865 5909 c22 -4 51 -8 65 -7 16 0 11 3 -15 9 -22 4 -51 8 -65 7
-16 0 -11 -3 15 -9z"/>
<path d="M4798 5893 c7 -3 16 -2 19 1 4 3 -2 6 -13 5 -11 0 -14 -3 -6 -6z"/>
<path d="M4988 5893 c12 -2 30 -2 40 0 9 3 -1 5 -23 4 -22 0 -30 -2 -17 -4z"/>
<path d="M5065 5880 c3 -5 15 -10 26 -10 11 0 17 5 14 10 -3 6 -15 10 -26 10
-11 0 -17 -4 -14 -10z"/>
<path d="M5135 5870 c3 -5 8 -10 11 -10 2 0 4 5 4 10 0 6 -5 10 -11 10 -5 0
-7 -4 -4 -10z"/>
<path d="M5173 5863 c9 -2 25 -2 35 0 9 3 1 5 -18 5 -19 0 -27 -2 -17 -5z"/>
<path d="M5078 5853 c7 -3 16 -2 19 1 4 3 -2 6 -13 5 -11 0 -14 -3 -6 -6z"/>
<path d="M5212 5852 c-13 -4 23 -8 79 -9 56 -1 107 -7 112 -12 6 -6 27 -10 47
-10 l35 1 -40 10 c-48 11 -162 27 -190 26 -11 0 -30 -3 -43 -6z"/>
<path d="M5455 5811 l-40 -7 58 -8 c32 -4 61 -5 65 -2 3 3 -6 7 -19 7 -18 1
-15 3 11 9 l35 7 -35 0 c-19 0 -53 -3 -75 -6z"/>
<path d="M5598 5803 c12 -2 32 -2 45 0 12 2 2 4 -23 4 -25 0 -35 -2 -22 -4z"/>
<path d="M5690 5780 c-17 -11 -18 -11 85 -14 33 -1 89 -5 125 -9 58 -6 57 -5
-15 7 -138 23 -180 26 -195 16z m47 -6 c-3 -3 -12 -4 -19 -1 -8 3 -5 6 6 6 11
1 17 -2 13 -5z"/>
<path d="M5773 5753 c9 -2 23 -2 30 0 6 3 -1 5 -18 5 -16 0 -22 -2 -12 -5z"/>
<path d="M6103 5723 c9 -2 23 -2 30 0 6 3 -1 5 -18 5 -16 0 -22 -2 -12 -5z"/>
<path d="M6013 5713 c9 -2 23 -2 30 0 6 3 -1 5 -18 5 -16 0 -22 -2 -12 -5z"/>
<path d="M6210 5709 c25 -4 59 -7 75 -7 22 0 18 3 -15 9 -25 4 -58 7 -75 7
-22 0 -18 -3 15 -9z"/>
<path d="M6433 5673 c9 -2 25 -2 35 0 9 3 1 5 -18 5 -19 0 -27 -2 -17 -5z"/>
<path d="M6363 5663 c9 -2 23 -2 30 0 6 3 -1 5 -18 5 -16 0 -22 -2 -12 -5z"/>
<path d="M6513 5663 c9 -2 25 -2 35 0 9 3 1 5 -18 5 -19 0 -27 -2 -17 -5z"/>
<path d="M7968 5620 c-5 -30 -7 -73 -6 -95 l1 -40 6 45 c5 37 10 45 31 50 14
3 26 14 28 23 3 14 -1 17 -21 11 -23 -5 -26 -3 -29 28 -3 27 -4 24 -10 -22z"/>
<path d="M8074 5616 c-7 -29 1 -46 21 -46 16 0 31 43 20 59 -11 19 -34 12 -41
-13z"/>
<path d="M6778 5623 c6 -2 18 -2 25 0 6 3 1 5 -13 5 -14 0 -19 -2 -12 -5z"/>
<path d="M7932 5550 c0 -14 2 -19 5 -12 2 6 2 18 0 25 -3 6 -5 1 -5 -13z"/>
<path d="M18 5532 c-14 -3 -18 -13 -18 -45 0 -35 5 -47 30 -67 37 -31 38 -40
3 -40 -19 0 -24 3 -15 9 11 6 10 10 -1 19 -11 10 -14 5 -15 -28 -2 -37 0 -40
25 -40 14 0 24 2 21 5 -3 3 12 23 34 45 21 23 38 50 38 61 0 12 10 35 22 52
l21 32 -30 -28 c-30 -28 -32 -28 -61 -13 -17 9 -32 22 -34 29 -2 7 -11 11 -20
9z m77 -102 c-3 -5 -11 -10 -16 -10 -6 0 -7 5 -4 10 3 6 11 10 16 10 6 0 7 -4
4 -10z"/>
<path d="M7407 5514 c-11 -12 -8 -42 5 -46 19 -7 68 15 68 29 0 7 -6 13 -12
13 -7 0 -22 3 -33 6 -11 3 -24 2 -28 -2z"/>
<path d="M7292 5498 c-16 -16 -15 -26 4 -45 14 -15 17 -14 34 3 14 14 17 23
10 34 -8 13 -10 13 -10 1 0 -11 -3 -11 -13 2 -10 14 -15 15 -25 5z"/>
<path d="M7550 5495 c0 -16 16 -20 24 -6 3 5 -1 11 -9 15 -9 3 -15 0 -15 -9z"/>
<path d="M2458 5483 c12 -2 30 -2 40 0 9 3 -1 5 -23 4 -22 0 -30 -2 -17 -4z"/>
<path d="M7199 5468 c-12 -22 -6 -34 21 -41 17 -4 20 0 20 27 0 37 -24 45 -41
14z"/>
<path d="M7980 5480 c0 -5 5 -10 10 -10 6 0 10 5 10 10 0 6 -4 10 -10 10 -5 0
-10 -4 -10 -10z"/>
<path d="M7133 5464 c-3 -8 -1 -25 5 -37 10 -20 11 -18 11 16 1 39 -5 48 -16
21z"/>
<path d="M7037 5453 c-11 -10 -8 -41 4 -48 17 -11 25 5 9 16 -12 8 -10 9 7 4
12 -3 24 -1 28 6 12 18 -32 39 -48 22z"/>
<path d="M2873 5443 c15 -2 39 -2 55 0 15 2 2 4 -28 4 -30 0 -43 -2 -27 -4z"/>
<path d="M6945 5430 c-8 -24 1 -40 21 -40 9 0 14 11 14 30 0 35 -25 42 -35 10z"/>
<path d="M3055 5430 c33 -4 78 -8 100 -8 38 1 38 1 -10 8 -27 5 -72 8 -100 8
l-50 -1 60 -7z"/>
<path d="M6885 5429 c-8 -12 3 -64 12 -55 3 3 8 19 10 36 3 29 -9 40 -22 19z"/>
<path d="M6793 5413 c-33 -13 -6 -44 30 -35 21 5 22 28 1 36 -9 3 -16 6 -17 5
-1 0 -8 -3 -14 -6z"/>
<path d="M6730 5388 c0 -19 2 -20 10 -8 13 19 13 30 0 30 -5 0 -10 -10 -10
-22z"/>
<path d="M227 5369 c-54 -45 -85 -109 -52 -109 8 0 15 -5 15 -11 0 -6 -7 -8
-16 -5 -9 4 -24 0 -33 -8 -20 -17 -61 -30 -61 -19 0 4 -10 8 -23 8 -21 0 -23
-5 -23 -42 1 -44 11 -53 35 -30 11 10 12 9 6 -2 -4 -8 -2 -17 6 -22 12 -7 12
-9 0 -9 -9 0 -10 -4 -4 -12 6 -7 14 -42 17 -78 4 -36 10 -76 12 -90 4 -19 3
-22 -5 -10 -5 8 -13 50 -17 93 -4 43 -10 75 -14 70 -7 -7 -2 -61 16 -171 3
-23 10 -32 21 -30 10 2 16 -6 19 -24 2 -22 -2 -28 -16 -28 -13 0 -17 -5 -13
-20 3 -11 14 -20 24 -20 15 0 19 -7 19 -35 0 -18 4 -56 9 -82 6 -26 21 -120
36 -208 14 -88 28 -170 31 -182 5 -19 2 -23 -15 -23 -25 0 -25 0 -7 -68 14
-50 13 -54 -5 -71 -11 -10 -38 -21 -59 -25 -21 -3 -41 -10 -44 -15 -4 -5 -1
-45 4 -88 6 -43 13 -98 16 -122 4 -32 11 -45 26 -49 15 -4 17 -7 6 -13 -9 -6
-9 -9 -1 -9 6 0 18 7 26 15 18 18 29 8 17 -15 -11 -20 -35 -94 -43 -130 -3
-14 1 -36 8 -50 13 -22 14 -23 15 -5 1 11 4 14 7 8 2 -7 11 -13 19 -13 26 0
14 -20 -16 -26 -44 -9 -36 -24 13 -24 29 0 38 -3 28 -9 -11 -7 -6 -11 20 -14
19 -2 0 -2 -42 0 l-77 4 -6 -33 c-3 -18 -2 -78 4 -133 12 -130 13 -125 -6
-118 -14 5 -16 -3 -13 -60 3 -39 0 -67 -6 -69 -5 -1 -21 -12 -34 -24 -21 -19
-23 -25 -11 -39 11 -13 11 -23 0 -55 -14 -43 -8 -105 16 -156 12 -25 13 -37 4
-53 -6 -12 -13 -50 -17 -86 -6 -66 -14 -78 -32 -47 -8 13 -10 6 -11 -31 0 -30
4 -46 10 -42 6 4 10 -5 10 -19 0 -14 -4 -26 -10 -26 -7 0 -10 -433 -10 -1280
l0 -1280 4060 0 4060 0 0 88 0 88 -131 79 c-221 134 -266 165 -243 165 11 0
68 -23 125 -51 57 -28 137 -66 177 -85 l73 -33 -3 39 -3 40 -137 64 c-148 69
-227 93 -258 76 -30 -16 -55 -12 -137 24 -43 19 -111 44 -151 56 -83 25 -103
23 -229 -20 -190 -66 -349 -145 -510 -252 -40 -26 -76 -48 -81 -48 -4 0 -15
28 -24 63 -29 117 -118 439 -124 448 -3 5 4 18 15 30 15 16 18 27 11 44 -6 15
-5 33 3 49 15 32 31 34 22 4 -7 -22 -6 -22 11 -5 15 13 16 20 6 25 -15 10 -9
75 7 80 6 2 11 9 11 15 0 32 55 187 66 187 23 0 82 70 89 106 3 19 13 38 21
41 7 3 14 14 14 24 0 14 6 18 25 17 29 -3 33 -13 8 -22 -14 -6 -12 -9 11 -21
37 -19 39 -19 33 5 -3 11 -2 20 1 20 14 0 33 59 27 83 -4 14 -2 28 4 31 6 4
11 23 11 42 0 19 4 34 10 34 14 0 32 -38 20 -45 -5 -3 -7 -12 -4 -20 9 -21 -6
-40 -18 -24 -7 10 -8 9 -4 -6 3 -11 8 -32 12 -47 3 -16 11 -28 16 -28 6 0 7
11 4 26 -4 14 -2 32 4 39 16 19 15 102 -1 121 -8 9 -14 22 -14 28 -3 44 -20
114 -31 127 -8 9 -14 29 -14 45 2 46 -6 81 -24 108 -9 15 -14 39 -12 58 2 18
-3 48 -10 67 -8 18 -14 44 -14 57 0 12 -4 25 -10 29 -5 3 -7 12 -4 20 3 7 0
23 -6 35 -20 37 -41 171 -30 185 8 9 8 15 0 20 -5 3 -24 34 -41 68 -17 34 -37
66 -45 70 -8 4 -14 14 -14 21 0 23 -133 154 -160 158 -14 2 -26 11 -28 21 -3
16 0 18 20 12 16 -4 19 -4 9 3 -8 6 -30 8 -48 5 -28 -5 -37 -2 -50 17 -13 19
-21 21 -56 16 -23 -4 -47 -12 -54 -18 -10 -8 -20 -8 -37 0 -17 7 -27 7 -35 -1
-15 -15 -19 -8 -27 43 -6 42 -5 44 9 25 17 -22 33 -15 24 10 -4 8 -16 15 -27
15 -19 0 -48 46 -36 57 7 8 26 -7 26 -20 0 -7 10 -13 23 -14 12 -1 38 -4 57
-7 l35 -6 -30 14 c-46 22 -18 18 65 -8 49 -16 66 -24 48 -25 -15 -1 -30 4 -33
9 -8 12 -25 13 -25 1 0 -12 82 -33 116 -30 16 2 36 -1 44 -6 8 -6 38 -11 65
-12 64 -2 85 -6 169 -37 38 -14 73 -23 78 -20 4 3 8 -13 8 -35 0 -52 26 -57
35 -7 l7 33 38 -18 c22 -11 48 -19 60 -19 21 0 146 -32 191 -48 13 -5 29 -7
35 -5 6 2 16 -8 22 -21 14 -31 72 -65 72 -42 0 23 50 15 51 -9 1 -17 2 -17 6
-2 6 24 22 21 33 -7 12 -32 77 -54 109 -37 12 7 19 16 16 22 -8 12 10 12 33 0
29 -16 147 -51 170 -51 31 0 33 -11 15 -67 -16 -50 -13 -83 7 -83 12 0 12 0
35 84 9 33 20 55 23 49 4 -5 16 -15 27 -21 11 -6 14 -12 8 -12 -24 0 -13 -16
22 -33 40 -19 86 -22 101 -7 8 8 24 8 55 0 44 -11 62 -14 132 -26 36 -6 38 -5
35 17 -2 14 -12 25 -26 29 -29 6 -25 25 6 22 17 -3 22 2 22 17 0 16 -6 21 -26
21 -19 0 -25 4 -22 18 2 11 11 16 26 14 19 -3 22 1 22 33 0 22 -4 34 -10 30
-13 -8 -13 18 0 31 7 7 9 112 8 294 -3 242 -5 284 -18 288 -12 4 -13 2 -2 -9
21 -22 13 -37 -22 -41 -19 -2 -32 0 -29 5 2 4 -1 14 -7 22 -9 11 -9 23 0 51
15 46 4 58 -44 48 -29 -5 -36 -10 -30 -23 38 -89 38 -112 2 -186 -30 -62 -78
-90 -153 -90 -72 0 -121 27 -154 85 -38 65 -38 65 -55 51 -17 -15 -21 -4 -7
18 5 7 14 10 20 7 7 -5 11 2 11 18 0 26 30 87 59 120 22 26 90 56 126 56 17 0
53 -10 80 -23 56 -26 85 -25 85 3 0 10 6 21 13 24 6 3 -8 2 -32 -1 -42 -6 -43
-5 -36 18 4 13 20 48 35 77 20 36 24 52 15 52 -8 0 -16 -4 -20 -10 -14 -22
-80 -30 -164 -18 l-83 12 -27 -30 c-14 -17 -32 -39 -39 -50 -7 -10 -5 -4 3 13
18 39 17 39 -32 13 -24 -12 -57 -20 -88 -20 -70 0 -79 8 -56 50 10 19 24 60
30 90 20 89 20 87 44 83 40 -8 48 24 27 111 -11 42 -24 84 -29 94 -5 9 -12 36
-16 59 -4 23 -16 54 -27 68 -31 39 -100 34 -157 -12 -3 -2 9 -18 26 -36 22
-23 32 -44 35 -74 2 -24 0 -43 -4 -43 -5 0 -8 4 -8 9 0 5 -11 11 -25 13 -14 3
-25 4 -25 2 0 -13 38 -44 53 -44 18 0 59 -77 50 -93 -8 -13 -63 3 -84 24 -10
10 -32 19 -49 19 -42 0 -52 26 -66 180 -3 30 -13 71 -22 90 -15 30 -24 36 -64
44 -58 11 -78 -2 -78 -50 0 -47 -17 -85 -42 -92 -19 -5 -20 -6 -4 -18 14 -10
15 -17 7 -32 -20 -38 -38 -33 -43 12 -7 58 -33 108 -67 127 -18 11 -31 28 -36
48 -3 17 -19 44 -35 61 -30 33 -28 33 -94 -3 -26 -13 -57 -58 -38 -56 26 4 33
-2 18 -17 -9 -8 -19 -13 -24 -10 -4 2 -13 -7 -19 -20 -10 -22 -9 -24 5 -20 14
5 17 -3 20 -50 2 -36 -1 -53 -8 -49 -14 9 -13 -31 2 -72 8 -22 17 -32 26 -28
7 3 20 5 28 5 11 0 12 4 4 19 -14 27 -13 31 9 31 19 0 35 -25 26 -40 -3 -5 14
-14 37 -20 24 -6 48 -13 55 -15 7 -2 15 0 18 5 12 19 21 9 33 -35 24 -89 11
-130 -47 -158 -32 -16 -46 -17 -95 -8 -31 6 -72 18 -90 26 -33 16 -34 16 -65
-16 l-32 -32 -21 23 -22 23 -9 -27 c-6 -17 -14 -25 -23 -22 -8 3 -14 -1 -14
-8 0 -8 -13 -19 -30 -25 -27 -9 -30 -8 -30 10 0 14 13 26 41 38 38 17 87 76
75 89 -4 3 -6 -1 -6 -8 0 -12 -3 -11 -15 1 -14 14 -14 20 5 63 l20 48 -22 -6
c-54 -14 -97 -17 -150 -8 -51 8 -60 7 -74 -10 -26 -28 -33 -22 -23 20 24 99
25 92 -12 82 -19 -6 -53 -10 -76 -10 -34 0 -45 5 -54 23 -25 48 -60 66 -126
67 -44 0 -62 4 -60 12 1 7 -8 14 -20 16 -27 4 -31 -19 -8 -38 22 -18 18 -30
-8 -30 -12 0 -33 -7 -46 -17 -23 -16 -24 -16 -18 8 8 33 -26 143 -46 147 -14
3 -14 8 0 48 20 59 11 94 -25 95 -48 2 -67 -2 -85 -20 -15 -14 -16 -22 -7 -45
9 -25 12 -26 27 -15 13 11 17 11 20 2 3 -7 13 -13 24 -13 10 0 19 -5 19 -11 0
-7 -11 -8 -29 -4 -16 3 -32 2 -35 -4 -4 -6 -13 -8 -21 -4 -10 3 -15 -1 -15
-15 0 -11 5 -22 12 -24 21 -7 -2 -28 -32 -28 -63 0 -35 -60 38 -80 22 -5 46
-18 53 -27 13 -15 11 -16 -14 -11 -15 3 -30 1 -33 -3 -10 -17 -30 -8 -78 36
-27 25 -53 45 -59 45 -5 0 -18 -11 -29 -25 -26 -34 -34 -32 -41 11 -10 59 -54
93 -84 63 -8 -8 -13 -7 -18 1 -4 6 -2 17 4 23 16 16 14 30 -3 24 -8 -3 -16 -1
-18 5 -3 8 -11 9 -24 3 -10 -4 -23 -7 -28 -6 -5 1 -6 -5 -2 -14 3 -9 6 -19 6
-21 0 -2 8 -4 19 -4 10 0 24 -6 30 -14 10 -12 3 -23 -35 -59 -25 -25 -44 -51
-42 -58 8 -21 -12 -55 -22 -39 -5 8 -13 9 -26 3 -14 -7 -23 -5 -36 8 -18 19
-14 29 13 29 10 0 21 5 25 11 5 8 -1 10 -18 6 -17 -5 -26 -3 -25 6 2 52 -4 67
-24 67 -20 0 -21 -4 -17 -52 3 -29 3 -59 1 -65 -3 -9 -28 -13 -76 -13 -76 0
-102 9 -102 34 0 24 -16 20 -29 -6 -6 -12 -18 -24 -26 -26 -12 -2 -15 10 -14
58 1 33 7 67 14 75 13 15 13 15 -34 29 -7 3 -24 -7 -36 -21 -18 -21 -28 -25
-59 -20 -21 2 -45 1 -54 -4 -11 -7 -18 -5 -24 6 -8 14 -68 25 -221 39 -18 2
-34 5 -36 7 -2 2 -6 89 -10 192 -7 183 -7 189 13 194 20 5 36 31 25 42 -3 3
-11 -2 -18 -12 -7 -9 -16 -17 -20 -17 -3 0 -5 163 -5 363 1 256 4 339 10 283
9 -88 17 -117 19 -71 0 17 7 55 14 85 l13 55 8 -82 c4 -46 10 -83 15 -83 4 0
8 32 8 71 2 96 12 102 12 8 0 -46 4 -69 9 -60 5 7 14 10 21 6 9 -6 10 0 6 22
-4 16 -2 40 3 54 7 17 10 19 10 7 1 -10 8 -18 16 -18 10 0 15 -11 16 -32 1
-26 3 -21 12 22 11 48 15 55 34 52 12 -2 31 6 42 17 11 11 27 18 36 15 8 -4
15 -2 15 3 0 5 -46 10 -102 11 -57 2 -121 5 -143 8 -22 2 -104 7 -182 10
l-141 7 -10 -54 c-36 -187 -43 -262 -43 -509 0 -140 -3 -320 -7 -400 l-7 -144
-50 3 c-27 1 -54 6 -59 11 -5 5 -8 81 -8 169 0 89 -3 161 -8 161 -5 0 -11 19
-13 43 l-4 42 -1 -49 c-1 -28 -5 -46 -10 -40 -4 5 -5 92 -1 194 4 102 7 256 8
343 1 156 1 157 24 156 16 -1 18 -2 5 -6 -15 -4 -18 -17 -18 -88 0 -46 5 -87
10 -90 6 -4 10 12 10 40 0 47 18 78 42 73 9 -2 14 11 16 40 3 40 2 43 -17 37
-18 -5 -21 -2 -21 24 0 29 2 31 40 31 22 0 40 5 40 10 0 6 -28 10 -62 10 -35
0 -157 7 -273 15 -115 8 -282 19 -370 25 -88 5 -179 12 -202 15 -41 4 -43 3
-43 -22 l0 -26 -107 8 c-60 5 -134 7 -165 6 l-58 -1 0 30 c0 17 -6 32 -12 34
-7 2 -94 9 -193 15 -99 6 -385 25 -635 41 -250 17 -552 37 -670 45 -533 34
-1145 78 -1149 81 -1 1 4 17 13 35 9 18 15 34 13 35 -2 2 -20 -10 -40 -27z
m-70 -157 c-10 -10 -17 -26 -17 -35 0 -9 -5 -19 -10 -22 -17 -11 1 48 19 62
23 18 26 16 8 -5z m2110 -108 c208 -17 234 -19 443 -30 80 -5 155 -7 166 -6
21 2 22 -1 28 -185 3 -104 11 -280 17 -392 9 -162 9 -211 -1 -242 -12 -34 -11
-41 4 -58 9 -10 14 -25 10 -35 -5 -14 -31 -16 -225 -16 -224 0 -242 3 -207 38
9 9 9 12 0 12 -7 0 -12 -3 -12 -7 0 -5 -4 -14 -9 -22 -8 -12 -12 -12 -25 -2
-24 20 -20 -4 6 -34 22 -25 48 -33 48 -15 0 6 7 10 15 10 8 0 15 -8 15 -17 0
-10 3 -28 6 -40 10 -35 -9 -28 -76 27 l-60 51 -158 -2 -157 -1 -6 39 c-4 21
-10 117 -14 213 -3 96 -13 288 -21 425 -18 321 -18 305 5 305 11 0 104 -7 208
-16z m-2100 -176 c-3 -7 -5 -2 -5 12 0 14 2 19 5 13 2 -7 2 -19 0 -25z m13
-63 c0 -14 -2 -25 -4 -25 -2 0 -6 11 -8 25 -3 14 -1 25 3 25 5 0 9 -11 9 -25z
m37 -317 c-3 -7 -5 -2 -5 12 0 14 2 19 5 13 2 -7 2 -19 0 -25z m10 -95 c-3
-10 -5 -4 -5 12 0 17 2 24 5 18 2 -7 2 -21 0 -30z m30 -215 c-3 -7 -5 -2 -5
12 0 14 2 19 5 13 2 -7 2 -19 0 -25z m2766 0 c9 -21 11 -45 6 -65 -7 -31 -6
-33 41 -48 44 -14 53 -23 90 -86 31 -52 40 -77 36 -95 -10 -37 -39 -30 -83 20
-25 29 -50 46 -73 51 -19 4 -32 4 -28 0 4 -5 2 -15 -5 -23 -10 -13 -9 -14 10
-4 29 16 34 15 27 -3 -4 -8 -13 -15 -22 -15 -8 0 -13 -3 -10 -6 4 -3 23 -1 43
5 33 9 38 8 42 -10 3 -10 10 -19 15 -19 6 0 8 -7 5 -15 -4 -8 4 -22 16 -32 24
-20 25 -24 39 -100 9 -47 13 -53 34 -53 30 0 31 17 2 23 -20 4 -19 4 5 6 15 0
27 -3 27 -9 0 -10 193 -7 425 6 l110 6 0 31 c0 22 5 32 15 32 8 0 15 -7 16
-15 1 -8 2 -21 2 -27 3 -20 202 -18 202 1 0 11 7 13 31 6 39 -12 64 -3 48 16
-7 8 -10 16 -8 17 11 8 108 -6 112 -16 2 -7 2 2 0 18 -4 30 -3 30 17 -7 19
-35 24 -38 65 -38 43 0 65 -12 45 -25 -5 -3 -10 -1 -10 4 0 7 -30 11 -79 11
l-80 0 -3 -87 c-2 -49 -2 -116 0 -150 3 -54 6 -63 22 -63 11 0 20 9 23 23 3
12 2 -31 -1 -97 -4 -95 -3 -118 8 -114 8 2 14 27 17 69 5 96 20 203 22 157 1
-26 7 -41 20 -48 16 -8 20 -6 23 8 2 9 15 -39 28 -107 16 -80 30 -126 39 -129
15 -5 14 0 -12 123 -8 39 -17 89 -20 113 l-5 42 71 -2 c48 -1 58 -3 30 -5 -51
-5 -54 -14 -11 -31 23 -8 35 -9 45 0 21 17 23 8 16 -71 -5 -62 -9 -75 -26 -79
-19 -5 -18 -6 4 -23 31 -24 11 -40 -37 -29 -19 4 -34 5 -34 1 0 -8 88 -41 109
-41 7 0 21 -8 30 -18 10 -12 31 -19 56 -19 86 -2 144 -15 150 -34 9 -29 25
-23 25 9 0 29 0 29 78 34 24 2 47 9 53 18 7 11 9 1 7 -34 -3 -49 -22 -73 -31
-39 -4 14 -5 13 -6 -4 -1 -14 5 -23 14 -23 8 0 15 -7 15 -15 0 -8 7 -15 15
-15 8 0 15 6 15 13 0 7 3 8 8 2 4 -6 20 -11 36 -12 16 0 32 -6 36 -13 8 -14
61 -10 61 5 0 6 -8 12 -18 13 -39 8 -32 19 11 18 l46 -1 6 -42 c5 -34 10 -43
26 -43 16 0 19 5 14 20 -21 69 -21 67 1 47 12 -10 27 -15 37 -11 9 3 24 0 33
-7 13 -11 15 -11 9 -1 -6 10 1 13 30 10 24 -2 38 -8 37 -15 -2 -7 -6 -37 -9
-68 -7 -55 -7 -55 20 -55 15 0 36 -5 47 -10 27 -15 45 -2 22 16 -23 17 -11 17
52 -1 37 -10 43 -14 23 -14 -17 -1 -28 -7 -28 -15 0 -10 16 -15 51 -18 56 -3
74 7 37 21 -21 9 -21 10 10 10 26 1 32 5 33 24 0 12 8 -3 17 -33 14 -44 22
-56 41 -58 19 -3 21 -6 10 -13 -9 -6 -4 -8 16 -4 94 14 145 15 145 3 0 -7 5
-5 11 5 6 10 8 22 4 25 -4 4 -47 6 -96 5 -79 -1 -89 0 -89 16 0 10 6 18 13 19
6 1 56 5 110 9 112 9 107 14 83 -89 -10 -39 -11 -60 -4 -64 15 -10 26 13 39
86 l11 65 57 -2 c31 -2 50 0 44 3 -12 5 -19 34 -8 34 3 0 14 -6 25 -12 17 -11
22 -10 29 0 7 11 9 11 13 0 3 -7 21 -15 39 -16 42 -3 46 -8 31 -32 -10 -16
-10 -20 2 -20 12 0 28 -47 30 -85 1 -6 -19 -9 -44 -7 -43 2 -44 1 -25 -13 12
-10 31 -14 46 -11 21 4 29 0 38 -20 6 -14 11 -33 11 -44 0 -10 5 -22 11 -26
12 -7 -56 -54 -78 -54 -18 0 -113 -73 -113 -87 0 -7 -9 -17 -21 -23 -13 -7
-18 -17 -15 -27 4 -9 -2 -24 -13 -35 -11 -10 -18 -25 -15 -33 3 -8 -1 -22 -10
-30 -12 -12 -13 -21 -6 -35 7 -13 7 -21 -1 -25 -6 -4 -9 -23 -7 -42 1 -18 -2
-37 -7 -41 -6 -4 -11 -24 -12 -46 -1 -25 -9 -45 -24 -59 l-21 -20 7 23 c7 22
6 23 -40 17 -25 -4 -74 -19 -108 -33 -34 -15 -72 -26 -84 -26 -19 0 -23 -6
-23 -33 l0 -32 -63 -6 c-34 -3 -70 -9 -79 -12 -13 -5 -15 -2 -11 16 6 22 3 21
-36 -11 -23 -19 -53 -41 -67 -48 -26 -14 -31 -28 -13 -34 7 -2 4 -18 -10 -43
-19 -37 -28 -85 -16 -85 3 0 16 6 28 14 15 10 29 11 45 5 27 -10 29 -19 3 -12
-28 7 -64 -15 -56 -35 8 -21 45 -269 44 -297 0 -11 -15 23 -33 75 -40 116 -58
152 -103 208 -41 50 -70 71 -115 82 -18 4 -42 11 -53 16 -20 7 -20 7 -2 -14
44 -50 -21 -95 -163 -113 -58 -7 -92 -6 -123 2 l-42 12 30 10 c17 5 51 27 77
48 26 22 50 39 55 39 4 1 23 14 42 30 24 20 38 26 46 20 14 -12 25 -3 25 22 0
10 4 18 8 18 8 0 32 117 53 265 6 44 20 111 30 150 29 107 25 125 -20 84 -12
-12 -24 -19 -25 -18 -2 2 -8 35 -14 73 -21 129 -91 227 -184 256 -56 17 -169
15 -205 -4 -120 -62 -173 -148 -173 -279 0 -96 -18 -160 -42 -153 -41 10 -120
-122 -140 -234 -6 -34 -14 -58 -18 -53 -4 4 -26 80 -48 169 -40 156 -45 218
-22 249 12 16 19 62 31 215 6 80 14 162 19 183 6 28 5 37 -5 37 -8 0 -17 -5
-20 -10 -12 -19 -124 -70 -187 -85 -35 -8 -95 -15 -135 -15 -39 0 -75 -4 -78
-10 -3 -5 -12 -10 -18 -10 -7 1 -1 10 13 21 14 12 25 24 26 28 0 3 3 13 7 21
12 32 15 166 3 197 -16 46 -102 133 -131 133 -19 0 -28 10 -45 47 -11 26 -28
55 -37 65 -9 10 -13 21 -9 26 4 4 16 -4 27 -17 10 -13 19 -19 19 -13 0 14 -49
52 -67 52 -19 0 -33 42 -33 97 0 62 -20 173 -31 173 -5 0 -9 9 -9 21 0 11 -5
17 -10 14 -6 -4 -25 6 -42 20 -25 21 -38 25 -62 21 -17 -4 -32 -10 -34 -15 -2
-5 -11 -7 -22 -4 -26 7 -51 -45 -57 -121 -5 -54 -10 -65 -43 -98 -32 -31 -100
-121 -100 -133 0 -2 16 2 35 8 19 6 35 14 35 19 0 10 70 42 77 35 2 -3 -8 -14
-23 -26 l-28 -22 22 -15 c28 -19 29 -68 2 -111 -11 -18 -23 -33 -27 -33 -12 0
-13 52 -1 73 8 16 7 18 -11 12 -12 -4 -30 0 -42 9 -19 13 -24 13 -45 0 -21
-14 -22 -14 -17 5 8 31 -1 26 -41 -26 -39 -50 -44 -52 -22 -7 8 16 13 38 11
49 -2 11 -4 30 -4 43 -1 12 -7 22 -16 22 -12 0 -15 13 -15 61 0 33 -5 70 -11
81 -9 17 -9 20 4 15 27 -10 38 125 12 159 -19 24 -19 34 0 34 11 0 13 8 9 33
l-6 32 22 -22 c19 -18 21 -25 11 -36 -9 -12 -8 -16 4 -21 9 -3 15 0 15 10 0 9
6 14 13 12 7 -3 14 -28 17 -58 3 -30 10 -55 18 -58 14 -4 14 0 2 53 -6 28 -6
42 3 48 9 7 9 10 0 14 -7 2 -13 14 -13 26 -1 20 -2 20 -11 5 -15 -26 -29 -22
-29 7 0 23 -4 25 -36 23 -37 -2 -54 12 -54 45 0 9 -4 17 -10 17 -5 0 -10 -13
-10 -30 0 -16 4 -30 9 -30 5 0 14 -14 21 -31 11 -26 11 -32 -1 -40 -10 -6 -16
-2 -19 14 -5 20 -7 20 -13 4 -13 -34 -8 -50 13 -44 20 5 25 -9 20 -57 -1 -13
3 -17 14 -13 11 5 16 1 16 -14 0 -17 -33 -39 -60 -39 -14 0 -30 69 -30 127 0
47 -23 113 -42 121 -5 2 -8 10 -8 18 0 9 -4 12 -10 9 -5 -3 -18 -1 -27 5 -16
9 -15 10 7 8 21 -3 26 2 28 25 3 20 8 27 18 23 8 -3 27 0 42 6 15 6 32 10 39
9 6 -1 14 3 18 9 3 5 16 11 28 11 16 1 14 3 -8 8 -16 4 -31 3 -33 -1 -2 -4
-15 -8 -29 -8 -23 0 -24 2 -12 18 12 15 12 16 -1 6 -8 -6 -23 -14 -32 -17 -13
-4 -15 -2 -11 11 6 14 5 15 -9 2 -9 -8 -14 -18 -11 -22 5 -10 0 -10 -21 -2
-23 9 -30 66 -16 124 10 43 19 55 53 77 38 24 42 25 67 9 15 -8 30 -13 34 -9
14 14 5 31 -19 37 -30 8 -48 46 -38 84 12 52 56 58 76 10z m547 2 c0 -11 -4
-20 -10 -20 -5 0 -10 9 -10 20 0 11 5 20 10 20 6 0 10 -9 10 -20z m70 0 c0
-11 -4 -20 -10 -20 -5 0 -10 9 -10 20 0 11 5 20 10 20 6 0 10 -9 10 -20z m70
13 c0 -5 -5 -15 -10 -23 -8 -12 -10 -11 -10 8 0 12 5 22 10 22 6 0 10 -3 10
-7z m120 -54 c0 -6 7 -9 15 -5 22 8 18 -12 -5 -24 -12 -6 -20 -7 -20 -1 0 5
-3 16 -6 25 -3 9 -1 16 5 16 6 0 11 -5 11 -11z m-3563 -51 c-2 -13 -4 -5 -4
17 -1 22 1 32 4 23 2 -10 2 -28 0 -40z m3720 39 c13 -14 -9 -20 -59 -18 -56 2
-63 5 -55 18 6 9 104 9 114 0z m-192 -115 c-5 -46 -2 -67 14 -105 l20 -47 103
-2 c84 -2 90 -3 33 -5 -38 -2 -75 -9 -82 -15 -8 -7 -13 -7 -13 0 0 5 -20 13
-44 16 l-44 7 -4 67 c-4 89 1 142 14 142 6 0 8 -20 3 -58z m92 42 c-3 -3 -12
-4 -19 -1 -8 3 -5 6 6 6 11 1 17 -2 13 -5z m-1478 -41 c8 -16 17 -36 22 -45 5
-10 9 -29 9 -44 0 -36 16 -61 44 -68 13 -3 32 -9 41 -12 15 -6 16 -2 11 22 -5
26 -1 32 39 56 69 42 85 40 104 -9 12 -35 13 -49 3 -76 -7 -18 -12 -47 -12
-64 0 -39 -16 -51 -83 -67 -47 -11 -56 -11 -74 4 -24 19 -15 30 36 48 28 10
38 9 57 -2 12 -8 24 -12 28 -9 11 12 -74 53 -119 58 -122 12 -173 63 -160 159
10 77 32 96 54 49z m-2132 -5 c-3 -8 -6 -5 -6 6 -1 11 2 17 5 13 3 -3 4 -12 1
-19z m3565 -1 c-6 -6 -12 -28 -14 -47 l-3 -35 -5 42 c-3 23 -2 39 2 37 5 -3 8
0 8 5 0 6 5 11 11 11 8 0 8 -4 1 -13z m143 3 c-7 -12 -105 -13 -105 -2 0 5 25
9 55 10 34 1 53 -2 50 -8z m-72 -57 c-7 -2 -21 -2 -30 0 -10 3 -4 5 12 5 17 0
24 -2 18 -5z m-433 -48 c0 -8 -4 -15 -10 -15 -5 0 -10 7 -10 15 0 8 5 15 10
15 6 0 10 -7 10 -15z m-1239 -81 c5 -15 8 -28 7 -29 -13 -10 -88 -13 -94 -4
-4 8 -27 9 -69 5 -51 -5 -62 -4 -62 9 0 12 17 15 89 15 72 0 88 3 88 15 0 25
30 17 41 -11z m1561 1 c-2 -14 -11 -25 -18 -25 -17 0 -18 22 -2 38 19 19 26
14 20 -13z m248 9 c0 -10 -28 -34 -39 -34 -17 0 -13 18 7 29 19 12 32 14 32 5z
m-3716 -36 c-3 -5 -12 -4 -20 3 -19 16 -18 18 6 12 11 -3 17 -9 14 -15z m1676
3 c0 -15 -9 -20 -42 -23 -24 -3 -51 -1 -60 4 -23 11 -85 10 -93 -2 -3 -5 -22
-10 -41 -10 -27 0 -34 4 -34 20 0 17 8 20 73 23 192 9 197 8 197 -12z m274 4
c-4 -8 -10 -15 -14 -15 -4 0 -10 7 -14 15 -4 10 1 15 14 15 13 0 18 -5 14 -15z
m919 8 c-7 -2 -19 -2 -25 0 -7 3 -2 5 12 5 14 0 19 -2 13 -5z m665 -12 c3 -8
-1 -12 -9 -9 -7 2 -15 10 -17 17 -3 8 1 12 9 9 7 -2 15 -10 17 -17z m-1395 -8
c4 -2 7 -11 7 -19 0 -16 -26 -19 -35 -3 -5 6 -22 8 -47 4 -30 -5 -39 -4 -33 5
15 25 73 32 108 13z m-1186 -9 c-7 -7 -107 -7 -115 0 -3 3 23 6 58 6 35 0 61
-3 57 -6z m97 -9 c-4 -8 -11 -15 -16 -15 -6 0 -5 6 2 15 7 8 14 15 16 15 2 0
1 -7 -2 -15z m33 -7 c-3 -8 -6 -5 -6 6 -1 11 2 17 5 13 3 -3 4 -12 1 -19z
m5383 -4 c0 -2 -7 -4 -15 -4 -8 0 -15 4 -15 10 0 5 7 7 15 4 8 -4 15 -8 15
-10z m-4560 -14 c0 -11 -3 -20 -8 -20 -4 0 -15 9 -25 20 -16 19 -16 20 8 20
18 0 25 -5 25 -20z m578 13 c-10 -2 -26 -2 -35 0 -10 3 -2 5 17 5 19 0 27 -2
18 -5z m1053 -8 c1 -17 -18 -17 -25 0 -4 11 -1 15 10 13 8 -2 15 -7 15 -13z
m162 8 c-7 -2 -19 -2 -25 0 -7 3 -2 5 12 5 14 0 19 -2 13 -5z m707 -3 c0 -5
-11 -12 -25 -16 -14 -3 -25 -10 -25 -15 0 -5 -5 -9 -11 -9 -5 0 -8 4 -5 9 7
11 -41 24 -55 16 -5 -4 -7 -11 -4 -16 4 -5 -1 -9 -9 -9 -9 0 -16 5 -16 11 0 9
-23 10 -82 6 -60 -5 -79 -4 -70 5 6 6 68 14 144 18 73 4 139 8 146 8 6 1 12
-2 12 -8z m-2950 -15 c-7 -8 -17 -15 -23 -15 -6 0 -2 7 9 15 25 19 30 19 14 0z
m555 -14 c-3 -6 -11 -11 -16 -11 -5 0 -4 6 3 14 14 16 24 13 13 -3z m4437 -11
c6 0 9 -2 6 -5 -12 -12 -37 7 -30 23 6 16 7 15 10 0 2 -10 8 -18 14 -18z
m-2394 6 c-7 -8 -15 -12 -17 -11 -5 6 10 25 20 25 5 0 4 -6 -3 -14z m-2141
-28 c-3 -8 -6 -5 -6 6 -1 11 2 17 5 13 3 -3 4 -12 1 -19z m150 -10 c-3 -7 -5
-2 -5 12 0 14 2 19 5 13 2 -7 2 -19 0 -25z m1111 25 c-10 -2 -26 -2 -35 0 -10
3 -2 5 17 5 19 0 27 -2 18 -5z m-1171 -48 c1 -43 -5 -47 -73 -49 -62 -1 -69
17 -8 22 54 4 72 11 55 21 -10 6 -9 11 4 25 21 21 21 22 22 -19z m-348 -53 c0
-13 -3 -20 -9 -17 -5 3 -9 27 -9 53 1 42 2 44 9 17 4 -16 8 -40 9 -53z m2256
68 c3 -5 1 -10 -4 -10 -6 0 -11 5 -11 10 0 6 2 10 4 10 3 0 8 -4 11 -10z m100
-7 c-4 -10 -9 -46 -12 -80 -4 -45 -10 -63 -20 -63 -8 0 -12 3 -9 8 2 4 5 37 7
72 2 74 4 80 26 80 10 0 13 -5 8 -17z m260 -80 c-4 -30 -9 -53 -11 -50 -3 2
-1 35 3 73 4 38 9 61 11 50 2 -10 1 -43 -3 -73z m-361 27 c-4 -16 -2 -43 4
-60 10 -29 10 -30 -16 -29 -15 0 -21 3 -14 6 8 3 12 26 12 64 0 36 4 58 10 54
5 -3 7 -19 4 -35z m-2544 20 c12 -8 9 -10 -12 -10 -15 0 -30 5 -33 10 -8 13
25 13 45 0z m-187 -17 c-7 -2 -19 -2 -25 0 -7 3 -2 5 12 5 14 0 19 -2 13 -5z
m80 -11 c119 7 220 8 224 4 4 -4 0 -13 -9 -20 -10 -7 -15 -16 -11 -19 9 -9
-53 -33 -106 -41 l-43 -7 4 31 c5 30 4 30 -43 30 -42 0 -47 -2 -42 -17 9 -24
25 -34 45 -27 9 2 19 0 23 -6 7 -11 -72 -12 -120 0 -25 6 -27 8 -13 14 29 13
10 26 -38 26 -43 0 -44 -1 -44 -32 1 -27 2 -30 11 -15 16 27 30 21 19 -9 -6
-14 -10 -36 -10 -50 0 -18 -5 -24 -22 -24 -39 0 -49 14 -47 61 1 24 -1 60 -5
79 -5 21 -4 30 1 23 7 -10 54 -10 226 -1z m941 -7 c8 -9 31 -22 50 -30 35 -15
96 -80 96 -103 0 -7 8 -24 17 -39 17 -26 17 -26 -5 -14 -28 15 -28 8 0 -37 15
-24 17 -34 7 -30 -8 2 -28 33 -46 68 -59 120 -75 140 -133 171 -47 24 -51 28
-28 29 15 0 33 -7 42 -15z m-208 -27 c1 -13 5 -34 9 -48 4 -14 -2 -8 -14 14
-11 21 -18 43 -15 47 9 16 19 9 20 -13z m-1891 2 c-3 -5 -14 -10 -23 -9 -14 0
-13 2 3 9 27 11 27 11 20 0z m1595 0 c0 -5 -7 -7 -15 -4 -8 4 -15 8 -15 10 0
2 7 4 15 4 8 0 15 -4 15 -10z m246 -12 c4 -5 -11 -8 -34 -8 -23 0 -42 3 -42 8
0 9 66 9 76 0z m-334 -28 c6 0 16 7 22 15 9 13 15 13 38 3 30 -14 32 -17 20
-35 -6 -9 -17 -10 -45 -2 -39 10 -77 5 -77 -12 0 -16 -56 -10 -78 10 -12 10
-19 21 -15 24 3 4 11 0 17 -9 16 -21 67 -9 59 13 -5 12 -1 14 15 8 15 -4 22
-2 23 7 1 7 3 5 6 -4 2 -10 9 -18 15 -18z m240 18 c-14 -14 -15 -37 -3 -57 7
-12 14 -9 33 12 13 14 36 27 53 29 29 3 30 2 35 -49 3 -29 2 -53 -2 -53 -5 0
-8 4 -8 9 0 9 -53 31 -76 31 -8 0 -14 -9 -14 -21 0 -17 -5 -20 -22 -16 -13 3
-49 11 -80 19 -32 7 -58 17 -58 23 0 18 15 30 40 33 53 6 68 12 73 32 3 11 13
20 23 20 14 0 15 -3 6 -12z m2493 -5 c3 -9 -6 -13 -25 -13 -17 0 -30 5 -30 13
0 6 11 12 25 12 14 0 27 -6 30 -12z m35 7 c0 -5 -5 -10 -11 -10 -5 0 -7 5 -4
10 3 6 8 10 11 10 2 0 4 -4 4 -10z m1064 -15 l16 -25 -62 0 -63 1 45 24 c25
13 46 24 46 25 1 0 9 -11 18 -25z m-5434 5 c0 -5 -7 -10 -15 -10 -8 0 -15 5
-15 10 0 6 7 10 15 10 8 0 15 -4 15 -10z m350 -22 c0 -5 -4 -7 -10 -3 -5 3 -8
-10 -6 -32 2 -21 4 -45 5 -54 1 -12 8 -15 26 -11 14 2 25 5 25 6 0 0 -6 24
-14 52 l-14 52 47 5 c35 4 49 2 59 -11 7 -9 12 -11 12 -4 0 7 5 12 10 12 7 0
7 -6 0 -19 -5 -11 -10 -39 -10 -63 l0 -44 -47 -1 c-27 -1 -69 -5 -95 -9 -40
-5 -48 -3 -48 10 0 9 5 16 10 16 6 0 10 5 10 11 0 5 -4 7 -10 4 -5 -3 -10 1
-10 11 0 12 -6 15 -23 12 -19 -4 -26 3 -40 35 -14 33 -14 38 -2 33 8 -3 15 -2
15 2 0 4 25 5 55 4 30 -2 55 -8 55 -14z m3783 15 c-7 -2 -21 -2 -30 0 -10 3
-4 5 12 5 17 0 24 -2 18 -5z m1799 -18 c4 -20 1 -25 -16 -26 -11 0 -29 -2 -38
-4 -20 -4 -23 8 -8 36 16 29 57 25 62 -6z m-1869 8 c-7 -2 -21 -2 -30 0 -10 3
-4 5 12 5 17 0 24 -2 18 -5z m-3536 -35 c-3 -7 -5 -2 -5 12 0 14 2 19 5 13 2
-7 2 -19 0 -25z m3333 7 c0 -25 -15 -24 -16 1 -1 13 2 21 7 18 5 -3 9 -11 9
-19z m-3893 -17 c-3 -7 -5 -2 -5 12 0 14 2 19 5 13 2 -7 2 -19 0 -25z m803
-26 c0 -27 -64 -100 -74 -84 -3 6 0 16 7 24 7 7 22 34 32 60 20 47 35 47 35 0z
m850 12 l31 -26 -38 -34 c-36 -31 -72 -46 -58 -24 3 5 -6 26 -21 45 -15 20
-25 37 -23 38 11 8 56 26 66 26 6 1 25 -11 43 -25z m3130 19 c-1 -16 -30 -46
-37 -38 -5 4 -2 10 5 12 10 4 10 8 1 19 -9 11 -7 14 10 14 11 0 21 -3 21 -7z
m1208 -20 c-3 -14 -12 -17 -40 -15 -20 2 -39 -1 -43 -7 -3 -6 -11 -11 -17 -11
-18 0 23 39 46 43 47 9 58 7 54 -10z m-116 -73 c-4 -30 -16 -39 -27 -20 -3 6
-2 10 3 10 5 0 12 9 15 20 8 31 14 24 9 -10z m-5096 -64 c-20 -18 -36 -39 -36
-46 0 -8 -9 -10 -27 -5 -16 4 -29 8 -31 10 -10 10 24 49 54 61 18 8 42 26 51
41 l18 27 3 -27 c3 -20 -5 -35 -32 -61z m1895 43 c-9 -23 -10 -22 -10 11 -1
23 2 31 9 24 7 -7 7 -19 1 -35z m3949 21 c0 -5 -5 -10 -11 -10 -5 0 -7 5 -4
10 3 6 8 10 11 10 2 0 4 -4 4 -10z m-2120 -37 c0 -21 -5 -45 -10 -53 -7 -11
-10 0 -10 38 0 28 5 52 10 52 6 0 10 -17 10 -37z m31 -68 l-8 -80 -2 61 c0 34
2 77 6 95 11 54 14 11 4 -76z m686 99 c-3 -3 -12 -4 -19 -1 -8 3 -5 6 6 6 11
1 17 -2 13 -5z m-2259 -65 c-18 -12 -38 -11 -38 1 0 5 10 22 23 36 l22 26 3
-27 c2 -16 -2 -32 -10 -36z m1623 -37 c-6 -2 -8 -16 -4 -33 4 -19 1 -29 -6
-29 -9 0 -12 18 -10 58 4 87 11 105 22 52 6 -30 6 -45 -2 -48z m-4214 48 c-5
-20 -3 -30 6 -30 12 0 -11 -20 -24 -20 -12 0 -17 38 -6 49 8 8 7 11 -3 12 -10
0 -7 4 5 9 11 5 22 9 24 9 2 1 1 -12 -2 -29z m75 -24 c-3 -47 -1 -55 16 -60
11 -4 23 -13 26 -21 14 -37 32 -6 42 73 2 18 10 40 18 47 12 12 13 9 9 -24 -5
-33 -2 -39 17 -44 12 -3 19 -10 16 -16 -4 -5 -7 -44 -7 -85 -1 -42 -2 -76 -4
-76 -16 0 -55 26 -55 37 0 16 12 17 28 1 9 -9 12 -8 12 4 0 15 -19 28 -42 28
-6 0 -9 -17 -6 -39 2 -22 2 -38 -1 -36 -2 3 -9 -2 -15 -10 -11 -15 -19 -17
-108 -30 -48 -6 -64 -23 -30 -32 17 -4 18 -11 11 -54 -4 -27 -10 -53 -13 -58
-10 -15 -158 76 -179 109 -19 30 -19 30 2 30 24 0 61 33 61 54 0 20 11 46 19
46 4 0 8 -21 9 -47 1 -32 8 -52 19 -60 24 -18 30 -16 37 11 7 28 44 40 81 26
14 -5 31 -10 36 -10 12 0 12 37 -1 45 -5 3 -10 -2 -10 -11 0 -16 -1 -16 -18
-1 -10 10 -23 17 -29 17 -6 0 -14 6 -16 13 -3 7 -6 5 -6 -5 -1 -20 -3 -21 -24
-12 -9 3 -12 14 -9 30 4 22 2 24 -22 20 -20 -4 -26 -1 -26 13 0 9 -5 22 -10
27 -8 8 -6 15 5 24 11 9 15 9 15 1 0 -7 5 -9 11 -6 6 4 8 13 5 21 -3 8 -1 14
4 14 6 0 10 -11 10 -24 0 -14 15 -41 35 -63 39 -43 47 -36 12 11 -42 56 -41
63 10 64 25 1 48 4 51 6 2 3 -3 17 -12 31 -9 14 -14 34 -11 45 4 12 0 20 -12
23 -10 3 -2 5 17 6 l35 1 -3 -54z m3744 -3 c-10 -26 -18 -8 -9 23 5 21 8 24
11 11 2 -10 1 -25 -2 -34z m2000 8 c20 -16 21 -21 10 -36 -7 -10 -11 -26 -9
-35 4 -17 -50 -90 -67 -90 -4 0 -1 20 8 45 13 40 32 61 32 35 0 -5 5 -10 10
-10 20 0 9 29 -12 33 l-23 4 23 8 c25 8 29 30 7 39 -8 3 -15 10 -15 16 0 15 9
13 36 -9z m897 -5 c-10 -13 -24 -21 -31 -19 -7 3 -22 -3 -32 -12 -11 -10 -20
-13 -20 -7 0 6 5 14 11 17 6 4 8 13 5 20 -3 9 5 15 27 18 18 2 38 5 45 5 9 1
7 -5 -5 -22z m-100 -26 c-3 -11 -9 -20 -13 -20 -5 0 -6 9 -3 20 3 11 9 20 13
20 5 0 6 -9 3 -20z m-2053 1 c0 -6 -4 -13 -10 -16 -5 -3 -10 1 -10 9 0 9 5 16
10 16 6 0 10 -4 10 -9z m290 -22 c0 -12 -6 -16 -20 -12 -11 3 -20 11 -20 17 0
6 9 12 20 12 12 0 20 -7 20 -17z m54 6 c-4 -8 -8 -15 -10 -15 -2 0 -4 7 -4 15
0 8 4 15 10 15 5 0 7 -7 4 -15z m-177 -1 c-3 -3 -12 -4 -19 -1 -8 3 -5 6 6 6
11 1 17 -2 13 -5z m58 -4 c3 -5 -1 -10 -10 -10 -9 0 -13 5 -10 10 3 6 8 10 10
10 2 0 7 -4 10 -10z m-2725 -26 c0 -9 11 -14 34 -14 26 0 48 -11 90 -45 64
-52 71 -64 86 -131 6 -27 18 -56 26 -65 7 -8 17 -37 20 -62 5 -38 4 -47 -8
-47 -15 0 -57 71 -62 103 -1 10 -8 23 -14 29 -7 7 -12 21 -12 32 0 26 -8 17
-14 -18 -3 -15 -13 -34 -23 -42 -16 -12 -20 -11 -33 5 -37 46 -55 75 -55 90 0
9 -4 22 -8 29 -5 7 -6 20 -3 28 7 19 -11 67 -23 60 -5 -4 -7 2 -4 13 3 10 0
22 -6 25 -6 4 -11 14 -11 22 0 8 5 12 10 9 6 -3 10 -13 10 -21z m1880 10 c-24
-14 -23 -14 23 -10 26 3 47 2 47 0 0 -3 -9 -14 -20 -26 -12 -14 -20 -17 -20
-9 0 14 -43 11 -82 -4 -14 -5 -18 -2 -18 14 0 22 42 50 75 50 18 0 17 -1 -5
-15z m-1220 -20 c-13 -33 -13 -54 0 -34 17 27 31 -3 37 -79 5 -57 3 -75 -8
-82 -8 -4 -14 -16 -14 -26 0 -24 -38 -29 -67 -9 -15 11 -34 14 -60 10 -44 -8
-53 10 -10 22 15 4 30 7 35 6 4 -1 7 3 7 9 0 7 -15 10 -40 7 l-39 -3 16 25
c35 53 44 77 42 120 0 25 0 48 0 53 1 4 26 7 56 7 54 0 54 0 45 -26z m201 -37
c45 -102 42 -93 20 -73 -16 15 -23 16 -42 5 -13 -7 -38 -15 -55 -19 l-31 -7 2
76 c1 42 3 76 4 76 0 0 19 -1 40 -3 36 -4 41 -8 62 -55z m1129 43 c0 -5 -5
-10 -11 -10 -5 0 -7 5 -4 10 3 6 8 10 11 10 2 0 4 -4 4 -10z m-4507 -44 c-10
-14 -24 -26 -30 -26 -18 0 -16 -20 2 -20 21 0 19 -23 -5 -38 -17 -10 -20 -9
-26 13 -9 34 3 75 24 82 9 4 24 13 32 21 22 22 25 -3 3 -32z m4304 18 c-3 -3
-16 -4 -29 -2 l-23 5 25 10 c23 10 41 1 27 -13z m1380 4 c-3 -8 -6 -5 -6 6 -1
11 2 17 5 13 3 -3 4 -12 1 -19z m1697 -47 c-9 -34 -21 -64 -25 -67 -5 -3 -9
-22 -9 -43 0 -46 -19 -75 -43 -65 -14 5 -15 9 -6 20 6 8 17 14 23 14 6 0 12
17 13 38 2 36 52 176 60 168 3 -2 -3 -32 -13 -65z m-1587 53 c-3 -3 -12 -4
-19 -1 -8 3 -5 6 6 6 11 1 17 -2 13 -5z m1239 -16 c-9 -12 -16 -33 -16 -46 0
-13 -4 -20 -10 -17 -5 3 -10 24 -10 46 0 35 2 39 26 39 24 0 24 -1 10 -22z
m-2371 2 c3 -5 1 -10 -4 -10 -6 0 -11 5 -11 10 0 6 2 10 4 10 3 0 8 -4 11 -10z
m542 -36 c-2 -3 -11 -2 -20 2 -14 5 -14 8 1 25 17 20 17 20 20 -1 2 -12 2 -24
-1 -26z m392 3 c1 -5 -3 -5 -9 -2 -5 3 -10 16 -9 28 0 21 1 21 9 2 5 -11 9
-24 9 -28z m1341 7 c6 -14 10 -43 10 -65 0 -47 -3 -47 -112 -18 -76 21 -78 22
-72 48 4 14 8 27 8 28 2 3 125 30 144 32 7 0 17 -11 22 -25z m-783 -6 c18 -14
6 -28 -22 -28 -13 0 -26 -4 -30 -9 -5 -9 -55 29 -55 42 0 16 85 12 107 -5z
m-477 -3 c0 -9 -9 -15 -22 -15 -22 1 -23 1 -4 15 25 19 26 19 26 0z m-3494
-20 c6 -11 15 -29 21 -40 6 -11 17 -36 26 -56 l15 -35 -70 -2 c-38 0 -76 -6
-83 -12 -7 -6 -26 -12 -43 -13 -19 -1 -28 -6 -25 -14 3 -7 -2 -13 -11 -13 -10
0 -22 -13 -27 -30 -6 -16 -15 -30 -20 -30 -5 0 -4 9 3 21 11 18 10 23 -9 39
-13 10 -23 23 -23 29 0 20 44 87 89 134 44 46 48 48 96 45 39 -2 52 -7 61 -23z
m2719 13 c3 -3 -2 -11 -11 -18 -13 -12 -17 -11 -25 1 -5 8 -9 17 -9 21 0 9 36
5 45 -4z m1146 -29 c31 -34 26 -37 -71 -44 l-68 -6 11 36 c8 27 18 37 41 44
39 10 54 5 87 -30z m-1291 -25 c63 -13 48 -29 -20 -22 -22 2 -42 -1 -44 -7 -9
-26 -16 7 -9 46 6 37 8 40 13 19 5 -21 15 -27 60 -36z m67 50 c-3 -3 -12 -4
-19 -1 -8 3 -5 6 6 6 11 1 17 -2 13 -5z m113 -9 c0 -8 -4 -15 -8 -15 -5 0 -9
7 -9 15 0 8 4 15 9 15 4 0 8 -7 8 -15z m80 -3 c-8 -3 -21 -9 -27 -15 -10 -7
-13 -4 -13 10 0 17 5 19 28 15 16 -3 21 -7 12 -10z m863 -30 c-3 -12 -9 -22
-14 -22 -5 0 -6 6 -3 14 3 8 1 17 -5 21 -6 3 -11 11 -11 16 0 6 5 7 10 4 6 -3
10 0 10 7 1 9 4 8 10 -3 5 -8 6 -25 3 -37z m801 32 c9 -24 8 -26 -16 -18 -32
9 -35 14 -18 24 21 13 27 12 34 -6z m-835 -30 c7 5 9 1 5 -9 -5 -12 -9 -13
-20 -4 -8 6 -14 17 -14 23 0 6 4 5 9 -3 5 -7 14 -11 20 -7z m-3321 -7 c6 -7
12 -32 13 -55 2 -27 10 -49 23 -60 14 -12 17 -13 11 -2 -8 13 -7 13 8 1 17
-14 23 -46 10 -54 -21 -11 -64 -17 -58 -8 3 6 -1 41 -10 78 -25 106 -26 113
-16 113 5 0 13 -6 19 -13z m3052 -33 c13 -32 13 -44 0 -44 -5 0 -10 9 -10 19
0 22 -25 34 -51 26 -13 -4 -19 -1 -19 9 0 12 10 16 35 16 29 0 37 -5 45 -26z
m-5670 6 c0 -5 -5 -10 -11 -10 -5 0 -7 5 -4 10 3 6 8 10 11 10 2 0 4 -4 4 -10z
m1325 -6 c-11 -8 -19 -19 -18 -23 1 -5 -11 -21 -27 -36 -33 -32 -38 -45 -15
-45 22 0 39 -38 24 -56 -21 -26 -63 -13 -64 21 0 21 -29 9 -37 -15 -5 -16 -6
-10 -2 19 10 88 63 150 129 150 29 0 29 0 10 -15z m530 -14 c8 -16 15 -52 15
-80 0 -49 -1 -50 -30 -50 -33 0 -38 11 -14 31 13 11 15 26 11 71 -3 32 -3 58
-1 58 2 0 10 -13 19 -30z m3502 14 c-3 -3 -12 -4 -19 -1 -8 3 -5 6 6 6 11 1
17 -2 13 -5z m1710 -16 c-3 -8 -6 -5 -6 6 -1 11 2 17 5 13 3 -3 4 -12 1 -19z
m-1219 -1 c23 2 32 -1 29 -10 -5 -16 -97 -19 -97 -3 0 19 12 27 24 18 6 -5 26
-7 44 -5z m-698 -7 c0 -5 -2 -10 -4 -10 -3 0 -8 5 -11 10 -3 6 -1 10 4 10 6 0
11 -4 11 -10z m415 0 c-28 -12 -65 -12 -65 0 0 6 19 10 43 9 32 0 37 -2 22 -9z
m45 0 c0 -5 -2 -10 -4 -10 -3 0 -8 5 -11 10 -3 6 -1 10 4 10 6 0 11 -4 11 -10z
m760 -6 c0 -8 -4 -12 -10 -9 -5 3 -10 10 -10 16 0 5 5 9 10 9 6 0 10 -7 10
-16z m-1174 -19 c-5 -14 22 -25 61 -25 12 0 23 -4 25 -10 2 -5 25 -14 51 -19
27 -5 45 -5 40 -1 -4 5 -19 10 -33 12 -18 2 -25 9 -26 26 -1 19 3 23 20 18 11
-3 30 -6 41 -6 23 0 9 -16 -20 -23 -16 -4 -14 -5 6 -6 25 -1 39 -17 39 -45 0
-9 -25 -11 -95 -9 -87 3 -96 2 -117 -19 l-23 -23 -3 23 c-5 34 18 133 29 126
6 -3 8 -12 5 -19z m60 2 c4 -4 -5 -7 -19 -7 -15 0 -27 4 -27 10 0 11 35 8 46
-3z m1264 3 c8 -5 11 -12 7 -17 -5 -4 -12 -2 -16 5 -4 8 -15 10 -26 6 -13 -5
-16 -4 -11 4 9 14 26 15 46 2z m-6570 -9 c0 -6 -4 -13 -10 -16 -5 -3 -10 1
-10 9 0 9 5 16 10 16 6 0 10 -4 10 -9z m750 -1 c10 -5 23 -24 29 -41 12 -34
16 -157 5 -146 -4 3 -6 27 -6 52 1 31 -3 45 -12 45 -23 0 -39 -27 -28 -47 12
-22 5 -70 -14 -98 -12 -17 -14 -17 -14 -2 0 9 -5 17 -11 17 -6 0 -9 -7 -5 -15
3 -8 2 -15 -3 -15 -15 0 -52 34 -54 50 -2 8 -6 20 -10 27 -4 6 -3 33 3 58 6
26 8 62 4 80 -5 27 -2 34 13 38 33 9 84 7 103 -3z m1878 -18 c5 -31 -15 -27
-21 3 -3 16 0 24 7 22 6 -2 12 -13 14 -25z m2852 18 c0 -5 -5 -10 -11 -10 -5
0 -7 5 -4 10 3 6 8 10 11 10 2 0 4 -4 4 -10z m50 6 c0 -3 -4 -8 -10 -11 -5 -3
-10 -1 -10 4 0 6 5 11 10 11 6 0 10 -2 10 -4z m1876 -5 c-3 -5 -15 -7 -26 -4
-28 7 -25 13 6 13 14 0 23 -4 20 -9z m-982 -17 c3 -8 2 -12 -4 -9 -6 3 -10 10
-10 16 0 14 7 11 14 -7z m686 -28 c0 -13 -7 -30 -16 -37 -15 -12 -16 -11 -10
9 7 20 4 22 -33 22 -23 0 -41 4 -41 9 0 4 11 6 24 4 13 -3 32 0 43 6 27 16 33
13 33 -13z m85 8 c-19 -15 -18 -16 22 -10 35 5 41 4 37 -9 -5 -12 0 -14 27 -9
33 5 33 5 14 -11 -13 -11 -33 -15 -57 -13 -21 2 -38 0 -38 -4 0 -5 -9 -8 -20
-8 -14 0 -18 5 -14 18 5 14 3 14 -11 -3 -16 -19 -16 -19 -9 10 7 33 29 55 53
55 13 -1 12 -4 -4 -16z m-4220 -4 c3 -5 1 -10 -4 -10 -6 0 -11 5 -11 10 0 6 2
10 4 10 3 0 8 -4 11 -10z m3642 -6 c-3 -3 -12 -4 -19 -1 -8 3 -5 6 6 6 11 1
17 -2 13 -5z m176 -15 c-4 -16 -8 -17 -14 -7 -13 19 -11 28 5 28 9 0 12 -7 9
-21z m-4230 0 c-6 -6 -9 -19 -6 -28 4 -12 3 -13 -6 -5 -13 12 -5 44 12 44 8 0
8 -3 0 -11z m64 -21 c-3 -7 -5 -2 -5 12 0 14 2 19 5 13 2 -7 2 -19 0 -25z
m3281 22 c6 0 12 -5 12 -11 0 -8 -12 -10 -35 -6 -28 5 -35 2 -36 -11 0 -11 -2
-12 -6 -4 -10 24 6 45 30 38 12 -3 28 -6 35 -6z m516 4 c17 -6 22 -24 8 -24
-5 0 -17 7 -28 15 -19 15 -8 20 20 9z m114 0 c34 -10 26 -24 -10 -17 -39 7
-61 23 -32 23 10 0 29 -3 42 -6z m202 -4 c0 -5 -17 -7 -37 -4 -52 6 -54 14 -5
14 23 0 42 -4 42 -10z m-3711 -16 c3 -4 0 -9 -6 -11 -7 -3 -13 -20 -13 -38 0
-19 -5 -37 -10 -40 -6 -4 -8 -10 -6 -14 3 -4 -2 -18 -12 -32 l-16 -23 -7 24
-7 25 -1 -24 c-1 -20 -3 -21 -16 -11 -11 9 -15 9 -15 1 0 -7 -4 -10 -9 -7 -5
4 -11 0 -14 -6 -3 -10 -8 -10 -17 -2 -16 16 -50 6 -43 -12 3 -8 -1 -14 -11
-14 -10 0 -16 9 -16 25 0 15 6 25 15 25 20 0 85 32 85 42 0 4 12 8 26 8 25 0
26 1 19 51 l-7 52 37 -6 c21 -3 40 -9 44 -13z m3576 6 c3 -5 -1 -10 -10 -10
-9 0 -13 5 -10 10 3 6 8 10 10 10 2 0 7 -4 10 -10z m-630 -29 c-6 -5 -25 10
-25 20 0 5 6 4 14 -3 8 -7 12 -15 11 -17z m-4114 -103 c12 -10 30 -18 40 -18
38 0 18 -19 -28 -26 -106 -18 -309 4 -284 29 6 6 12 25 12 41 l2 31 4 -29 5
-29 60 7 c34 3 70 6 80 6 11 0 16 5 13 11 -4 5 -21 9 -37 7 -17 -2 -33 2 -35
9 -2 7 8 13 24 15 20 2 29 9 31 26 3 17 10 22 32 22 16 0 32 6 37 13 4 7 11
-10 15 -43 6 -37 15 -61 29 -72z m4572 75 c-9 -58 -23 -64 -23 -10 0 34 4 47
14 47 11 0 13 -9 9 -37z m95 31 c27 -8 29 -24 2 -31 -36 -10 -21 -31 33 -46
55 -16 151 -37 167 -37 6 0 10 4 10 10 0 5 -18 13 -40 16 -22 4 -43 11 -46 16
-4 6 1 8 12 4 11 -3 36 -6 57 -8 33 -2 38 -5 33 -23 -3 -11 -6 -28 -6 -37 0
-14 -7 -16 -37 -11 -21 3 -53 14 -70 25 -19 11 -54 20 -82 21 -49 2 -50 3 -61
42 -6 22 -14 46 -16 53 -6 13 8 15 44 6z m412 2 c0 -3 -4 -8 -10 -11 -5 -3
-10 -1 -10 4 0 6 5 11 10 11 6 0 10 -2 10 -4z m-1430 -39 c0 -5 -4 -5 -10 -2
-5 3 -10 14 -10 23 0 15 2 15 10 2 5 -8 10 -19 10 -23z m1140 8 l55 -13 -50
-2 c-34 -1 -44 -4 -31 -9 13 -5 16 -10 8 -15 -6 -3 -26 0 -44 8 -18 8 -28 15
-21 15 7 1 10 8 7 16 -7 18 4 18 76 0z m-1090 -5 c12 -8 11 -10 -7 -10 -13 0
-23 5 -23 10 0 13 11 13 30 0z m-4652 -7 c-10 -2 -28 -2 -40 0 -13 2 -5 4 17
4 22 1 32 -1 23 -4z m34 -37 c-4 -41 -6 -45 -38 -50 -33 -7 -74 6 -74 23 0 4
17 7 38 6 52 -2 62 3 62 36 0 16 3 29 8 29 4 0 6 -20 4 -44z m1158 40 c0 -3
-4 -8 -10 -11 -5 -3 -10 -1 -10 4 0 6 5 11 10 11 6 0 10 -2 10 -4z m477 -2
c-3 -3 -12 -4 -19 -1 -8 3 -5 6 6 6 11 1 17 -2 13 -5z m3468 -14 c-3 -5 -10
-10 -16 -10 -5 0 -9 5 -9 10 0 6 7 10 16 10 8 0 12 -4 9 -10z m422 -27 c-3
-10 -5 -4 -5 12 0 17 2 24 5 18 2 -7 2 -21 0 -30z m505 22 c8 8 58 -13 58 -24
0 -5 -12 -5 -30 2 -34 13 -49 4 -30 -18 8 -9 21 -13 35 -9 28 7 39 -11 50 -73
l7 -43 -34 6 c-18 3 -41 7 -50 9 -9 1 -19 -3 -22 -11 -4 -10 3 -14 22 -15 23
0 24 -2 7 -8 -11 -5 -30 -2 -45 6 -14 7 -40 13 -57 13 -18 0 -33 5 -33 11 0 7
14 8 41 4 39 -7 40 -6 27 14 -7 11 -17 20 -23 19 -28 -4 -62 22 -72 56 -6 20
-7 36 -2 36 5 0 9 -4 9 -10 0 -5 12 -10 28 -10 15 0 40 -7 56 -15 50 -26 53
-20 29 60 -5 17 -3 18 9 8 8 -7 17 -10 20 -8z m308 -5 c0 -5 -5 -10 -11 -10
-5 0 -7 5 -4 10 3 6 8 10 11 10 2 0 4 -4 4 -10z m-203 -32 c-3 -8 -6 -5 -6 6
-1 11 2 17 5 13 3 -3 4 -12 1 -19z m417 -12 c-7 -28 -24 -36 -24 -11 0 15 22
46 28 40 2 -1 0 -14 -4 -29z m-181 17 c-7 -2 -19 -2 -25 0 -7 3 -2 5 12 5 14
0 19 -2 13 -5z m-3967 -58 c1 -19 -2 -33 -7 -29 -5 3 -9 21 -9 41 0 45 12 36
16 -12z m-1363 18 c-7 -2 -21 -2 -30 0 -10 3 -4 5 12 5 17 0 24 -2 18 -5z
m4817 -19 c0 -8 -4 -14 -10 -14 -5 0 -10 9 -10 21 0 11 5 17 10 14 6 -3 10
-13 10 -21z m597 -44 c-6 -67 -8 -73 -64 -140 -32 -39 -59 -66 -61 -61 -2 5 5
18 15 29 32 34 53 62 53 71 0 5 -32 15 -71 21 -39 7 -82 18 -96 25 -14 7 -32
11 -39 8 -8 -3 -14 1 -14 9 0 23 11 28 32 17 30 -16 125 -39 161 -39 30 1 31
1 13 15 -19 15 -19 15 5 15 22 1 22 2 6 11 -11 7 -23 7 -28 2 -8 -8 -69 -3
-145 12 -26 6 -30 10 -26 31 2 14 10 23 16 21 6 -2 55 -12 108 -22 104 -20
128 -15 128 26 0 11 3 19 6 19 4 0 4 -32 1 -70z m-769 54 c12 -4 22 -10 22
-14 0 -8 -58 4 -68 15 -7 7 17 6 46 -1z m-4070 -41 c-2 -21 2 -28 17 -31 31
-6 54 -32 61 -68 3 -19 10 -36 14 -39 8 -5 -3 -75 -19 -117 -12 -31 -41 -37
-61 -13 -10 12 -10 21 -2 40 7 14 16 25 21 25 9 0 8 25 -4 78 -9 36 -25 15
-25 -32 0 -58 -18 -107 -38 -104 -24 5 -25 -19 -3 -41 l21 -21 -26 0 c-41 0
-89 -28 -139 -81 -25 -27 -50 -49 -56 -49 -9 0 -170 59 -177 65 -5 5 32 110
40 113 4 2 14 25 23 53 l17 49 47 0 c38 0 57 7 91 32 27 19 45 27 48 20 8 -26
30 -9 59 48 26 49 33 57 43 45 8 -10 9 -19 3 -27 -6 -7 -8 -30 -5 -51 3 -28 8
-37 21 -35 11 2 15 11 12 28 -4 25 -5 75 -2 118 0 12 6 22 11 22 6 0 9 -12 8
-27z m3989 5 c-3 -8 -6 -5 -6 6 -1 11 2 17 5 13 3 -3 4 -12 1 -19z m-5557 -8
c0 -5 -4 -10 -10 -10 -5 0 -10 5 -10 10 0 6 5 10 10 10 6 0 10 -4 10 -10z
m2370 -22 c0 -20 44 -108 54 -108 4 0 3 7 -4 15 -10 12 -9 16 4 21 12 4 13 10
6 24 -19 35 -10 37 24 5 22 -20 37 -46 42 -70 l7 -37 21 39 c18 31 27 38 55
40 19 1 37 7 41 13 4 7 14 10 21 8 8 -3 19 2 26 11 9 12 10 1 6 -49 -7 -89 7
-102 122 -108 l85 -5 60 -67 c41 -46 60 -76 60 -94 0 -18 5 -26 18 -27 10 0
12 -3 5 -6 -16 -6 -17 -40 -2 -45 6 -2 17 -20 24 -40 11 -32 10 -38 -7 -52
-10 -9 -18 -11 -18 -6 0 10 -11 2 -75 -52 -38 -32 -50 -35 -41 -11 4 10 4 14
0 11 -3 -4 -13 -1 -20 7 -8 7 -19 15 -25 17 -7 2 -12 18 -12 36 0 18 -4 32 -9
32 -4 0 -8 -27 -8 -59 0 -33 -4 -63 -10 -66 -5 -3 -10 -14 -10 -23 1 -28 30
17 31 47 1 17 3 20 6 9 2 -10 13 -18 24 -18 10 0 19 -4 19 -9 0 -5 -7 -8 -16
-7 -9 0 -19 -5 -22 -13 -3 -10 0 -12 12 -8 9 4 16 2 16 -3 0 -6 -6 -10 -12
-10 -7 0 -26 -7 -42 -15 -37 -20 -42 -14 -28 34 7 21 11 54 11 72 l-1 34 -9
-40 c-5 -22 -12 -59 -15 -82 -4 -24 -11 -43 -15 -43 -12 0 -11 53 0 66 5 5 12
38 16 74 4 53 3 61 -6 40 l-11 -25 -16 35 -15 35 -12 -72 c-6 -40 -13 -74 -16
-77 -2 -3 -15 22 -29 55 -14 32 -30 59 -37 59 -7 0 -15 -21 -18 -47 -4 -27
-11 -63 -15 -82 -8 -27 -5 -40 11 -63 18 -25 19 -29 4 -34 -38 -15 -70 54 -54
120 4 17 7 23 8 14 1 -10 7 -18 15 -18 12 0 13 7 3 42 -16 53 -37 62 -37 16
-1 -31 -1 -32 -15 -14 -21 27 -29 13 -16 -25 6 -18 11 -39 10 -48 0 -9 -6 -1
-12 16 -14 37 -30 45 -35 17 -6 -31 -22 -41 -22 -13 -1 25 -26 67 -35 57 -3
-3 3 -27 13 -54 24 -62 35 -117 22 -109 -6 3 -10 11 -10 17 0 20 -34 88 -43
88 -9 0 -6 -17 8 -54 7 -16 4 -16 -33 5 -48 28 -65 19 -32 -16 24 -26 21 -29
-17 -19 -13 4 -20 10 -18 15 3 4 -11 5 -31 2 -36 -6 -37 -5 -30 20 4 16 2 27
-4 27 -5 0 -10 -4 -10 -9 0 -5 -9 -20 -20 -33 -34 -40 -90 -127 -90 -140 -1
-35 -45 83 -84 225 -17 61 -20 87 -12 91 6 2 1 5 -11 5 -34 1 -28 21 7 21 34
0 37 3 93 90 38 59 47 66 100 83 l57 20 0 68 c0 38 4 69 9 69 5 0 21 3 37 6
l29 6 -3 -62 c-4 -56 -2 -61 15 -58 15 3 19 14 21 63 2 39 8 63 18 68 11 7 8
13 -15 33 -16 13 -32 36 -35 51 -4 16 -9 36 -12 46 -3 9 -1 17 5 17 6 0 11 -6
11 -12z m3417 -20 c-3 -8 -6 -5 -6 6 -1 11 2 17 5 13 3 -3 4 -12 1 -19z m847
-31 c-14 -26 -30 -47 -35 -47 -5 0 -9 -6 -9 -14 0 -15 -29 -30 -38 -21 -3 3 4
16 17 28 12 12 36 41 53 65 39 55 46 49 12 -11z m-2987 17 c2 -5 -6 -10 -17
-11 -20 -2 -26 8 -13 21 9 8 26 3 30 -10z m-1383 -8 c-11 -8 -34 -18 -50 -21
-28 -7 -28 -6 6 13 42 23 75 29 44 8z m1442 -7 c19 -21 19 -21 -9 -8 -15 7
-27 16 -27 21 0 14 16 9 36 -13z m-2596 -25 c0 -14 -4 -23 -10 -19 -5 3 -10
15 -10 26 0 10 5 19 10 19 6 0 10 -12 10 -26z m5049 -34 c0 -9 -4 -8 -9 5 -5
11 -9 27 -9 35 0 9 4 8 9 -5 5 -11 9 -27 9 -35z m-5972 18 c-3 -8 -6 -5 -6 6
-1 11 2 17 5 13 3 -3 4 -12 1 -19z m1733 -8 c0 -5 -4 -10 -10 -10 -5 0 -10 5
-10 10 0 6 5 10 10 10 6 0 10 -4 10 -10z m1815 0 c3 -5 1 -10 -4 -10 -6 0 -11
5 -11 10 0 6 2 10 4 10 3 0 8 -4 11 -10z m2525 0 c24 -8 24 -8 -5 -9 -16 0
-37 4 -45 9 -12 8 -11 10 5 9 11 -1 31 -5 45 -9z m-6180 -17 c0 -12 -3 -14 -8
-7 -4 7 -16 14 -27 17 -15 4 -14 5 8 6 20 1 27 -4 27 -16z m5183 10 c-7 -2
-19 -2 -25 0 -7 3 -2 5 12 5 14 0 19 -2 13 -5z m1042 -22 c-7 -22 -39 -29 -50
-10 -4 6 -1 10 6 8 24 -3 39 1 38 9 -3 15 1 25 7 19 3 -3 3 -15 -1 -26z
m-6387 0 c12 -11 22 -22 22 -26 0 -4 -7 -1 -17 6 -13 11 -17 11 -20 2 -3 -7
-9 -13 -14 -13 -6 0 -7 5 -4 10 3 6 3 15 -1 22 -5 8 -11 6 -20 -6 -7 -10 -15
-13 -18 -7 -4 6 -18 6 -39 0 -53 -15 -65 -10 -22 10 52 25 104 25 133 2z
m1842 3 c0 -2 -7 -4 -15 -4 -8 0 -15 4 -15 10 0 5 7 7 15 4 8 -4 15 -8 15 -10z
m-1673 -36 c-3 -8 -6 -5 -6 6 -1 11 2 17 5 13 3 -3 4 -12 1 -19z m6486 -64
c11 -4 27 -13 34 -20 11 -10 7 -12 -24 -7 -24 3 -45 15 -56 29 -11 15 -29 24
-45 24 -19 0 -23 3 -13 9 7 5 21 6 31 4 10 -3 21 1 26 8 5 9 10 5 17 -14 4
-14 18 -29 30 -33z m-313 13 c0 -11 3 -17 6 -14 4 4 20 -5 36 -18 16 -14 36
-25 44 -25 18 0 18 -19 0 -26 -17 -6 -72 20 -78 37 -2 7 -30 14 -61 17 -59 5
-68 14 -42 42 10 11 26 14 55 12 32 -3 40 -8 40 -25z m246 -32 c9 -25 19 -32
59 -42 54 -14 65 -11 65 17 0 10 4 22 10 25 12 8 1 -55 -13 -73 -19 -24 -123
3 -211 54 -27 16 -11 38 16 23 17 -9 20 -9 15 4 -7 19 -2 24 25 23 16 -1 26
-10 34 -31z m226 -5 c15 -13 33 -14 86 -9 46 5 69 3 74 -5 5 -7 -3 -13 -20
-16 -27 -6 -27 -6 7 -13 24 -5 37 -3 43 5 6 10 8 9 8 -2 0 -8 -5 -22 -10 -30
-5 -8 -10 -10 -10 -4 0 6 -34 15 -81 21 -74 8 -82 7 -86 -8 -3 -11 -17 -18
-39 -21 -30 -3 -34 -1 -34 18 0 13 4 25 9 28 5 3 12 23 16 43 4 21 10 31 12
23 3 -8 14 -22 25 -30z m265 8 c-3 -8 -6 -5 -6 6 -1 11 2 17 5 13 3 -3 4 -12
1 -19z m-6880 -50 c-3 -8 -6 -5 -6 6 -1 11 2 17 5 13 3 -3 4 -12 1 -19z m2927
-17 c8 -13 -4 -42 -15 -35 -12 7 -12 44 0 44 6 0 12 -4 15 -9z m-2937 -35
c-20 -15 -16 -20 24 -29 42 -10 68 -91 32 -99 -21 -5 -62 34 -80 75 -7 15 -13
30 -13 32 0 9 32 35 43 35 7 0 4 -7 -6 -14z m3843 -108 c-1 -39 -3 -49 -10
-36 -6 9 -8 31 -6 50 6 40 5 38 11 38 3 0 5 -24 5 -52z m890 37 c0 -8 -4 -15
-10 -15 -5 0 -10 7 -10 15 0 8 5 15 10 15 6 0 10 -7 10 -15z m-13 -72 c-3 -3
-11 -2 -17 2 -8 5 -7 11 2 22 12 15 13 14 16 -1 2 -10 1 -20 -1 -23z m118 -2
c3 -5 1 -12 -5 -16 -5 -3 -10 1 -10 9 0 18 6 21 15 7z m-1025 -31 c0 -5 -5
-10 -11 -10 -5 0 -7 5 -4 10 3 6 8 10 11 10 2 0 4 -4 4 -10z m-3090 -4 c0 -2
-7 -7 -16 -10 -8 -3 -12 -2 -9 4 6 10 25 14 25 6z m1924 -94 c-4 -26 -6 -57
-5 -69 2 -15 -3 -23 -14 -23 -24 0 -29 28 -11 66 9 19 16 51 16 72 1 31 2 34
11 19 7 -12 8 -36 3 -65z m2187 -69 l47 -22 -12 -36 c-7 -19 -15 -37 -18 -41
-3 -3 -38 -7 -77 -8 l-71 -3 6 86 c2 47 7 105 10 129 l5 42 32 -62 c27 -53 39
-67 78 -85z m-2268 11 l-6 -57 -24 28 c-17 20 -23 35 -19 52 3 12 9 35 12 51
12 55 16 58 29 20 9 -24 12 -58 8 -94z m442 -65 c6 -17 -2 -23 -57 -39 -30 -9
-31 -8 -29 45 2 42 22 168 29 179 3 6 16 -30 28 -80 12 -49 25 -96 29 -105z
m226 168 c-10 -9 -11 -8 -5 6 3 10 9 15 12 12 3 -3 0 -11 -7 -18z m100 -44 c6
-18 6 -30 -2 -39 -18 -22 -32 -16 -27 10 4 17 1 23 -9 19 -16 -6 -17 2 -2 28
12 23 27 17 40 -18z m-134 -45 c-3 -8 -6 -5 -6 6 -1 11 2 17 5 13 3 -3 4 -12
1 -19z m-783 -30 c7 -31 26 -38 26 -10 0 14 2 15 10 2 17 -27 11 -36 -27 -35
-34 0 -38 3 -41 28 -3 25 19 72 24 51 1 -5 5 -21 8 -36z m178 -26 c-9 -26 -25
6 -17 35 l8 28 7 -25 c4 -14 5 -31 2 -38z m1953 18 c3 -5 -14 -14 -37 -21 -24
-6 -53 -15 -66 -20 -35 -14 -49 -11 -32 6 16 16 85 43 112 44 9 1 19 -3 23 -9z
m-2225 -20 c0 -5 -2 -10 -4 -10 -3 0 -8 5 -11 10 -3 6 -1 10 4 10 6 0 11 -4
11 -10z m2323 -10 c4 -15 0 -20 -14 -20 -17 0 -18 3 -9 20 6 11 12 20 14 20 2
0 6 -9 9 -20z m-1593 -62 c0 -18 -5 -50 -11 -71 -6 -21 -11 -67 -12 -103 -2
-64 -2 -64 -32 -65 -16 -1 -39 0 -50 1 -13 1 -16 -2 -10 -8 16 -15 156 -2 162
15 14 35 53 63 108 78 78 20 81 19 80 -11 0 -22 -8 -29 -50 -45 -27 -10 -58
-19 -67 -19 -25 0 -22 -8 13 -38 42 -35 99 -154 99 -207 0 -109 -86 -242 -186
-286 -49 -22 -53 -22 -58 7 -2 11 -11 39 -20 64 -10 28 -12 48 -6 56 6 6 13
31 16 56 5 39 3 49 -16 68 -12 12 -26 34 -31 48 -11 32 -72 77 -93 69 -11 -4
-13 -1 -9 11 7 20 -3 11 -35 -32 -12 -16 -22 -22 -22 -15 0 8 9 25 20 39 11
14 20 39 21 55 0 17 3 24 6 17 3 -9 13 -6 32 10 27 22 27 24 13 54 -18 38 -9
222 11 221 7 0 26 1 42 2 29 3 30 3 5 10 -24 7 -23 8 20 28 60 28 60 28 60 -9z
m1310 20 c0 -4 -17 -19 -39 -32 -21 -14 -48 -37 -61 -53 -23 -30 -66 -42 -56
-16 3 8 6 20 6 27 0 8 23 23 52 35 65 27 58 36 -13 15 -66 -18 -109 -24 -109
-13 0 14 37 29 72 29 18 0 40 5 48 10 17 12 100 10 100 -2z m540 -39 c0 -17 5
-39 11 -50 7 -14 7 -35 -2 -74 -10 -44 -9 -57 1 -70 17 -20 6 -98 -20 -153
-11 -23 -20 -46 -20 -51 0 -13 -67 -81 -80 -81 -5 0 -15 -8 -22 -17 -7 -10
-29 -19 -48 -21 l-34 -3 22 24 c37 39 24 43 -15 5 -40 -38 -105 -78 -127 -78
-37 0 -148 170 -171 263 l-7 26 -33 -25 c-24 -18 -34 -21 -38 -12 -3 10 -9 10
-28 -1 -30 -18 -87 -31 -105 -24 -27 10 -15 33 16 33 17 0 48 9 68 19 20 10
57 24 82 31 25 7 47 15 50 19 10 13 125 86 133 83 4 -1 10 5 13 13 4 8 16 15
28 15 12 0 27 9 33 19 10 15 29 21 97 26 72 6 87 11 105 31 12 13 25 24 31 24
5 0 16 14 25 30 20 39 35 38 35 -1z m-4620 -71 c30 -99 38 -115 69 -128 22 -9
26 -17 28 -56 1 -41 0 -44 -13 -27 -12 16 -15 16 -24 3 -12 -19 -46 0 -42 24
2 9 -1 24 -7 34 -8 15 -11 14 -20 -10 -11 -29 -30 -38 -32 -15 0 9 -2 9 -6 0
-3 -10 -8 -10 -19 1 -8 8 -14 20 -14 26 0 6 -18 29 -40 52 l-41 40 61 57 c33
31 60 62 60 69 0 31 19 -3 40 -70z m4136 37 c-9 -7 -16 -16 -16 -21 0 -5 -9
-15 -20 -22 -11 -7 -20 -21 -20 -33 0 -11 -13 -34 -30 -51 -16 -16 -30 -33
-30 -38 0 -4 -10 -10 -23 -14 -13 -3 -40 -17 -61 -31 -36 -24 -36 -24 -25 -2
18 33 68 95 126 155 29 30 51 59 50 64 -1 6 5 13 13 15 13 4 13 3 0 -6 -8 -6
-10 -11 -5 -11 6 1 19 7 30 16 14 11 21 11 24 3 2 -7 -4 -18 -13 -24z m-252
-19 c-3 -14 -10 -26 -15 -26 -5 0 -6 7 -4 15 3 8 7 22 10 31 9 27 17 9 9 -20z
m139 -16 c-41 -44 -54 -46 -27 -5 14 22 38 39 62 44 1 1 -15 -17 -35 -39z
m-5040 -46 c-44 -20 -73 -39 -73 -49 0 -8 -4 -15 -8 -15 -5 0 -15 -12 -22 -27
-17 -37 -25 -13 -10 30 9 29 22 39 78 65 37 18 76 31 87 31 11 0 -13 -16 -52
-35z m4122 -34 c3 -5 -3 -10 -15 -10 -12 0 -18 5 -15 10 3 6 10 10 15 10 5 0
12 -4 15 -10z m-2950 -145 c-14 -21 -25 -34 -25 -29 0 14 41 77 46 71 3 -2 -6
-22 -21 -42z m2345 9 c12 -31 13 -74 1 -74 -4 0 -6 11 -4 24 4 17 -2 30 -16
42 -25 22 -27 34 -6 34 9 0 20 -12 25 -26z m-60 -19 c0 -8 7 -15 15 -15 25 0
17 -16 -20 -41 -19 -13 -40 -38 -45 -55 -6 -17 -24 -44 -40 -59 -22 -21 -30
-38 -30 -64 0 -24 -3 -32 -9 -22 -5 7 -6 22 -3 33 3 13 0 19 -9 17 -12 -3
-139 110 -139 123 0 3 12 8 28 11 15 2 50 12 77 22 66 24 65 23 105 45 43 23
70 25 70 5z m-2962 -52 c17 -13 32 -32 32 -42 0 -19 -49 -71 -68 -71 -17 0
-15 7 10 40 21 29 21 30 3 50 -10 11 -26 22 -36 25 -11 4 -19 13 -19 21 0 20
34 10 78 -23z m5930 -48 c-3 -3 -9 2 -12 12 -6 14 -5 15 5 6 7 -7 10 -15 7
-18z m-5078 -13 c0 -5 -8 -17 -19 -26 -10 -9 -22 -31 -25 -48 -4 -23 -9 -29
-17 -21 -10 10 7 57 33 91 12 14 28 16 28 4z m2155 -134 c-24 -70 -50 -138
-57 -150 -7 -13 -18 -41 -24 -63 l-10 -40 -18 74 c-14 56 -17 90 -11 145 4 39
8 84 8 100 2 28 7 31 72 51 39 12 73 19 77 16 3 -3 -13 -63 -37 -133z m2905
65 c0 -5 -7 -17 -15 -27 -15 -20 -20 -10 -9 18 6 16 24 22 24 9z m-3337 -28
c23 -32 17 -32 -13 0 -13 14 -19 25 -14 25 5 0 17 -12 27 -25z m3279 -77 c-2
-5 -14 -8 -28 -8 -23 0 -24 1 -9 16 9 9 19 30 23 48 l7 31 5 -40 c3 -22 4 -43
2 -47z m-3172 -58 c6 -11 14 -44 17 -73 l5 -52 -24 35 c-13 19 -29 52 -35 73
-10 33 -9 37 8 37 10 0 23 -9 29 -20z m148 -84 l43 -31 -6 -57 c-7 -69 1 -109
21 -101 8 3 14 -1 14 -11 0 -8 8 -31 17 -50 23 -49 70 -69 160 -70 69 -1 86
-7 63 -21 -5 -3 -10 -16 -10 -28 0 -12 -7 -40 -14 -62 -11 -31 -16 -36 -21
-22 -4 9 -12 17 -17 17 -21 0 -116 -143 -148 -222 -22 -53 -25 -56 -40 -43 -9
8 -19 13 -22 10 -2 -3 -5 2 -5 10 0 8 4 12 9 9 4 -3 8 -1 8 5 0 5 -5 13 -12
17 -13 9 -39 -23 -32 -40 3 -7 -3 -13 -12 -13 -14 0 -16 13 -12 104 l3 103
-44 -43 c-66 -63 -72 -67 -81 -67 -5 0 1 17 13 38 19 32 22 53 24 162 1 69 3
134 4 145 1 11 -2 49 -5 85 -4 36 -8 97 -10 135 -2 39 -7 83 -11 98 l-8 29 44
-28 c24 -15 63 -41 87 -58z m2911 32 c-6 -12 -17 -26 -23 -30 -6 -4 -11 -15
-11 -25 0 -10 -8 -19 -18 -21 -21 -4 -23 26 -2 34 10 4 14 14 10 28 -5 17 -4
18 4 6 9 -12 11 -11 11 7 0 12 7 23 18 25 24 6 25 3 11 -24z m-1322 -24 c-3
-3 -12 -4 -19 -1 -8 3 -5 6 6 6 11 1 17 -2 13 -5z m-3649 -31 c-5 -25 -28 -28
-28 -4 0 12 6 21 16 21 9 0 14 -7 12 -17z m-188 -54 c0 -5 -4 -9 -10 -9 -5 0
-10 7 -10 16 0 8 5 12 10 9 6 -3 10 -10 10 -16z m2034 -59 l7 -25 -15 25 c-17
28 -21 50 -7 35 5 -6 12 -21 15 -35z m-1245 -22 c-16 -32 -81 -98 -95 -98 -7
0 -14 7 -17 15 -4 9 14 30 51 59 64 51 78 56 61 24z m1172 5 c0 -11 3 -13 6
-5 8 20 20 14 33 -18 12 -28 10 -33 -11 -56 -27 -29 -34 -22 -44 49 -5 32 -4
47 4 47 6 0 11 -8 12 -17z m-1065 -50 c-18 -36 -53 -73 -68 -73 -7 0 0 12 14
28 14 15 31 37 37 50 6 12 16 22 22 22 5 0 3 -12 -5 -27z m40 -43 l27 -11 -7
-91 c-4 -50 -8 -94 -10 -97 -2 -3 -7 -24 -10 -46 -21 -134 -29 -175 -43 -220
-21 -66 -85 -185 -99 -185 -7 0 -10 -8 -7 -19 8 -33 -29 -44 -126 -36 l-86 6
-33 -35 c-30 -32 -62 -50 -48 -27 4 5 -2 7 -12 4 -19 -5 -60 42 -43 49 9 3 14
46 12 100 -1 20 -5 26 -16 22 -22 -9 -19 3 12 43 17 22 23 38 17 40 -7 2 -10
14 -7 26 l5 22 -16 -22 c-9 -12 -13 -28 -10 -36 3 -8 -2 -21 -10 -30 -9 -9
-16 -23 -16 -31 0 -9 -4 -16 -9 -16 -4 0 -6 11 -4 24 3 16 -2 31 -16 45 -24
24 -22 41 15 166 25 85 103 215 143 239 16 10 9 -33 -16 -101 -8 -23 -13 -47
-11 -53 2 -6 15 18 28 54 34 88 40 95 101 111 30 8 55 19 57 25 2 5 23 10 46
10 57 0 149 28 140 42 -5 8 0 9 16 5 17 -4 20 -3 11 6 -11 11 -15 27 -7 27 3
0 17 -5 32 -10z m-756 -35 c0 -2 -11 -23 -25 -46 l-25 -44 1 50 c0 28 3 44 6
38 2 -7 9 -13 14 -13 4 0 6 7 3 15 -5 11 -2 13 10 9 9 -3 16 -7 16 -9z m1841
-3 c-5 -10 -17 -24 -25 -32 -23 -18 -22 7 1 32 21 23 37 23 24 0z m-11 -66 c0
-3 -4 -8 -10 -11 -5 -3 -10 -1 -10 4 0 6 5 11 10 11 6 0 10 -2 10 -4z m-2243
-41 c-3 -17 1 -30 13 -38 24 -17 47 -73 54 -130 3 -27 8 -53 12 -58 7 -12 61
-11 86 2 28 15 31 8 17 -45 -7 -30 -19 -51 -33 -58 -11 -6 -30 -19 -41 -29
-20 -18 -20 -17 -40 64 -10 45 -21 74 -23 65 -3 -15 5 -52 34 -151 4 -13 -4
-21 -30 -32 -44 -19 -68 -9 -86 35 -11 26 -10 33 4 49 21 23 20 34 -3 26 -20
-6 -57 38 -46 55 4 6 -1 13 -9 16 -21 8 -20 24 2 24 24 -1 48 -21 56 -48 11
-32 30 -28 21 6 -7 29 -31 55 -55 60 -8 2 -19 11 -24 19 -6 12 -10 12 -16 3
-4 -7 -13 -9 -19 -6 -14 9 -14 36 0 36 6 0 3 7 -6 16 -11 12 -13 20 -5 29 7 8
7 16 2 19 -14 9 -23 -22 -15 -52 l6 -26 -31 24 c-17 14 -31 28 -31 31 -1 3 20
17 47 32 26 14 67 39 92 56 56 38 74 40 67 6z m2259 -135 c6 -69 7 -70 21 -43
20 39 26 42 17 9 -5 -22 -3 -32 10 -41 20 -15 18 -34 -9 -57 -15 -13 -23 -14
-32 -5 -13 13 -33 207 -21 207 4 0 10 -32 14 -70z m87 -14 c-5 -22 -15 -42
-22 -44 -14 -5 -10 33 12 97 11 31 12 32 15 10 1 -13 -1 -42 -5 -63z m378 66
c-5 -10 -18 -25 -27 -33 -11 -9 -9 -2 6 19 26 35 36 42 21 14z m-1501 -29 c0
-5 -7 -28 -14 -53 l-15 -45 0 37 c-1 41 7 68 20 68 5 0 9 -3 9 -7z m1448 -48
c-6 -14 -13 -23 -15 -21 -5 5 15 46 22 46 3 0 -1 -11 -7 -25z m52 15 c0 -15
-42 -93 -62 -114 -10 -11 -18 -15 -18 -9 0 13 39 104 52 121 12 14 28 16 28 2z
m-652 -120 l-1 -45 -7 50 c-5 28 -8 66 -8 85 l0 35 9 -40 c4 -22 8 -60 7 -85z
m3095 -65 c25 -88 57 -202 71 -254 l25 -94 -34 -39 c-48 -52 -47 -56 25 -101
l35 -22 -389 -3 c-214 -1 -392 0 -395 3 -3 4 0 10 8 14 9 6 10 13 3 27 -6 11
-13 27 -16 37 -3 10 -20 24 -36 30 -17 6 -30 15 -30 19 0 5 29 22 64 40 62 30
64 32 76 85 7 29 14 87 14 128 l1 76 67 -7 c91 -9 156 8 226 61 31 23 80 54
107 68 28 14 68 41 90 60 22 19 41 34 41 34 1 -1 22 -74 47 -162z m-2956 133
c-3 -8 -6 -5 -6 6 -1 11 2 17 5 13 3 -3 4 -12 1 -19z m1783 -33 c12 -13 31
-48 41 -77 18 -52 18 -53 -3 -69 -25 -19 -20 -53 8 -57 16 -2 24 -15 33 -55
15 -66 61 -306 61 -321 0 -10 -44 -36 -62 -36 -4 0 -10 17 -14 38 -3 20 -16
53 -28 72 -13 19 -26 53 -29 75 -3 22 -24 103 -46 180 -21 77 -36 145 -31 150
4 6 13 36 20 68 6 31 15 57 19 57 4 0 18 -11 31 -25z m-1873 -67 c-3 -8 -6 -5
-6 6 -1 11 2 17 5 13 3 -3 4 -12 1 -19z m133 2 c0 -5 -5 -10 -11 -10 -5 0 -7
5 -4 10 3 6 8 10 11 10 2 0 4 -4 4 -10z m377 -12 c-3 -8 -6 -5 -6 6 -1 11 2
17 5 13 3 -3 4 -12 1 -19z m3628 -55 c53 -22 118 -59 152 -88 6 -5 30 -21 53
-35 22 -13 36 -26 31 -28 -6 -2 -18 4 -27 12 -19 20 -25 20 -18 2 6 -16 47
-36 74 -36 15 0 80 -53 80 -65 0 -3 -16 5 -36 17 l-36 21 -23 -29 c-13 -16
-27 -26 -31 -22 -4 5 1 17 11 28 18 20 17 20 -8 20 -17 0 -27 -6 -27 -14 0
-17 -118 -126 -137 -126 -15 0 -17 16 -3 25 6 4 8 11 5 16 -4 5 1 9 9 9 9 0
16 5 16 10 0 6 6 10 14 10 8 0 23 11 34 25 11 14 24 25 30 25 5 0 12 7 15 14
9 22 -19 9 -83 -40 -55 -41 -68 -49 -170 -99 -30 -16 -70 -39 -88 -53 -18 -14
-35 -22 -39 -19 -8 9 17 37 32 37 8 0 33 15 57 33 24 18 54 40 68 49 14 10 51
35 84 58 32 22 61 40 65 40 5 0 16 8 25 19 16 17 16 19 -6 24 -12 4 -29 0 -38
-7 -8 -7 -34 -24 -57 -36 -24 -13 -43 -27 -43 -32 0 -4 -5 -8 -11 -8 -6 0 -29
-13 -52 -29 -23 -15 -52 -31 -63 -35 -12 -4 -32 -15 -44 -26 -23 -20 -46 -27
-36 -11 3 4 48 37 101 72 52 35 93 69 91 75 -5 14 30 35 48 28 8 -3 17 -1 21
5 3 6 1 11 -4 11 -22 0 -10 20 20 36 21 10 28 19 21 26 -25 25 -223 -48 -239
-89 -3 -8 -12 -12 -21 -8 -13 5 -12 2 2 -14 17 -19 17 -19 -2 -14 -12 3 -22
-1 -25 -11 -4 -9 -13 -16 -22 -16 -9 0 -14 -8 -12 -22 2 -20 -3 -23 -38 -24
-36 -1 -86 -25 -132 -64 -16 -13 -50 -13 -58 0 -10 15 -35 12 -35 -5 0 -20
-39 -20 -46 0 -7 17 -44 21 -44 5 0 -5 -5 -10 -10 -10 -6 0 -31 -10 -57 -22
-33 -16 -48 -18 -51 -10 -2 7 -9 12 -17 12 -7 0 -18 7 -25 15 -10 12 -10 15 1
16 8 0 -5 9 -28 19 -34 15 -40 22 -36 39 5 19 2 20 -26 15 -39 -8 -41 7 -3 40
97 86 335 204 547 271 l100 32 70 -20 c39 -10 97 -30 130 -44z m-4328 35 c-3
-8 -6 -5 -6 6 -1 11 2 17 5 13 3 -3 4 -12 1 -19z m603 -10 c0 -16 -3 -19 -11
-11 -6 6 -8 16 -5 22 11 17 16 13 16 -11z m-1342 -12 c-7 -7 -19 -11 -25 -9
-7 3 -13 1 -13 -5 0 -6 6 -12 12 -14 9 -3 8 -10 -5 -22 -9 -10 -15 -21 -12
-25 5 -10 -43 -57 -50 -49 -3 3 8 35 25 72 26 56 35 66 56 66 21 0 23 -2 12
-14z m149 -38 c-2 -13 -4 -5 -4 17 -1 22 1 32 4 23 2 -10 2 -28 0 -40z m2405
-146 c-74 -112 -82 -120 -124 -127 -22 -4 -64 -20 -93 -35 -45 -24 -52 -30
-40 -40 9 -8 13 -22 9 -39 -3 -14 -7 -36 -10 -48 -4 -20 -11 -23 -55 -23 l-52
0 7 37 c3 21 6 44 6 51 0 6 6 12 14 12 7 0 19 6 25 14 7 8 26 18 42 21 28 6
35 15 22 28 -3 4 -12 2 -20 -5 -24 -20 -38 5 -23 41 14 35 31 42 23 10 -4 -15
0 -22 16 -26 11 -3 21 -9 21 -14 0 -5 6 -6 14 -3 9 3 12 12 8 22 -5 15 -4 16
13 2 11 -9 16 -10 11 -2 -4 6 -3 12 1 12 5 0 14 9 20 19 11 18 10 20 -22 18
-19 -2 -37 -6 -41 -10 -10 -9 -24 -9 -24 1 0 4 25 21 56 37 63 33 106 78 124
127 8 21 29 45 59 64 l46 31 3 -58 c3 -54 0 -64 -36 -117z m439 51 c8 -12 40
-38 70 -59 84 -57 84 -57 63 -93 -16 -27 -17 -36 -6 -64 11 -28 10 -34 -5 -44
-9 -7 -25 -13 -34 -13 -10 0 -25 -7 -33 -16 -14 -14 -17 -13 -25 8 -6 13 -20
70 -32 128 -44 210 -46 229 -35 240 8 8 12 0 16 -27 3 -21 13 -48 21 -60z
m2354 68 c67 -26 286 -133 255 -125 -31 8 -142 57 -192 84 -20 11 -46 20 -56
20 -11 0 -25 6 -32 14 -6 8 -21 17 -33 19 -12 2 -15 5 -7 6 8 0 38 -8 65 -18z
m-6451 -43 c9 -77 2 -125 -21 -152 -26 -30 -19 -34 16 -9 13 9 41 19 63 23 36
7 41 5 74 -34 19 -22 37 -51 41 -64 4 -18 8 -21 15 -10 16 23 -2 -54 -24 -99
-13 -29 -26 -43 -39 -43 -23 0 -23 4 -3 35 9 14 13 25 10 25 -3 0 -16 -15 -27
-32 l-21 -33 6 45 c4 25 12 59 18 76 11 32 4 99 -11 109 -14 8 -41 -6 -41 -21
0 -8 -7 -17 -15 -20 -8 -4 -15 -15 -15 -25 0 -32 -29 -34 -59 -5 -35 34 -51
33 -51 -3 0 -26 3 -30 27 -28 22 2 32 -6 55 -44 34 -55 30 -79 -16 -79 -29 0
-33 5 -68 78 -20 43 -33 81 -28 87 18 22 68 122 74 147 4 18 -1 38 -15 62 -16
28 -18 37 -7 40 7 2 20 7 28 9 27 9 29 7 34 -35z m1353 20 c-3 -8 -6 -5 -6 6
-1 11 2 17 5 13 3 -3 4 -12 1 -19z m2223 -3 c0 -39 -88 -117 -151 -135 -27 -8
-29 -7 -24 10 4 11 0 22 -9 27 -11 6 6 17 62 42 42 19 84 40 92 48 15 13 30
17 30 8z m-2183 -42 c-3 -10 -5 -4 -5 12 0 17 2 24 5 18 2 -7 2 -21 0 -30z
m4800 1 c-3 -3 -12 -4 -19 -1 -8 3 -5 6 6 6 11 1 17 -2 13 -5z m-32 -24 c-3
-5 -13 -10 -21 -10 -8 0 -12 5 -9 10 3 6 13 10 21 10 8 0 12 -4 9 -10z m-5590
-30 c3 -5 1 -10 -4 -10 -6 0 -11 5 -11 10 0 6 2 10 4 10 3 0 8 -4 11 -10z
m2093 -2 c28 -28 7 -78 -33 -78 -27 0 -45 18 -45 45 0 27 18 45 45 45 12 0 26
-5 33 -12z m3402 -18 c0 -5 -5 -10 -11 -10 -5 0 -7 5 -4 10 3 6 8 10 11 10 2
0 4 -4 4 -10z m-5001 -26 c2 -2 -18 -4 -45 -3 -36 0 -44 3 -29 9 18 7 63 3 74
-6z m2138 -10 c-3 -3 -12 -4 -19 -1 -8 3 -5 6 6 6 11 1 17 -2 13 -5z m2883 -4
c0 -5 -5 -10 -11 -10 -5 0 -7 5 -4 10 3 6 8 10 11 10 2 0 4 -4 4 -10z m381
-19 c17 -13 29 -16 40 -10 13 6 21 2 33 -16 16 -24 16 -25 -6 -22 -14 1 -22
-3 -21 -10 2 -7 -28 -32 -65 -58 -38 -25 -83 -61 -102 -80 -19 -19 -42 -35
-52 -35 -26 0 -23 5 29 52 25 24 65 62 89 86 23 23 47 42 53 42 6 0 11 7 11
16 0 9 -5 12 -12 8 -8 -5 -9 -2 -5 9 10 26 -6 20 -37 -12 -18 -19 -26 -36 -22
-46 5 -13 2 -15 -16 -9 -17 5 -20 3 -15 -10 4 -9 3 -15 -2 -13 -5 1 -47 -26
-95 -61 -47 -34 -90 -62 -96 -62 -19 0 -10 16 18 32 38 23 115 99 107 106 -3
4 -19 -8 -36 -26 -16 -18 -32 -32 -35 -32 -10 0 10 25 39 49 16 14 35 31 42
38 8 7 22 10 32 7 11 -4 14 -3 6 3 -16 11 20 55 40 48 7 -3 20 1 27 10 16 19
23 19 51 -4z m-3361 0 c0 -6 -5 -13 -12 -17 -6 -4 -8 -3 -4 4 3 6 -3 12 -16
15 -20 4 -19 4 5 6 15 0 27 -3 27 -8z m80 -6 c0 -8 -4 -15 -10 -15 -5 0 -10 7
-10 15 0 8 5 15 10 15 6 0 10 -7 10 -15z m38 -25 c-2 -56 -14 -59 -16 -5 -1
25 2 45 8 45 5 0 9 -18 8 -40z m2769 34 c-3 -3 -12 -4 -19 -1 -8 3 -5 6 6 6
11 1 17 -2 13 -5z m-2637 -14 c-20 -13 -33 -13 -25 0 3 6 14 10 23 10 15 0 15
-2 2 -10z m-425 -40 c-35 -7 -52 -3 -58 14 -4 10 5 11 41 2 45 -10 46 -11 17
-16z m1385 16 c0 -7 -6 -19 -14 -25 -11 -9 -13 -7 -11 11 3 28 3 28 15 28 6 0
10 -6 10 -14z m-4015 -26 c-8 -16 -15 -39 -15 -51 0 -12 -3 -20 -6 -16 -13 12
7 97 22 97 13 0 13 -4 -1 -30z m2855 26 c0 -15 -36 -36 -59 -36 -16 0 -34 -7
-41 -15 -7 -8 -16 -15 -21 -15 -5 0 -6 7 -3 15 4 8 12 15 19 15 7 0 18 6 24
14 7 8 23 13 37 11 13 -1 27 2 30 6 5 9 14 12 14 5z m3454 -16 c-12 -4 -24
-15 -27 -24 -4 -9 -13 -16 -21 -16 -24 0 25 48 49 48 19 1 19 0 -1 -8z m-3594
-4 c0 -11 -19 -15 -25 -6 -3 5 1 10 9 10 9 0 16 -2 16 -4z m3167 -32 c-3 -3
-12 -4 -19 -1 -8 3 -5 6 6 6 11 1 17 -2 13 -5z m463 -26 c0 -4 -4 -8 -10 -8
-5 0 -10 5 -10 10 0 6 -7 10 -15 10 -8 0 -15 4 -15 10 0 6 10 5 25 -2 14 -6
25 -15 25 -20z m33 -27 c-15 -25 -32 -56 -38 -68 -9 -21 -45 -33 -45 -15 0 10
31 54 58 82 12 13 22 29 22 35 0 7 7 12 15 12 12 0 9 -11 -12 -46z m-3396 3
c-3 -3 -12 -4 -19 -1 -8 3 -5 6 6 6 11 1 17 -2 13 -5z m943 -7 c0 -2 -7 -18
-15 -34 -19 -38 -45 -51 -45 -23 0 14 -5 18 -17 14 -10 -4 0 5 22 20 37 24 55
31 55 23z m-4018 -37 c3 -17 1 -30 -4 -30 -4 0 -8 14 -8 30 0 17 2 30 4 30 2
0 6 -13 8 -30z m3018 -10 l0 -40 -49 0 c-35 0 -51 4 -55 16 -9 23 -8 24 17 25
12 0 36 9 52 19 17 10 31 19 33 19 1 1 2 -17 2 -39z m325 7 c6 -7 3 -7 -10 -3
-17 6 -17 4 4 -18 17 -18 20 -26 10 -26 -15 0 -69 55 -69 71 0 9 49 -9 65 -24z
m-485 -11 c0 -3 -4 -8 -10 -11 -5 -3 -10 -1 -10 4 0 6 5 11 10 11 6 0 10 -2
10 -4z m440 -28 c0 -5 -7 -8 -15 -8 -15 0 -20 21 -8 33 7 7 23 -11 23 -25z
m2280 28 c0 -3 -4 -8 -10 -11 -5 -3 -10 -1 -10 4 0 6 5 11 10 11 6 0 10 -2 10
-4z m-3053 -17 c9 -9 20 -9 44 0 34 12 45 9 34 -8 -3 -7 -41 -11 -88 -11 -74
1 -80 2 -63 15 24 18 58 19 73 4z m377 -4 c3 -8 1 -15 -4 -15 -6 0 -10 7 -10
15 0 8 2 15 4 15 2 0 6 -7 10 -15z m1043 -7 c-3 -8 -6 -5 -6 6 -1 11 2 17 5
13 3 -3 4 -12 1 -19z m1263 12 c0 -5 -4 -10 -10 -10 -5 0 -10 5 -10 10 0 6 5
10 10 10 6 0 10 -4 10 -10z m-4510 -10 c0 -5 -4 -10 -10 -10 -5 0 -10 5 -10
10 0 6 5 10 10 10 6 0 10 -4 10 -10z m4980 0 c0 -5 -4 -10 -10 -10 -5 0 -10 5
-10 10 0 6 5 10 10 10 6 0 10 -4 10 -10z"/>
<path d="M2420 4251 c-13 -26 -13 -34 5 -57 13 -17 14 -15 12 29 -1 26 -2 47
-4 47 -1 0 -7 -9 -13 -19z"/>
<path d="M2480 4209 c0 -5 5 -7 10 -4 6 3 10 8 10 11 0 2 -4 4 -10 4 -5 0 -10
-5 -10 -11z"/>
<path d="M2978 4222 c-16 -2 -28 -7 -28 -12 0 -13 34 -22 38 -11 2 6 8 9 12 6
5 -3 11 -1 14 4 8 13 -4 17 -36 13z"/>
<path d="M2980 4160 c0 -5 7 -10 15 -10 8 0 15 5 15 10 0 6 -7 10 -15 10 -8 0
-15 -4 -15 -10z"/>
<path d="M2917 4010 c-4 -15 0 -20 15 -20 13 0 18 6 16 17 -5 24 -25 27 -31 3z"/>
<path d="M2975 3960 c-3 -5 -1 -10 4 -10 6 0 11 5 11 10 0 6 -2 10 -4 10 -3 0
-8 -4 -11 -10z"/>
<path d="M3157 3954 c6 -15 23 -19 23 -5 0 5 -7 11 -14 14 -10 4 -13 1 -9 -9z"/>
<path d="M3080 3918 c0 -9 5 -20 10 -23 13 -8 13 5 0 25 -8 13 -10 13 -10 -2z"/>
<path d="M3034 3841 c3 -18 6 -40 6 -47 0 -8 7 -14 15 -14 12 0 13 4 6 19 -6
10 -8 21 -5 24 3 3 -2 16 -11 29 l-17 23 6 -34z"/>
<path d="M3132 3840 c0 -14 2 -19 5 -12 2 6 2 18 0 25 -3 6 -5 1 -5 -13z"/>
<path d="M3105 3827 c-9 -22 17 -62 44 -70 12 -3 21 -1 21 5 0 5 -9 12 -20 15
-12 3 -24 18 -29 37 -7 25 -10 28 -16 13z"/>
<path d="M3012 3816 c7 -8 15 -12 17 -11 5 6 -10 25 -20 25 -5 0 -4 -6 3 -14z"/>
<path d="M3932 3762 c-23 -4 -23 -4 -20 -155 3 -150 3 -152 26 -155 l23 -4 -3
141 -3 141 29 0 29 0 -5 -111 c-4 -102 -3 -112 14 -117 22 -5 24 -20 2 -18
-31 2 -25 -22 5 -26 38 -6 45 10 33 74 -5 25 -7 61 -5 79 1 19 0 28 -3 22 -3
-7 -10 -13 -15 -13 -14 0 -11 37 5 52 7 8 17 33 21 56 l7 42 -39 -5 c-21 -3
-39 -9 -41 -15 -2 -5 -10 -10 -18 -10 -9 0 -13 4 -9 9 7 13 -5 18 -33 13z m10
-173 c-3 -28 -7 -37 -13 -28 -10 17 -12 73 -2 82 12 13 19 -11 15 -54z m98 -5
c0 -8 -4 -12 -10 -9 -5 3 -10 10 -10 16 0 5 5 9 10 9 6 0 10 -7 10 -16z m8
-51 c-2 -10 -11 -19 -21 -21 -16 -3 -17 -1 -5 17 16 25 31 27 26 4z"/>
<path d="M4095 3760 c-3 -6 1 -13 10 -16 19 -8 30 0 20 15 -8 14 -22 14 -30 1z"/>
<path d="M3740 3735 c0 -8 3 -15 8 -15 14 0 8 -114 -7 -126 -10 -7 -12 -21 -7
-45 4 -19 9 -49 13 -66 4 -28 9 -33 32 -32 14 1 19 3 10 6 -20 5 -28 79 -21
189 4 64 7 73 25 76 40 6 31 28 -12 28 -30 0 -41 -4 -41 -15z"/>
<path d="M3855 3741 c-3 -5 -1 -12 5 -16 5 -3 10 1 10 9 0 18 -6 21 -15 7z"/>
<path d="M3497 3733 c-23 -22 10 -122 35 -107 4 3 8 1 8 -5 0 -5 -3 -11 -8
-13 -4 -1 -2 -19 5 -38 l12 -35 0 52 c1 28 -4 55 -10 59 -11 6 -8 44 6 77 6
13 2 17 -17 17 -14 0 -28 -3 -31 -7z"/>
<path d="M3654 3724 c3 -9 6 -23 7 -32 1 -10 4 -7 9 8 l8 25 1 -27 c1 -15 5
-29 10 -32 11 -7 23 22 15 35 -3 5 2 12 10 15 26 10 7 24 -31 24 -28 0 -34 -3
-29 -16z"/>
<path d="M3386 3721 c-18 -7 -17 -9 11 -23 28 -14 32 -14 37 -1 3 8 11 11 17
7 7 -4 10 -1 7 7 -5 16 -44 22 -72 10z"/>
<path d="M4108 3724 c-5 -4 -8 -26 -7 -48 l1 -41 9 33 c11 37 9 68 -3 56z"/>
<path d="M3204 3704 c3 -9 6 -21 6 -27 0 -7 9 -18 19 -24 17 -11 19 -9 17 15
-1 29 -17 52 -36 52 -7 0 -9 -7 -6 -16z"/>
<path d="M3245 3710 c3 -5 10 -10 16 -10 5 0 9 5 9 10 0 6 -7 10 -16 10 -8 0
-12 -4 -9 -10z"/>
<path d="M3593 3620 c0 -41 2 -58 4 -37 2 20 2 54 0 75 -2 20 -4 3 -4 -38z"/>
<path d="M3681 3634 c0 -11 3 -14 6 -6 3 7 2 16 -1 19 -3 4 -6 -2 -5 -13z"/>
<path d="M3792 3620 c0 -19 2 -27 5 -17 2 9 2 25 0 35 -3 9 -5 1 -5 -18z"/>
<path d="M2960 3600 c0 -30 4 -40 16 -40 12 0 15 6 10 23 -3 12 -6 30 -6 40 0
9 -4 17 -10 17 -5 0 -10 -18 -10 -40z"/>
<path d="M3140 3631 c0 -5 5 -13 10 -16 6 -3 10 -2 10 4 0 5 -4 13 -10 16 -5
3 -10 2 -10 -4z"/>
<path d="M3171 3624 c0 -11 3 -14 6 -6 3 7 2 16 -1 19 -3 4 -6 -2 -5 -13z"/>
<path d="M3213 3626 c4 -10 7 -47 7 -83 0 -47 3 -64 12 -61 8 3 12 22 11 54
-4 81 -7 97 -22 102 -10 3 -12 0 -8 -12z"/>
<path d="M4101 3575 c-1 -27 -4 -60 -7 -72 -4 -13 -2 -23 4 -23 13 0 20 76 11
115 -6 25 -7 22 -8 -20z"/>
<path d="M3067 3552 c-13 -3 -16 -9 -11 -20 4 -10 11 -42 15 -72 18 -131 22
-150 30 -150 12 0 11 45 -2 90 -9 31 -8 43 6 74 9 20 21 36 25 36 8 0 20 -50
20 -86 0 -24 15 -33 22 -13 5 15 -6 127 -13 134 -8 7 -68 12 -92 7z"/>
<path d="M3694 3539 c-3 -6 0 -18 9 -26 13 -13 14 -12 10 11 -6 29 -9 31 -19
15z"/>
<path d="M3700 3471 c0 -12 5 -21 10 -21 6 0 10 6 10 14 0 8 -4 18 -10 21 -5
3 -10 -3 -10 -14z"/>
<path d="M3790 3479 c0 -5 5 -7 10 -4 6 3 10 8 10 11 0 2 -4 4 -10 4 -5 0 -10
-5 -10 -11z"/>
<path d="M3042 3450 c0 -19 2 -27 5 -17 2 9 2 25 0 35 -3 9 -5 1 -5 -18z"/>
<path d="M4285 3300 c-3 -5 1 -10 10 -10 9 0 13 5 10 10 -3 6 -8 10 -10 10 -2
0 -7 -4 -10 -10z"/>
<path d="M4418 3223 c7 -3 16 -2 19 1 4 3 -2 6 -13 5 -11 0 -14 -3 -6 -6z"/>
<path d="M4460 3212 c0 -12 88 -37 97 -28 3 3 -3 6 -13 6 -11 0 -24 4 -29 9
-15 14 -55 23 -55 13z"/>
<path d="M5140 3070 c0 -5 5 -10 10 -10 6 0 10 5 10 10 0 6 -4 10 -10 10 -5 0
-10 -4 -10 -10z"/>
<path d="M5033 3053 c9 -2 25 -2 35 0 9 3 1 5 -18 5 -19 0 -27 -2 -17 -5z"/>
<path d="M5173 3043 c9 -2 23 -2 30 0 6 3 -1 5 -18 5 -16 0 -22 -2 -12 -5z"/>
<path d="M5218 2993 c7 -3 16 -2 19 1 4 3 -2 6 -13 5 -11 0 -14 -3 -6 -6z"/>
<path d="M5885 2850 c3 -5 8 -10 11 -10 2 0 4 5 4 10 0 6 -5 10 -11 10 -5 0
-7 -4 -4 -10z"/>
<path d="M6019 2764 c14 -29 31 -41 71 -49 32 -6 34 -6 15 8 -11 8 -31 18 -45
22 -14 4 -31 15 -38 24 -11 14 -12 13 -3 -5z"/>
<path d="M2656 3953 c-6 -14 -5 -15 5 -6 7 7 10 15 7 18 -3 3 -9 -2 -12 -12z"/>
<path d="M2415 3910 c3 -5 8 -10 11 -10 2 0 4 5 4 10 0 6 -5 10 -11 10 -5 0
-7 -4 -4 -10z"/>
<path d="M1678 3643 c7 -3 16 -2 19 1 4 3 -2 6 -13 5 -11 0 -14 -3 -6 -6z"/>
<path d="M1710 3635 c0 -16 16 -20 24 -6 3 5 -1 11 -9 15 -9 3 -15 0 -15 -9z"/>
<path d="M1970 3606 c0 -11 8 -16 28 -15 15 0 21 3 12 6 -8 3 -21 10 -27 16
-9 7 -13 5 -13 -7z"/>
<path d="M642 3555 c0 -16 2 -22 5 -12 2 9 2 23 0 30 -3 6 -5 -1 -5 -18z"/>
<path d="M734 3553 c4 -16 8 -36 9 -45 1 -10 7 -18 14 -18 11 0 11 5 3 20 -6
10 -10 23 -9 27 4 22 -2 43 -12 43 -7 0 -9 -10 -5 -27z"/>
<path d="M855 3280 c-3 -5 -1 -10 4 -10 6 0 11 5 11 10 0 6 -2 10 -4 10 -3 0
-8 -4 -11 -10z"/>
<path d="M7007 3223 c-14 -13 -6 -33 13 -33 13 0 20 7 20 20 0 19 -20 27 -33
13z"/>
<path d="M1718 2863 c18 -2 45 -2 60 0 15 2 0 4 -33 4 -33 0 -45 -2 -27 -4z"/>
<path d="M7000 2840 c0 -5 12 -10 28 -9 24 0 25 1 7 9 -27 12 -35 12 -35 0z"/>
<path d="M7091 2821 c-9 -6 -6 -10 10 -14 28 -8 34 -3 16 11 -7 6 -19 7 -26 3z"/>
<path d="M3515 2700 c3 -5 8 -10 11 -10 2 0 4 5 4 10 0 6 -5 10 -11 10 -5 0
-7 -4 -4 -10z"/>
<path d="M3516 2651 c-3 -5 1 -11 9 -14 9 -4 12 -1 8 9 -6 16 -10 17 -17 5z"/>
<path d="M3500 2594 c0 -27 3 -35 9 -25 5 8 8 23 5 34 -6 36 -14 31 -14 -9z"/>
<path d="M3936 2255 c4 -8 8 -15 10 -15 2 0 4 7 4 15 0 8 -4 15 -10 15 -5 0
-7 -7 -4 -15z"/>
<path d="M3961 2244 c0 -11 3 -14 6 -6 3 7 2 16 -1 19 -3 4 -6 -2 -5 -13z"/>
<path d="M4190 1990 c0 -5 5 -10 10 -10 6 0 10 5 10 10 0 6 -4 10 -10 10 -5 0
-10 -4 -10 -10z"/>
<path d="M5400 1924 c0 -8 5 -12 10 -9 6 3 10 10 10 16 0 5 -4 9 -10 9 -5 0
-10 -7 -10 -16z"/>
<path d="M6005 1930 c-3 -5 -2 -10 4 -10 5 0 13 5 16 10 3 6 2 10 -4 10 -5 0
-13 -4 -16 -10z"/>
<path d="M5790 1850 c0 -5 5 -10 10 -10 6 0 10 5 10 10 0 6 -4 10 -10 10 -5 0
-10 -4 -10 -10z"/>
<path d="M3870 1670 c0 -5 5 -10 10 -10 6 0 10 5 10 10 0 6 -4 10 -10 10 -5 0
-10 -4 -10 -10z"/>
<path d="M3930 764 c-17 -20 -29 -39 -26 -42 3 -3 7 -3 9 -1 2 2 15 21 30 42
35 47 29 48 -13 1z"/>
<path d="M3771 644 c0 -11 3 -14 6 -6 3 7 2 16 -1 19 -3 4 -6 -2 -5 -13z"/>
<path d="M3496 1057 c3 -10 9 -15 12 -12 3 3 0 11 -7 18 -10 9 -11 8 -5 -6z"/>
<path d="M2021 684 c0 -11 3 -14 6 -6 3 7 2 16 -1 19 -3 4 -6 -2 -5 -13z"/>
<path d="M2012 640 c0 -14 2 -19 5 -12 2 6 2 18 0 25 -3 6 -5 1 -5 -13z"/>
<path d="M1986 585 c-3 -9 -6 -22 -5 -28 0 -7 5 -1 10 12 5 13 8 26 5 28 -2 2
-6 -3 -10 -12z"/>
<path d="M2000 509 c0 -5 5 -7 10 -4 6 3 10 8 10 11 0 2 -4 4 -10 4 -5 0 -10
-5 -10 -11z"/>
<path d="M1291 784 c0 -11 3 -14 6 -6 3 7 2 16 -1 19 -3 4 -6 -2 -5 -13z"/>
<path d="M1311 734 c0 -11 3 -14 6 -6 3 7 2 16 -1 19 -3 4 -6 -2 -5 -13z"/>
<path d="M1322 675 c0 -16 2 -22 5 -12 2 9 2 23 0 30 -3 6 -5 -1 -5 -18z"/>
<path d="M3577 634 c-4 -4 -7 -14 -7 -23 0 -11 3 -12 11 -4 6 6 10 16 7 23 -2
6 -7 8 -11 4z"/>
<path d="M5330 166 c0 -3 15 -15 33 -27 l32 -23 -24 27 c-22 24 -41 35 -41 23z"/>
<path d="M7481 471 c-10 -6 -4 -12 23 -21 49 -16 69 -7 29 13 -37 20 -34 19
-52 8z"/>
<path d="M7618 423 c7 -3 16 -2 19 1 4 3 -2 6 -13 5 -11 0 -14 -3 -6 -6z"/>
<path d="M7628 372 c-32 -19 -38 -38 -8 -22 15 8 27 7 49 -5 62 -32 84 -11 25
24 -41 25 -33 24 -66 3z"/>
<path d="M4740 111 c0 -6 4 -13 10 -16 6 -3 7 1 4 9 -7 18 -14 21 -14 7z"/>
<path d="M1360 170 c0 -5 5 -10 11 -10 5 0 7 5 4 10 -3 6 -8 10 -11 10 -2 0
-4 -4 -4 -10z"/>
<path d="M1327 71 c-6 -24 3 -33 21 -22 9 5 9 11 -1 26 -13 17 -14 17 -20 -4z"/>
<path d="M4846 344 c-17 -12 -17 -14 -4 -14 9 0 20 5 23 11 11 17 2 18 -19 3z"/>
<path d="M7745 219 c-4 -6 -5 -12 -2 -15 2 -3 7 2 10 11 7 17 1 20 -8 4z"/>
<path d="M3408 5393 c17 -2 47 -2 65 0 17 2 3 4 -33 4 -36 0 -50 -2 -32 -4z"/>
<path d="M6660 5385 c-11 -14 -7 -19 13 -16 4 0 7 -4 7 -11 0 -9 3 -9 11 -1
13 13 6 43 -9 43 -5 0 -15 -7 -22 -15z"/>
<path d="M3511 5386 c2 -2 63 -6 134 -8 83 -4 108 -3 70 2 -62 8 -211 13 -204
6z"/>
<path d="M6557 5366 c-3 -8 2 -16 11 -18 23 -6 42 1 42 16 0 17 -47 18 -53 2z"/>
<path d="M6475 5360 c-3 -5 -4 -14 -1 -19 5 -8 14 -8 45 -2 7 2 -21 31 -30 31
-4 0 -11 -4 -14 -10z"/>
<path d="M3893 5353 c15 -2 37 -2 50 0 12 2 0 4 -28 4 -27 0 -38 -2 -22 -4z"/>
<path d="M3976 5349 c3 -5 38 -9 77 -8 85 1 79 6 -15 12 -38 3 -65 1 -62 -4z"/>
<path d="M6396 5353 c-13 -13 -5 -29 14 -30 11 -1 20 4 20 12 0 14 -24 27 -34
18z"/>
<path d="M4148 5333 c12 -2 32 -2 45 0 12 2 2 4 -23 4 -25 0 -35 -2 -22 -4z"/>
<path d="M6320 5326 c0 -8 4 -17 9 -20 11 -7 33 18 24 27 -12 12 -33 7 -33 -7z"/>
<path d="M6255 5320 c-3 -5 -3 -15 1 -21 6 -11 23 6 24 24 0 10 -18 9 -25 -3z"/>
<path d="M4343 5313 c9 -2 23 -2 30 0 6 3 -1 5 -18 5 -16 0 -22 -2 -12 -5z"/>
<path d="M6180 5306 c0 -8 4 -17 8 -20 13 -8 35 11 28 23 -10 16 -36 14 -36
-3z"/>
<path d="M4448 5303 c18 -2 45 -2 60 0 15 2 0 4 -33 4 -33 0 -45 -2 -27 -4z"/>
<path d="M6105 5301 c-3 -6 -4 -15 -1 -20 8 -13 48 -1 43 13 -5 15 -34 20 -42
7z"/>
<path d="M4578 5293 c18 -2 45 -2 60 0 15 2 0 4 -33 4 -33 0 -45 -2 -27 -4z"/>
<path d="M6025 5290 c-3 -5 -2 -17 2 -25 8 -13 12 -13 27 -2 11 8 16 19 12 25
-9 15 -33 16 -41 2z"/>
<path d="M8015 5260 c7 -50 -8 -104 -45 -163 -17 -28 -24 -45 -15 -37 51 42
88 160 66 210 -11 23 -11 22 -6 -10z"/>
<path d="M7682 5257 c-30 -32 -40 -107 -17 -130 16 -17 70 -18 96 -2 14 10 39
69 39 95 0 22 -28 39 -39 24 -3 -5 -23 -10 -45 -10 -24 -1 -33 2 -25 7 8 5 26
9 42 9 26 0 40 16 15 17 -7 0 -20 4 -28 7 -10 4 -24 -2 -38 -17z m29 -82 c-7
-30 -7 -30 -14 -5 -4 14 -1 27 6 32 16 10 17 6 8 -27z"/>
<path d="M86 5253 c-6 -14 -5 -15 5 -6 7 7 10 15 7 18 -3 3 -9 -2 -12 -12z"/>
<path d="M4883 5263 c15 -2 37 -2 50 0 12 2 0 4 -28 4 -27 0 -38 -2 -22 -4z"/>
<path d="M5017 5253 c18 -2 50 -2 70 0 21 2 7 4 -32 4 -38 0 -55 -2 -38 -4z"/>
<path d="M5163 5243 c9 -2 23 -2 30 0 6 3 -1 5 -18 5 -16 0 -22 -2 -12 -5z"/>
<path d="M5218 5243 c7 -3 16 -2 19 1 4 3 -2 6 -13 5 -11 0 -14 -3 -6 -6z"/>
<path d="M5506 5198 c3 -13 5 -43 5 -68 -1 -41 0 -43 14 -25 8 11 15 32 15 47
0 15 4 29 9 32 5 4 12 -50 16 -124 4 -71 11 -130 16 -130 8 0 17 240 10 273
-2 13 -13 17 -47 17 -39 0 -42 -2 -38 -22z"/>
<path d="M5440 5181 c4 -15 14 -39 21 -52 13 -23 14 -23 20 21 6 47 -1 60 -33
60 -14 0 -15 -5 -8 -29z"/>
<path d="M5608 5205 c-2 -3 -2 -20 0 -37 5 -32 6 -32 13 -8 l7 25 1 -25 c1
-15 -5 -32 -11 -39 -11 -11 -10 -13 0 -7 9 6 11 -8 7 -63 -5 -60 -4 -71 10
-71 9 0 19 -9 23 -19 4 -11 7 15 8 59 0 49 6 85 14 95 13 16 35 21 26 6 -3 -5
1 -12 10 -15 8 -3 12 -2 9 4 -11 17 14 11 33 -8 21 -21 56 -37 47 -21 -4 5 -2
15 3 22 5 7 10 29 10 50 1 31 -2 37 -18 37 -11 0 -20 -4 -20 -10 0 -5 5 -10
11 -10 5 0 7 -5 3 -11 -3 -6 -1 -14 5 -18 6 -4 9 -15 5 -24 -5 -13 -9 -14 -27
-4 -12 7 -25 16 -28 21 -4 5 -14 6 -23 3 -9 -4 -16 -2 -16 4 0 6 -7 6 -20 -1
-17 -9 -20 -8 -20 8 0 28 22 50 55 55 17 2 -2 5 -41 6 -39 0 -73 -1 -76 -4z"/>
<path d="M5392 5014 c3 -185 18 -285 18 -124 0 47 3 136 7 198 5 102 4 112
-11 112 -16 0 -17 -16 -14 -186z"/>
<path d="M5324 5168 c3 -13 6 -36 7 -53 0 -25 2 -27 8 -10 8 19 9 18 12 -5 4
-21 6 -18 16 18 11 41 10 43 -10 37 -19 -5 -20 -5 -4 5 25 16 21 30 -9 30 -22
0 -25 -3 -20 -22z"/>
<path d="M5700 5174 c0 -19 12 -24 31 -13 27 14 23 27 -6 25 -14 0 -25 -6 -25
-12z"/>
<path d="M5860 5166 c0 -19 4 -23 20 -19 11 3 20 14 20 24 0 12 -7 19 -20 19
-14 0 -20 -7 -20 -24z"/>
<path d="M7931 5174 c0 -11 3 -14 6 -6 3 7 2 16 -1 19 -3 4 -6 -2 -5 -13z"/>
<path d="M5267 5173 c-11 -10 -8 -41 3 -48 15 -9 40 14 40 36 0 19 -29 27 -43
12z"/>
<path d="M5198 5129 c3 -28 7 -37 13 -28 6 10 9 5 10 -16 1 -27 2 -26 10 10
13 65 11 75 -14 75 -20 0 -22 -4 -19 -41z"/>
<path d="M7822 5162 c-7 -5 -10 -16 -6 -25 3 -10 1 -17 -6 -17 -6 0 -10 -11
-8 -27 4 -37 33 -41 65 -11 l25 23 -6 -22 c-5 -14 -3 -23 3 -23 7 0 11 20 10
48 0 26 -3 41 -6 34 -4 -10 -9 -8 -20 7 -15 22 -30 26 -51 13z"/>
<path d="M5149 5128 c-2 -18 -2 -98 1 -178 l5 -145 8 120 c4 66 10 146 13 178
5 46 3 57 -9 57 -9 0 -16 -12 -18 -32z"/>
<path d="M5069 5133 c-2 -10 -2 -52 1 -93 l5 -75 8 62 c10 81 27 92 27 17 0
-79 6 -65 13 29 5 71 -4 103 -16 57 -3 -11 -11 -20 -18 -20 -10 0 -10 3 -1 12
16 16 15 28 -2 28 -7 0 -15 -8 -17 -17z"/>
<path d="M5027 5128 c-2 -7 0 -23 4 -35 5 -14 4 -23 -4 -26 -9 -3 -9 -8 -1
-17 9 -9 14 -4 23 21 9 25 8 34 -1 41 -10 6 -10 8 0 8 6 0 12 5 12 10 0 14
-28 12 -33 -2z"/>
<path d="M3035 5120 c3 -5 10 -10 16 -10 5 0 9 5 9 10 0 6 -7 10 -16 10 -8 0
-12 -4 -9 -10z"/>
<path d="M3080 5120 c0 -5 11 -10 25 -10 14 0 25 5 25 10 0 6 -11 10 -25 10
-14 0 -25 -4 -25 -10z"/>
<path d="M4970 5114 c0 -8 5 -12 11 -8 8 4 8 0 0 -15 -10 -18 -9 -20 6 -14 23
8 32 23 26 40 -7 18 -43 16 -43 -3z"/>
<path d="M2933 5113 c9 -2 23 -2 30 0 6 3 -1 5 -18 5 -16 0 -22 -2 -12 -5z"/>
<path d="M3163 5113 c9 -2 23 -2 30 0 6 3 -1 5 -18 5 -16 0 -22 -2 -12 -5z"/>
<path d="M4861 5107 c-8 -10 -5 -24 9 -52 l20 -39 0 46 c0 50 -11 66 -29 45z"/>
<path d="M4910 5099 c0 -11 5 -17 10 -14 6 3 10 1 10 -6 0 -8 4 -8 15 1 23 19
18 40 -10 40 -19 0 -25 -5 -25 -21z"/>
<path d="M4812 5089 c2 -6 8 -10 13 -10 5 0 11 4 13 10 2 6 -4 11 -13 11 -9 0
-15 -5 -13 -11z"/>
<path d="M4985 5060 c-3 -5 -1 -10 4 -10 6 0 11 5 11 10 0 6 -2 10 -4 10 -3 0
-8 -4 -11 -10z"/>
<path d="M5810 5043 c0 -7 -9 -13 -20 -13 -21 0 -28 -24 -10 -35 6 -3 10 -13
10 -22 0 -15 -2 -15 -17 -1 -20 17 -57 18 -74 1 -8 -8 -6 -20 7 -42 20 -34 48
-41 58 -15 4 9 9 14 13 11 3 -4 0 -13 -7 -22 -7 -9 -10 -18 -7 -21 9 -9 27 6
38 30 9 21 10 21 5 -1 -2 -13 0 -23 6 -23 5 0 7 -4 4 -9 -4 -5 3 -7 14 -4 11
3 20 12 20 19 0 21 17 17 23 -5 4 -16 10 -19 33 -12 23 6 30 14 32 39 4 38
-19 52 -43 28 -9 -9 -24 -16 -33 -16 -12 0 -8 6 11 18 30 18 31 44 2 88 -15
24 -65 28 -65 7z m44 -26 c8 -12 7 -21 -6 -33 -15 -15 -17 -15 -28 6 -22 42 9
67 34 27z"/>
<path d="M4223 5003 c-15 -5 -18 -43 -4 -43 9 0 26 39 19 44 -1 2 -9 1 -15 -1z"/>
<path d="M4192 4980 c0 -14 2 -19 5 -12 2 6 2 18 0 25 -3 6 -5 1 -5 -13z"/>
<path d="M4150 4981 c0 -17 12 -41 21 -41 5 0 9 11 9 25 0 16 -6 25 -15 25 -8
0 -15 -4 -15 -9z"/>
<path d="M5334 4850 c0 -52 1 -74 3 -47 2 26 2 68 0 95 -2 26 -3 4 -3 -48z"/>
<path d="M5582 4890 c0 -14 2 -19 5 -12 2 6 2 18 0 25 -3 6 -5 1 -5 -13z"/>
<path d="M95 4870 c3 -5 8 -10 11 -10 2 0 4 5 4 10 0 6 -5 10 -11 10 -5 0 -7
-4 -4 -10z"/>
<path d="M5760 4859 c0 -5 5 -7 10 -4 6 3 10 8 10 11 0 2 -4 4 -10 4 -5 0 -10
-5 -10 -11z"/>
<path d="M4692 4820 c0 -14 2 -19 5 -12 2 6 2 18 0 25 -3 6 -5 1 -5 -13z"/>
<path d="M5780 4800 c8 -5 22 -9 30 -9 10 0 8 3 -5 9 -27 12 -43 12 -25 0z"/>
<path d="M5573 4765 c0 -22 2 -30 4 -17 2 12 2 30 0 40 -3 9 -5 -1 -4 -23z"/>
<path d="M4073 4725 c0 -22 2 -30 4 -17 2 12 2 30 0 40 -3 9 -5 -1 -4 -23z"/>
<path d="M4674 4698 c8 -60 11 -65 28 -51 16 13 89 22 82 11 -3 -4 0 -8 5 -8
6 0 12 11 13 25 0 14 1 30 2 35 1 6 -3 10 -9 10 -5 0 -10 -8 -10 -18 0 -13
-10 -17 -43 -19 -35 -1 -43 1 -38 13 6 16 -13 54 -28 54 -5 0 -5 -23 -2 -52z"/>
<path d="M5152 4670 c0 -19 2 -27 5 -17 2 9 2 25 0 35 -3 9 -5 1 -5 -18z"/>
<path d="M5332 4650 c0 -19 2 -27 5 -17 2 9 2 25 0 35 -3 9 -5 1 -5 -18z"/>
<path d="M4590 4309 c-15 -27 -6 -36 29 -31 26 4 28 6 18 23 -17 28 -35 31
-47 8z"/>
<path d="M4095 4280 c-7 -12 2 -30 16 -30 12 0 12 27 0 35 -5 3 -12 1 -16 -5z"/>
<path d="M4690 4260 c0 -5 5 -10 10 -10 6 0 10 5 10 10 0 6 -4 10 -10 10 -5 0
-10 -4 -10 -10z"/>
<path d="M4996 4049 c-19 -23 -26 -38 -21 -53 4 -12 7 -28 8 -36 1 -11 14 -15
53 -14 70 2 77 8 71 57 -6 45 -20 63 -58 72 -21 5 -31 0 -53 -26z m44 -79 c0
-5 -4 -10 -10 -10 -5 0 -10 5 -10 10 0 6 5 10 10 10 6 0 10 -4 10 -10z"/>
<path d="M4847 4059 c-21 -3 -46 -13 -55 -22 -14 -15 -14 -18 1 -35 9 -10 17
-28 17 -39 0 -27 10 -35 27 -22 10 9 13 8 13 -3 0 -8 -16 -20 -35 -28 -19 -8
-35 -17 -35 -21 0 -13 92 -23 109 -12 50 32 78 128 47 162 -22 24 -42 29 -89
20z m3 -163 c0 -3 -4 -8 -10 -11 -5 -3 -10 -1 -10 4 0 6 5 11 10 11 6 0 10 -2
10 -4z"/>
<path d="M5398 4049 c-10 -5 -18 -17 -18 -26 0 -9 3 -13 7 -10 7 8 33 -11 33
-25 0 -6 -11 -7 -25 -4 -18 5 -25 2 -25 -8 0 -8 5 -18 10 -21 6 -3 10 -1 10 4
0 19 46 12 71 -10 l24 -21 7 34 c8 37 0 79 -16 90 -16 11 -58 9 -78 -3z"/>
<path d="M5989 3984 c-10 -12 -10 -20 -1 -35 7 -10 12 -30 12 -44 0 -18 4 -23
15 -19 9 4 15 0 16 -7 0 -8 5 -5 10 6 8 17 9 16 6 -7 -2 -15 -1 -25 3 -23 4 3
13 -2 20 -10 20 -24 49 -18 61 13 38 96 14 142 -73 142 -38 0 -60 -5 -69 -16z"/>
<path d="M4787 3973 c-4 -3 -7 -11 -7 -17 0 -6 5 -5 12 2 6 6 9 14 7 17 -3 3
-9 2 -12 -2z"/>
<path d="M5007 3934 c-3 -4 1 -13 11 -20 21 -16 32 -17 32 -4 0 6 -6 10 -14
10 -8 0 -16 5 -18 11 -2 5 -7 7 -11 3z"/>
<path d="M6677 3864 c-9 -10 4 -34 19 -34 8 0 14 4 14 9 0 12 -26 32 -33 25z"/>
<path d="M6638 3653 c-24 -26 -48 -65 -48 -77 0 -3 20 17 45 43 25 26 45 51
45 55 0 13 -17 5 -42 -21z"/>
<path d="M8087 3358 c-36 -56 -36 -78 3 -78 l30 0 0 60 c0 33 -1 60 -3 60 -1
0 -15 -19 -30 -42z"/>
<path d="M8010 3240 c0 -5 9 -10 19 -10 11 0 23 5 26 10 4 6 -5 10 -19 10 -14
0 -26 -4 -26 -10z"/>
<path d="M7775 3171 c-4 -7 5 -28 20 -47 l27 -36 -33 -34 c-28 -29 -30 -34
-15 -40 13 -5 30 5 59 35 l42 41 -46 46 c-30 30 -49 42 -54 35z"/>
<path d="M41 2834 c0 -11 3 -14 6 -6 3 7 2 16 -1 19 -3 4 -6 -2 -5 -13z"/>
<path d="M0 2746 c0 -19 5 -38 10 -41 6 -4 10 8 10 29 0 19 -4 38 -10 41 -6 4
-10 -8 -10 -29z"/>
<path d="M6215 2761 c-3 -5 -2 -12 3 -15 5 -3 9 1 9 9 0 17 -3 19 -12 6z"/>
<path d="M6240 2740 c0 -5 9 -11 20 -11 11 -1 25 -2 32 -3 6 -1 13 5 16 12 2
8 -8 12 -32 12 -20 0 -36 -4 -36 -10z"/>
<path d="M6338 2733 c7 -3 16 -2 19 1 4 3 -2 6 -13 5 -11 0 -14 -3 -6 -6z"/>
<path d="M7103 2566 c-24 -14 -21 -26 7 -26 9 0 25 -9 35 -20 10 -11 13 -20 7
-20 -6 0 -13 4 -16 9 -6 9 -51 18 -136 26 -41 4 -43 4 -15 -6 17 -6 39 -14 50
-19 62 -25 157 -53 205 -60 30 -4 70 -11 88 -14 22 -4 31 -3 27 4 -3 5 -13 10
-21 10 -9 0 -49 14 -91 31 -58 25 -80 39 -95 65 -11 19 -21 34 -21 33 -1 -1
-12 -7 -24 -13z"/>
<path d="M7447 2443 c-4 -3 -7 -11 -7 -17 0 -6 5 -5 12 2 6 6 9 14 7 17 -3 3
-9 2 -12 -2z"/>
<path d="M7575 2410 c3 -5 8 -10 11 -10 2 0 4 5 4 10 0 6 -5 10 -11 10 -5 0
-7 -4 -4 -10z"/>
<path d="M7720 2320 c0 -5 5 -10 10 -10 6 0 10 5 10 10 0 6 -4 10 -10 10 -5 0
-10 -4 -10 -10z"/>
<path d="M7990 2300 c0 -5 5 -10 10 -10 6 0 10 5 10 10 0 6 -4 10 -10 10 -5 0
-10 -4 -10 -10z"/>
<path d="M7992 2259 c2 -7 10 -15 17 -17 8 -3 12 1 9 9 -2 7 -10 15 -17 17 -8
3 -12 -1 -9 -9z"/>
<path d="M8050 2246 c0 -9 8 -12 25 -8 28 5 24 22 -6 22 -10 0 -19 -6 -19 -14z"/>
<path d="M8060 2216 c0 -2 13 -6 29 -8 17 -2 28 -1 25 4 -5 8 -54 12 -54 4z"/>
<path d="M6818 1901 c8 -4 13 -12 12 -17 -1 -5 3 -10 9 -12 6 -2 11 0 11 5 0
12 -22 33 -34 33 -6 0 -5 -4 2 -9z"/>
<path d="M6884 1328 l-19 -23 23 19 c12 11 22 21 22 23 0 8 -8 2 -26 -19z"/>
</g>
</svg>
